<svg id="Слой_1" data-name="Слой 1" xmlns="http://www.w3.org/2000/svg" viewBox="0 0 100 100"><defs><style>.cls-1{fill:#7e1321;}</style></defs><title>100-Logo-AOduvan-Rest</title><path class="cls-1" d="M25.57,33.65a6.17,6.17,0,0,0-1.36-2.37,3.33,3.33,0,0,0-2.58-1,4,4,0,0,0-2.51.71,5,5,0,0,0-1.47,1.8,7.84,7.84,0,0,0-.72,2.42,20.44,20.44,0,0,0-.17,2.54q0,4.88-.19,9.71c-.14,3.22-.2,6.46-.2,9.72v1.7c0,.56,0,1.11.05,1.66,0,.92.1,1.88.2,2.91a11.52,11.52,0,0,0,.61,2.85,4.91,4.91,0,0,0,1.48,2.18,4.13,4.13,0,0,0,2.77.85,4.34,4.34,0,0,0,2.24-.51,3.5,3.5,0,0,0,1.33-1.37,5.65,5.65,0,0,0,.62-2,18.57,18.57,0,0,0,.14-2.27q0-6,.18-11.94t.17-11.93c0-.78,0-1.7-.08-2.76A11.83,11.83,0,0,0,25.57,33.65ZM24,40.28c0,3.84,0,7.66-.17,11.46s-.17,7.62-.17,11.46a4.42,4.42,0,0,1-.44,2.06,2,2,0,0,1-1.92.83c-1,0-1.67-.26-1.95-.79a4.58,4.58,0,0,1-.41-2.1c0-.94,0-1.89-.05-2.83s-.05-1.89-.05-2.84q0-4.35.1-8.62c.06-2.86.1-5.73.1-8.63,0-.42,0-1,0-1.81a13,13,0,0,1,.32-2.32,6.09,6.09,0,0,1,.84-2,1.81,1.81,0,0,1,1.6-.85,1.5,1.5,0,0,1,1.4.88,6.49,6.49,0,0,1,.64,2A15.23,15.23,0,0,1,24,38.54Q24,39.7,24,40.28Z"/><path class="cls-1" d="M12.44,30.23l-1.08,0H10.08l-2.19,0-2.14.05a4.21,4.21,0,0,0-1,.08c.1.16.18.31.25.44a1,1,0,0,1,.1.43,16.1,16.1,0,0,1-.5,3.28c-.32,1.43-.71,3-1.15,4.56s-.9,3.17-1.35,4.66-.81,2.67-1,3.52S.61,48.81.37,49.69A9.24,9.24,0,0,0,0,52.23c0,.26,0,.83,0,1.73S.07,55.9.1,57.11s.1,2.48.2,3.83.22,2.61.36,3.78a18.57,18.57,0,0,0,.59,3c.25.79.54,1.24.86,1.34a1.48,1.48,0,0,0,.5.1h.54q.5,0,1,0c.31,0,.63,0,1-.07a9.64,9.64,0,0,1-1.21-2.83,30,30,0,0,1-.74-3.57Q2.85,60.78,2.73,59c-.08-1.19-.12-2.21-.12-3.05a41.06,41.06,0,0,1,.24-4.32c.17-1.52.4-3,.72-4.54a44.35,44.35,0,0,1,1.15-4.47,39,39,0,0,1,1.53-4.1l4.33,0v30.9H13l.1-37.2a1.66,1.66,0,0,1,.25-.71,1.84,1.84,0,0,0,.24-.85.81.81,0,0,0-.09-.29ZM10.8,35a1.21,1.21,0,0,1-.2.64.79.79,0,0,1-.57.27,10.91,10.91,0,0,1-1.18,0H8.46l-.61,0a4,4,0,0,1-.57-.07c-.16,0-.25-.08-.25-.15a2.62,2.62,0,0,1,.08-.53c0-.23.11-.49.19-.76s.16-.54.23-.78A5.94,5.94,0,0,1,7.72,33l1.21-.17a9.89,9.89,0,0,1,1.2-.07h.25a.37.37,0,0,1,.29.1,2.83,2.83,0,0,1,.15.93C10.82,34.35,10.81,34.75,10.8,35Z"/><path class="cls-1" d="M99.11,30.28a6.81,6.81,0,0,0-.93-.07,3.87,3.87,0,0,0-.74.1,2.58,2.58,0,0,0-.15.83c0,.45-.06,1-.09,1.66s-.06,1.36-.08,2.14,0,1.53,0,2.25v3a8.75,8.75,0,0,0-1.77-2.39,3.82,3.82,0,0,0-2.76-1c-.19,0-.29-.12-.29-.34,0-.72,0-1.43,0-2.13s0-1.4,0-2.12c0-.23,0-.46,0-.68s0-.46-.07-.69a1.28,1.28,0,0,0-.79-.29c-.36,0-.66-.05-.88-.05a3.15,3.15,0,0,0-.52.05,1.51,1.51,0,0,0-.52.2c-.06,0-.1.3-.12.83s0,1.1,0,1.75v2.79q0,7.95-.12,15.81T89.18,67.8a.68.68,0,0,0,.49.71,2.83,2.83,0,0,0,.89.17h.29a3.91,3.91,0,0,0,.49,0,2,2,0,0,0,.45-.09c.13,0,.19-.13.19-.22V59.45c0-2.15,0-4.39,0-6.74s0-4.51,0-6.51,0-3.66.07-5a9.93,9.93,0,0,1,.15-2.13h.1a1.42,1.42,0,0,1,.64.25,5.62,5.62,0,0,0,.59.34,7.79,7.79,0,0,1,2.73,3.66,13.3,13.3,0,0,1,.81,4.54q0,4.78-.17,9.5t-.18,9.49q0,.82,0,1.32a1.37,1.37,0,0,0,.22.76,1,1,0,0,0,.66.34,9.4,9.4,0,0,0,1.36.07,2.24,2.24,0,0,0,.46,0c.15,0,.22-.14.22-.34V44.56q.1-3.08.18-6.12t.07-6.13v-.83a8.65,8.65,0,0,0,0-.88A1.66,1.66,0,0,0,99.11,30.28Z"/><path class="cls-1" d="M56.34,30.31a1.9,1.9,0,0,0-1.08.24,1.42,1.42,0,0,0-.5.64,2.5,2.5,0,0,0-.12.95c0,.38,0,.76,0,1.15q0,8.31-.05,16.47t-.25,16.47c-.39.07-.79.12-1.2.17a10.39,10.39,0,0,1-1.26.08,2,2,0,0,1-1.62-.81,6.2,6.2,0,0,1-1-1.91,10.15,10.15,0,0,1-.49-2.22c-.08-.75-.13-1.35-.13-1.81A35.21,35.21,0,0,1,49,54.8c.23-1.63.48-3.26.76-4.89s.53-3.26.76-4.89a35,35,0,0,0,.35-4.89v-1q0-.78,0-1.8c0-.69,0-1.41-.05-2.18s0-1.47-.09-2.13-.1-1.19-.15-1.63-.11-.68-.17-.71A3.25,3.25,0,0,0,49,30.36c-.57,0-1-.05-1.45-.05a42.09,42.09,0,0,1,.67,4.34,43.21,43.21,0,0,1,.22,4.4A30.09,30.09,0,0,1,48,44.17q-.47,2.69-1,5.4c-.36,1.8-.69,3.6-1,5.39A29.77,29.77,0,0,0,45.47,60a15.76,15.76,0,0,0,.37,3.44,8.71,8.71,0,0,0,1.23,3,6.25,6.25,0,0,0,2.26,2.1,7,7,0,0,0,3.47.78,15.29,15.29,0,0,0,2.14-.15c.7-.09,1.41-.17,2.14-.24q.09-9.47.19-18.82t.1-18.82a1.21,1.21,0,0,0-.2-.8A1.12,1.12,0,0,0,56.34,30.31Z"/><path class="cls-1" d="M41.33,46.17a64.7,64.7,0,0,0-1.7-7.05,42.18,42.18,0,0,0-2.5-6.47,5.34,5.34,0,0,0-.25-.51c-.13-.25-.28-.5-.44-.76s-.33-.49-.49-.71a1.06,1.06,0,0,0-.4-.36,10,10,0,0,0-1.06-.15c-.34,0-.69-.05-1.05-.05H32.8a8.38,8.38,0,0,0-.84.05l-.84.1a1.79,1.79,0,0,0-.59.15,1,1,0,0,0-.09.39,2.7,2.7,0,0,0-.05.39,56.53,56.53,0,0,0-.22,5.68c0,1.91,0,3.8,0,5.69V58.47c0,1.57,0,3.15-.1,4.74q0,1.32-.12,2.64c0,.88-.07,1.75-.07,2.63a.9.9,0,0,0,.27.76,1.42,1.42,0,0,0,.66.29,3.22,3.22,0,0,0,.89,0,7.08,7.08,0,0,1,.88,0c1,0,2,0,3-.08s2-.07,3.05-.07a2.13,2.13,0,0,0,1.82-1.15,10.67,10.67,0,0,0,1.2-2.66,17.23,17.23,0,0,0,.67-3,19.77,19.77,0,0,0,.2-2.25q0-3.27-.3-6.88T41.33,46.17Zm-1.82,17a4.51,4.51,0,0,1-.64,1.73A3.17,3.17,0,0,1,37.59,66a4.65,4.65,0,0,1-2.14.42A13.94,13.94,0,0,1,34,66.35c-.47,0-1-.07-1.45-.07V33.58a1.38,1.38,0,0,1,.22-.73.69.69,0,0,1,.62-.34.86.86,0,0,1,.46.14,2,2,0,0,1,.37.3,1.67,1.67,0,0,1,.42.53c.15.27.3.54.44.84s.28.58.4.88a5.78,5.78,0,0,0,.27.63,43,43,0,0,1,1.89,5.94,64,64,0,0,1,1.21,6.43c.29,2.18.51,4.36.64,6.52s.19,4.25.19,6.23A12.36,12.36,0,0,1,39.51,63.13Z"/><path class="cls-1" d="M70.24,30.48a3.14,3.14,0,0,0-1.06-.17.38.38,0,0,0-.36.22,1.51,1.51,0,0,0-.18.49,1.87,1.87,0,0,0,0,.53,3.1,3.1,0,0,1,0,.37c-.09,1.46-.26,2.9-.49,4.32s-.44,2.85-.64,4.32c-.36,2.47-.7,4.95-1,7.42s-.67,5-1,7.42c-.07-.42-.18-1.31-.32-2.66s-.34-2.92-.57-4.71-.47-3.67-.71-5.64-.47-3.78-.67-5.44-.36-3-.51-4.13a15.14,15.14,0,0,0-.27-1.68.83.83,0,0,0-.59-.49,6.06,6.06,0,0,0-.79,0h-.49a2.47,2.47,0,0,0-.44,0c0,.52.11,1.46.24,2.83s.29,3,.47,4.88.38,4,.59,6.23.42,4.53.64,6.81.42,4.48.64,6.61.4,4,.56,5.71.31,3,.45,4a13.38,13.38,0,0,0,.24,1.59.47.47,0,0,0,.32.12l.32,0a6.23,6.23,0,0,0,1.33-.15A45.47,45.47,0,0,1,66.46,63q.51-3.35.91-6.37.82-6.39,1.74-12.69T71,31.23A1.24,1.24,0,0,0,70.24,30.48Z"/><path class="cls-1" d="M85.19,30.23l-1.08,0H82.83l-2.18,0-2.14.05a4.25,4.25,0,0,0-1,.08c.1.16.18.31.25.44a1,1,0,0,1,.1.43,16.67,16.67,0,0,1-.49,3.28c-.33,1.43-.72,3-1.16,4.56s-.89,3.17-1.35,4.66-.81,2.67-1,3.52-.41,1.56-.66,2.44a9.24,9.24,0,0,0-.37,2.54c0,.26,0,.83,0,1.73s0,1.94.07,3.15.1,2.48.2,3.83.22,2.61.36,3.78a18.57,18.57,0,0,0,.59,3c.25.79.54,1.24.87,1.34a1.38,1.38,0,0,0,.49.1h.54q.5,0,1,0c.31,0,.63,0,1-.07a9.92,9.92,0,0,1-1.21-2.83,30,30,0,0,1-.74-3.57q-.27-1.84-.39-3.63c-.08-1.19-.12-2.21-.12-3.05a41.06,41.06,0,0,1,.24-4.32c.17-1.52.4-3,.72-4.54a44.35,44.35,0,0,1,1.15-4.47A39,39,0,0,1,79,38.51l4.33,0v30.9h2.46l.09-37.2a1.82,1.82,0,0,1,.25-.71,1.86,1.86,0,0,0,.25-.85.89.89,0,0,0-.1-.29ZM83.55,35a1.21,1.21,0,0,1-.2.64.77.77,0,0,1-.57.27,10.91,10.91,0,0,1-1.18,0h-.39l-.61,0a4,4,0,0,1-.57-.07c-.16,0-.25-.08-.25-.15a2.62,2.62,0,0,1,.08-.53c0-.23.11-.49.19-.76s.16-.54.23-.78a5.94,5.94,0,0,1,.19-.62l1.21-.17a9.89,9.89,0,0,1,1.2-.07h.25a.37.37,0,0,1,.29.1,2.83,2.83,0,0,1,.15.93C83.57,34.35,83.56,34.75,83.55,35Z"/></svg>