<svg id="Слой_1" data-name="Слой 1" xmlns="http://www.w3.org/2000/svg" viewBox="0 0 100 100"><title>100-Logo-Manych</title><path d="M99.17,57.14h-.45l-1,1.69-1-1.69h-.49l1.26,2.09v1.11h.45v-1.1Zm-3.9,2.63a1.35,1.35,0,0,1-.74.2,1.23,1.23,0,1,1,0-2.46,1.26,1.26,0,0,1,.91.37l.28-.28a1.55,1.55,0,0,0-1.21-.5,1.64,1.64,0,1,0,0,3.28,1.88,1.88,0,0,0,1.2-.41V58.72h-.44Zm-4.69.2a1.23,1.23,0,1,1,1.22-1.23A1.19,1.19,0,0,1,90.58,60m0,.41a1.64,1.64,0,1,0-1.68-1.64,1.62,1.62,0,0,0,1.68,1.64m-4.19,0h2.17V60H86.84V57.14h-.45ZM83.89,60a1.23,1.23,0,1,1,1.22-1.23A1.19,1.19,0,0,1,83.89,60m0,.41a1.64,1.64,0,1,0-1.68-1.64,1.62,1.62,0,0,0,1.68,1.64m-3-3.24v2.39L79,57.14h-.37v3.2h.45V58L81,60.34h.37v-3.2Zm-3.81,0v1.38H75.31V57.14h-.45v3.2h.45V58.92h1.81v1.42h.45v-3.2Zm-4.25,3.24a1.55,1.55,0,0,0,1.2-.5l-.29-.29a1.16,1.16,0,0,1-.89.38,1.23,1.23,0,1,1,0-2.46,1.16,1.16,0,0,1,.89.38l.29-.29a1.55,1.55,0,0,0-1.2-.5,1.64,1.64,0,1,0,0,3.28M68.76,60v-1h1.58v-.39H68.76v-1h1.78v-.4H68.31v3.2H70.6V60Zm-2.61.39h.44v-2.8h1.09v-.4H65.06v.4h1.09ZM60.75,60V57.54h.86a1.21,1.21,0,1,1,0,2.41Zm-.45.39h1.33a1.6,1.6,0,1,0,0-3.2H60.3ZM57.59,60v-1h1.59v-.39H57.59v-1h1.78v-.4H57.14v3.2h2.29V60ZM55,60.34h.45v-2.8h1.08v-.4H53.89v.4H55Zm-3.42-1.16.68-1.57.68,1.57Zm1.87,1.16h.47l-1.43-3.2H52l-1.43,3.2h.46l.35-.8h1.68Zm-5.2,0H50.4V60H48.69V57.14h-.46ZM45.52,60v-1h1.59v-.39H45.52v-1H47.3v-.4H45.07v3.2h2.3V60Zm-2.65-1H42.1V57.54h.77c.58,0,.88.26.88.72s-.3.72-.88.72m1.39,1.36-.75-1.07a1,1,0,0,0,.69-1c0-.7-.49-1.12-1.31-1.12H41.65v3.2h.45v-1h1l.69,1ZM37.93,60c-.42,0-.71-.2-.71-.51s.14-.44.58-.69l.9.9a1.06,1.06,0,0,1-.77.3M38,57.43c.27,0,.42.14.42.36s-.14.34-.55.58c-.26-.26-.32-.38-.32-.55s.16-.39.45-.39m1.58,2.67-.42-.43a2.18,2.18,0,0,0,.28-.73l-.35-.12a2,2,0,0,1-.2.59l-.78-.79c.49-.28.67-.51.67-.84s-.3-.67-.78-.67-.85.29-.85.72a1,1,0,0,0,.37.73c-.54.32-.76.59-.76,1s.46.83,1.1.83A1.46,1.46,0,0,0,39,60l.42.42ZM33,60v-1h1.58v-.39H33v-1h1.78v-.4H32.56v3.2h2.29V60Zm-2.65-1h-.77V57.54h.77c.57,0,.88.26.88.72s-.31.72-.88.72m1.38,1.36L31,59.27a1,1,0,0,0,.7-1c0-.7-.5-1.12-1.32-1.12H29.14v3.2h.45v-1h1l.68,1Zm-5,0A1.25,1.25,0,0,0,28.07,59V57.14h-.43v1.8c0,.71-.33,1-.9,1s-.89-.32-.89-1v-1.8H25.4V59a1.25,1.25,0,0,0,1.34,1.42m-3.41,0h.44v-2.8h1.09v-.4H22.24v.4h1.09Zm-3.16,0h2.17V60H20.62V57.14h-.45Zm-2.4,0A1.25,1.25,0,0,0,19.11,59V57.14h-.44v1.8c0,.71-.32,1-.89,1s-.89-.32-.89-1v-1.8h-.45V59a1.25,1.25,0,0,0,1.33,1.42m-3.28,0a1.57,1.57,0,0,0,1.21-.5l-.3-.29a1.16,1.16,0,0,1-.89.38,1.23,1.23,0,1,1,0-2.46,1.16,1.16,0,0,1,.89.38l.3-.29a1.57,1.57,0,0,0-1.21-.5,1.64,1.64,0,1,0,0,3.28m-3,0H12v-3.2h-.45ZM9.34,59H8.57V57.54h.77c.58,0,.88.26.88.72s-.3.72-.88.72m1.39,1.36L10,59.27a1,1,0,0,0,.69-1c0-.7-.49-1.12-1.32-1.12H8.12v3.2h.45v-1h1l.69,1Zm-4-.57A1.4,1.4,0,0,1,6,60a1.23,1.23,0,1,1,0-2.46,1.27,1.27,0,0,1,.92.37l.28-.28a1.56,1.56,0,0,0-1.22-.5,1.64,1.64,0,1,0,0,3.28A1.83,1.83,0,0,0,7.12,60V58.72H6.69Zm-5.1-.59.69-1.57L3,59.18Zm1.87,1.16h.48L2.5,57.14H2.05L.62,60.34h.47l.35-.8H3.12Z"/><path d="M95.09,39.91v5.61H89.33V39.91H85.1V54.85h4.23V49h5.76v5.83h4.23V39.91ZM76.79,55.15a7.89,7.89,0,0,0,6.43-2.82L80.53,49.9A4.42,4.42,0,0,1,77,51.65a4,4,0,0,1-4.17-4.27A4,4,0,0,1,77,43.11a4.42,4.42,0,0,1,3.52,1.75l2.69-2.43a7.89,7.89,0,0,0-6.43-2.82c-4.74,0-8.22,3.22-8.22,7.77s3.48,7.77,8.22,7.77M68.92,39.91h-4.1l-3.55,5.93-3.54-5.93H53.26L59,49.43v5.42h4.22V49.49Zm-20.87,0v8l-6.59-8H38V54.85h4.14v-8l6.6,8H52.2V39.91ZM26.12,48.83l1.93-4.78L30,48.83Zm6.26,6h4.4L30.16,39.91H26L19.4,54.85h4.31L24.89,52h6.32Zm-14.18,0,0-14.94H14.68L9.55,48.53,4.3,39.91H.82V54.85H4.73V47.14l3.82,6.24h1.88l3.84-6.45.05,7.92Z"/></svg>