<svg id="Слой_1" data-name="Слой 1" xmlns="http://www.w3.org/2000/svg" viewBox="0 0 100.4 100"><defs><style>.cls-1{fill:#4d4d4d;}.cls-2{fill:#fff;}</style></defs><title>100-PF-Logo</title><path class="cls-1" d="M100.4,50a50,50,0,0,1-50,50C22.8,100,0,78,0,50.4S22.4,0,50,0h0a50.11,50.11,0,0,1,50.4,50"/><path class="cls-2" d="M30.8,45.2c0,2,.4,2.4,1.2,3.2A22.93,22.93,0,0,0,37.6,50V41.2c0-10.4-2.4-8.8-6.4-9.2h-.4V45.2Z"/><path class="cls-2" d="M19.6,80.8c3.6-.8,3.6-3.6,3.6-8.8V26.4c0-6.4-.4-8.8-4.8-9.2C.8,34.8,0,63.2,17.2,81.2c.4-.4,1.6,0,2.4-.4"/><path class="cls-2" d="M38,17.2c-2.4,0-5.6,0-6.8,2.4a17.32,17.32,0,0,0-.4,6.4v2.8h.8c2.8,0,5.6.4,8.4.4H53.2C51.6,22,46.4,17.6,38,17.2"/><path class="cls-2" d="M44.8,48.8c4.4-1.6,8.4-6.8,8.4-15.6V32c-8.4,0-8.4.4-8.4,4Z"/><path class="cls-2" d="M20,84.4A43.91,43.91,0,0,0,36.8,94a18.71,18.71,0,0,0,.8-6.8V84.8c-3.2,0-6.4-.4-9.6-.4-2.8-.8-5.2,0-8,0"/><path class="cls-2" d="M30.8,54V72c0,8.4,2,8.8,6.8,8.8v-28c-1.2-.4-2.4-.4-3.6-.8a5.69,5.69,0,0,0-2.4-.8c-.8.4-.8,1.6-.8,2.8"/><path class="cls-2" d="M84.4,36.8H83.2a1.4,1.4,0,0,0-.8.4L82,38c-.4.4-.8.8-1.6.4A.39.39,0,0,1,80,38l-.4-.8c-.4-.4-.4-.4-.8-.4H77.6a1.06,1.06,0,0,1-1.2-1.2c0-.4,0-.4.4-.4l.4-.8a.75.75,0,0,0,0-1.2l-.4-.8a1,1,0,0,1,.4-1.6.39.39,0,0,0,.4-.4h1.2a1.4,1.4,0,0,0,.8-.4l.4-.8c.4-.4.8-.8,1.6-.4a.39.39,0,0,1,.4.4l.4.8c.4.4.4.4.8.4h1.2c.8,0,1.2.4,1.2.8s0,.4-.4.4l-.4,1.6c-.4.4-.4.8,0,.8l.4.8a1,1,0,0,1-.4,1.6c0,.4,0,.4-.4.4m-34-32A45.13,45.13,0,0,0,22,14.4c1.6,0,3.2.4,5.2.4,2.4,0,5.2-.4,7.6-.4,1.6,0,2.8-.4,4.4-.4,3.2,0,18.8.4,21.2,15.2a41.27,41.27,0,0,0,7.6-.4c2.8-.4,3.2-.4,3.2.8V43.2c0,.4,0,1.6-.8,1.6s-1.2-.8-1.6-2.4L68,39.6c-1.2-3.6-2.4-6-6.4-7.2v.4c0,12.4-7.6,18.8-16,20v2c0,1.6,0,3.2,2.4,3.2h7.6c5.6,0,6.4-3.2,7.2-6.4.4-1.6.8-2.4,1.6-2.4.4,0,1.2.4,1.2,1.6a107,107,0,0,0-.4,19.6c0,1.6.4,3.6-1.2,3.6-1.2,0-1.2-1.2-2-4.4-1.6-8.4-4.8-8.8-10-8.8H46.4c-.8,0-2,0-2,2.8v22c0,5.6.4,8.4,4.8,8.8l2,.4A45.26,45.26,0,0,0,95.2,48C94.4,24.4,74.4,5.2,50.4,4.8"/></svg>