<svg id="Слой_1" data-name="Слой 1" xmlns="http://www.w3.org/2000/svg" viewBox="0 0 100 100"><defs><style>.cls-1,.cls-3{fill:#424242;}.cls-1,.cls-4{fill-rule:evenodd;}.cls-2{isolation:isolate;}.cls-4{fill:#a6835b;}</style></defs><title>100-Logo-RB</title><path id="Combined-Shape" class="cls-1" d="M49.77,0C60.48,0,65.58,12.05,65.58,21.79c0,12.34-7,21.5-15.81,21.5S34,34.05,34,21.43C34,9.24,40.92,0,49.77,0Zm-.29.72c-6,0-12.94,5.63-12.94,19.7,0,13.27,5.89,22.08,13.59,22.08C57.53,42.5,63,34.63,63,22.8,63,9.45,56.81.72,49.48.72Zm-7.55,8.8,3,.22a69.15,69.15,0,0,0,8.77.14,14.52,14.52,0,0,1,4,.08,3,3,0,0,1,1.8,1.15,1.74,1.74,0,0,1,0,2,1.93,1.93,0,0,1-1.65.36c-.36-.07-.87-.36-.94-.72s.65-.36.79-.72-.43-.79-.79-.87A7.14,7.14,0,0,0,55.16,11c-.65,0-1.37-.07-2-.07-1.72-.08-3.52-.22-5.24-.22-1.3,0-2.59.07-3.89.14h-.28a1.9,1.9,0,0,0-1.23.37c-.71.43-.5,1.44-.5,2.16v5.63a2,2,0,0,0,.15,1.15c.28.51.86-.14,1.15-.29a13.17,13.17,0,0,1,2.08-1.3,11.44,11.44,0,0,1,4.82-1.29,15,15,0,0,1,4.81.5,9.18,9.18,0,0,1,1.94.79.54.54,0,0,1,.29.15.45.45,0,0,1-.07.29c-.07.14-.07.36-.14.5a8.13,8.13,0,0,1-.58,1.08c-.07-.07-.14-.21-.21-.28a4.56,4.56,0,0,0-2.45-1.52,11.2,11.2,0,0,0-6,0,19.55,19.55,0,0,0-5.6,2.53c-.22.14-.15.14-.15.36v.57h0v.58l.15,6.5v.79c0,.07.07.14.07.29s.07.07-.07.14l-.15.07c-.21.08-.28.15-.28.36v1.52c0,.36.21.36.5.36h5c.29-.07.22-.43.22-.65a15,15,0,0,0,6.47-.58,8.71,8.71,0,0,0,4.31-3,6.16,6.16,0,0,0,.86-2.16,4.56,4.56,0,0,0-.36-2.6,6.52,6.52,0,0,0-.43-.72c-.07-.07-.21-.29-.29-.36s0-.07.08-.14l.14-.15a7,7,0,0,0,.86-1.15c.15.07.22.14.22.21a5.92,5.92,0,0,1,1.29,1.95,6.84,6.84,0,0,1-1.36,7.29c-.36.36-.8.65-1.15,1a5.25,5.25,0,0,1-.65.5,11.84,11.84,0,0,1-6.11,1.59c-1.73.07-3.53,0-5.25-.07a34.86,34.86,0,0,1-4-.22,6.9,6.9,0,0,1-1.37-.29,3.21,3.21,0,0,1-1.08-.57c-.29-.36.07-.94.14-1.3a9.9,9.9,0,0,0,.22-2.09V18.61c0-.36.07-.64.07-1,.07-1,.15-2.09.15-3.17a13.37,13.37,0,0,0-.15-3,6.41,6.41,0,0,1-.36-1.59c0-.36.22-.5.58-.5A11.05,11.05,0,0,1,41.93,9.52ZM49.84,12a16.26,16.26,0,0,1,5.82,1c2,.79,4,2.23,4.24,4.61A6.62,6.62,0,0,1,59,21.43a6.94,6.94,0,0,1-2.3,2.24,14.09,14.09,0,0,1-6.11,2,16.66,16.66,0,0,1-3.31-.08,2.45,2.45,0,0,0-1,0c-.43.15-.36.58-.28.94a12.8,12.8,0,0,1,.14,2.31v1a2,2,0,0,0,.5,1.52,1.78,1.78,0,0,0,.58.36c.14.07.14.14.14.28v.73h-5.1c-.15,0-.07,0-.07-.08s0-.43,0-.65V31c0-.07.35-.14.43-.14a2.1,2.1,0,0,0,.57-.58,5.57,5.57,0,0,0,.51-2.38c.07-.94.07-1.87.14-2.81v-4c0-.07,0-.07.07-.15a2.72,2.72,0,0,1,.79-.36c.29-.14.5-.21.79-.36A17.86,17.86,0,0,0,45.67,23c0,.21.07.36.07.57s.07.29.07.44v.07h.07c.08,0,.22.07.29.07s.36.07.5.07c.72.07,1.51.15,2.23.15H49a15.43,15.43,0,0,0,1.79-.15A9.24,9.24,0,0,0,55,22.58a5.74,5.74,0,0,0,2.52-3.53,4,4,0,0,0-1.22-3.61,8.55,8.55,0,0,0-2.37-1.52,8,8,0,0,0-2.88-.64,17.7,17.7,0,0,0-4.82.14,2.65,2.65,0,0,0-.79.14c-.07.08,0,.29,0,.36,0,.58-.07,1.09-.07,1.66,0,.8-.07,1.66-.07,2.46,0,.07.07.36,0,.43a.07.07,0,0,0-.07.07c-.15.15-.36.15-.51.29a10.35,10.35,0,0,0-1.15.72l-.21-3.46a9.2,9.2,0,0,0-.58-2.81c-.07-.15-.14-.22-.21-.37s-.22-.21-.22-.36.22-.21.43-.21a5.59,5.59,0,0,0,1.87,0,20.58,20.58,0,0,1,3-.29A10.41,10.41,0,0,1,49.84,12Z"/><g class="cls-2"><path class="cls-3" d="M18.85,77.92v5h-.72V80.74H15.26V83h-.72v-5h.72v2.17h2.87V77.92Z"/><path class="cls-3" d="M21.3,82.68a2,2,0,0,1-.94-.93,3.07,3.07,0,0,1-.36-1.3,2.54,2.54,0,0,1,.36-1.3,3,3,0,0,1,.94-.94,2.77,2.77,0,0,1,2.73,0,2,2,0,0,1,.93.94,2.86,2.86,0,0,1,.36,1.3,2.67,2.67,0,0,1-.36,1.3,2.76,2.76,0,0,1-.93.93,2.77,2.77,0,0,1-2.73,0Zm2.37-.57a2.47,2.47,0,0,0,.72-.72,1.71,1.71,0,0,0,.29-1,1.67,1.67,0,0,0-.29-1,3.56,3.56,0,0,0-.72-.73,2.42,2.42,0,0,0-1-.29,1.66,1.66,0,0,0-1,.29,3.32,3.32,0,0,0-.72.73,1.6,1.6,0,0,0-.29,1,1.64,1.64,0,0,0,.29,1,3.51,3.51,0,0,0,.72.72,1.66,1.66,0,0,0,1,.29A1.71,1.71,0,0,0,23.67,82.11Z"/><path class="cls-3" d="M27.34,78.57H25.61v-.65h4.17v.65H28.05V83h-.71Z"/><path class="cls-3" d="M34.24,82.32V83H30.57v-5h3.52v.65h-2.8v1.52h2.52v.65H31.29V82.4h3Z"/><path class="cls-3" d="M35.39,77.92h.72v4.4h2.73V83H35.39Z"/><path class="cls-3" d="M40,82.83a5.25,5.25,0,0,1-.86-.43l.28-.58a6.52,6.52,0,0,0,.72.43,1.93,1.93,0,0,0,.94.15,1.63,1.63,0,0,0,.93-.22.66.66,0,0,0,.29-.58,1,1,0,0,0-.14-.43.62.62,0,0,0-.44-.22,6.51,6.51,0,0,1-.71-.21c-.36-.08-.72-.22-.94-.29a1.06,1.06,0,0,1-.57-.44,1.24,1.24,0,0,1-.22-.79,1.18,1.18,0,0,1,.22-.72,1.53,1.53,0,0,1,.64-.51,2.48,2.48,0,0,1,1.08-.21,3.59,3.59,0,0,1,.86.14,2.21,2.21,0,0,1,.72.36l-.21.58a2.65,2.65,0,0,0-.65-.29,2.52,2.52,0,0,0-.72-.07,1.56,1.56,0,0,0-.93.22.64.64,0,0,0-.29.57,1.08,1.08,0,0,0,.14.44,1.65,1.65,0,0,0,.43.28,3.92,3.92,0,0,0,.72.22,7.74,7.74,0,0,1,.94.29,1.13,1.13,0,0,1,.57.43,1.3,1.3,0,0,1,0,1.45,1.58,1.58,0,0,1-.64.5,2.47,2.47,0,0,1-1.08.22A7.2,7.2,0,0,1,40,82.83Z"/><path class="cls-3" d="M49.69,83l-.64-.64a2.29,2.29,0,0,1-1.66.64,3.71,3.71,0,0,1-.93-.14,2.6,2.6,0,0,1-.65-.43,1.05,1.05,0,0,1-.21-.65,1.12,1.12,0,0,1,.28-.8,3.88,3.88,0,0,1,.94-.72,2.15,2.15,0,0,1-.43-.57,1.41,1.41,0,0,1-.15-.58,1,1,0,0,1,.36-.8,1.45,1.45,0,0,1,1-.28,1.33,1.33,0,0,1,.93.28,1,1,0,0,1,.36.8.91.91,0,0,1-.21.65,2.76,2.76,0,0,1-.79.65l1.22,1.22a3.91,3.91,0,0,0,.29-.93l.57.14A3.08,3.08,0,0,1,49.55,82l.65.65ZM48.62,82l-1.44-1.44a4.14,4.14,0,0,0-.72.5.87.87,0,0,0-.22.58.68.68,0,0,0,.29.58,1.49,1.49,0,0,0,.79.22A1.34,1.34,0,0,0,48.62,82ZM47,78.57a.64.64,0,0,0-.21.43.59.59,0,0,0,.07.37,2.62,2.62,0,0,0,.43.5,4.14,4.14,0,0,0,.72-.5.66.66,0,0,0,.22-.44.54.54,0,0,0-.65-.58A.74.74,0,0,0,47,78.57Z"/><path class="cls-3" d="M56.24,83l-1.08-1.58H53.65V82.9h-.72V77.85h1.94a2,2,0,0,1,1.51.5,1.6,1.6,0,0,1,.57,1.3,1.68,1.68,0,0,1-.28,1,1.28,1.28,0,0,1-.79.58L57.1,82.9h-.86Zm-.36-2.45a1.24,1.24,0,0,0,.36-.87,1.2,1.2,0,0,0-.36-.86,1.49,1.49,0,0,0-1.08-.29H53.58v2.24H54.8A1.23,1.23,0,0,0,55.88,80.52Z"/><path class="cls-3" d="M61.77,82.32V83H58.11v-5h3.52v.65H58.82v1.52h2.52v.65H58.82V82.4h3Z"/><path class="cls-3" d="M63.28,82.83a5.25,5.25,0,0,1-.86-.43l.29-.58a5.7,5.7,0,0,0,.72.43,1.87,1.87,0,0,0,.93.15,1.63,1.63,0,0,0,.93-.22.66.66,0,0,0,.29-.58,1,1,0,0,0-.14-.43C65.29,81,65.22,81,65,81a4.7,4.7,0,0,0-.72-.21c-.36-.08-.72-.22-.94-.29a1.1,1.1,0,0,1-.57-.44,1.24,1.24,0,0,1-.22-.79,1.18,1.18,0,0,1,.22-.72,1.56,1.56,0,0,1,.65-.51,2.4,2.4,0,0,1,1.07-.21,3.76,3.76,0,0,1,.87.14,2.43,2.43,0,0,1,.72.36l-.22.58a2.65,2.65,0,0,0-.65-.29,2.48,2.48,0,0,0-.72-.07,1.56,1.56,0,0,0-.93.22.64.64,0,0,0-.29.57,1,1,0,0,0,.15.44,1.38,1.38,0,0,0,.43.28,3.48,3.48,0,0,0,.72.22,8.11,8.11,0,0,1,.93.29,1.16,1.16,0,0,1,.58.43,1.36,1.36,0,0,1,0,1.45,1.61,1.61,0,0,1-.65.5,2.47,2.47,0,0,1-1.08.22A7.2,7.2,0,0,1,63.28,82.83Z"/><path class="cls-3" d="M68.31,82.68a1.91,1.91,0,0,1-.93-.93,2.93,2.93,0,0,1-.36-1.3,2.45,2.45,0,0,1,.36-1.3,2.88,2.88,0,0,1,.93-.94,2.94,2.94,0,0,1,1.37-.36,3,3,0,0,1,1.37.36,2,2,0,0,1,.93.94,2.64,2.64,0,0,1,.36,1.3,2.67,2.67,0,0,1-.36,1.3A2.62,2.62,0,0,1,69.68,83,2.73,2.73,0,0,1,68.31,82.68Zm2.38-.57a2.44,2.44,0,0,0,.71-.72,2.28,2.28,0,0,0,.29-1,1.6,1.6,0,0,0-.29-1,2.34,2.34,0,0,0-.71-.73,2.42,2.42,0,0,0-1-.29,1.71,1.71,0,0,0-1,.29,2.51,2.51,0,0,0-.72.73,2.33,2.33,0,0,0-.28,1,1.7,1.7,0,0,0,.28,1,2.59,2.59,0,0,0,.72.72,2.42,2.42,0,0,0,1,.29A1.86,1.86,0,0,0,70.69,82.11Z"/><path class="cls-3" d="M76.8,83l-1.08-1.58H74.21V82.9h-.72V77.85h1.94a2,2,0,0,1,1.51.5,1.6,1.6,0,0,1,.58,1.3,1.69,1.69,0,0,1-.29,1,1.28,1.28,0,0,1-.79.58l1.22,1.66H76.8Zm-.36-2.45a1.24,1.24,0,0,0,.36-.87,1.2,1.2,0,0,0-.36-.86,1.49,1.49,0,0,0-1.08-.29H74.14v2.24h1.22A1.35,1.35,0,0,0,76.44,80.52Z"/><path class="cls-3" d="M79.6,78.57H77.88v-.65H82v.65H80.32V83H79.6v-4.4Z"/><path class="cls-3" d="M83.12,82.83a5.69,5.69,0,0,1-.86-.43l.29-.58a5.7,5.7,0,0,0,.72.43,1.87,1.87,0,0,0,.93.15,1.69,1.69,0,0,0,.94-.22.67.67,0,0,0,.28-.58,1,1,0,0,0-.14-.43.6.6,0,0,0-.43-.22,4.7,4.7,0,0,0-.72-.21,8.9,8.9,0,0,1-.93-.29,1.08,1.08,0,0,1-.58-.44,1.3,1.3,0,0,1-.22-.79,1.25,1.25,0,0,1,.22-.72,1.56,1.56,0,0,1,.65-.51,2.42,2.42,0,0,1,1.08-.21,3.76,3.76,0,0,1,.86.14,2.32,2.32,0,0,1,.72.36l-.22.58a2.5,2.5,0,0,0-.65-.29,2.45,2.45,0,0,0-.71-.07,1.59,1.59,0,0,0-.94.22.64.64,0,0,0-.29.57,1.1,1.1,0,0,0,.15.44,1.38,1.38,0,0,0,.43.28,3.48,3.48,0,0,0,.72.22,7,7,0,0,1,.93.29,1.16,1.16,0,0,1,.58.43,1.36,1.36,0,0,1,0,1.45,1.61,1.61,0,0,1-.65.5,2.47,2.47,0,0,1-1.08.22A7.2,7.2,0,0,1,83.12,82.83Z"/></g><g class="cls-2"><path class="cls-3" d="M9.08,68a2.49,2.49,0,0,1-1-.73c-.5-.65-.94-1.22-1.29-1.66a15.69,15.69,0,0,1-1.3-2,1.63,1.63,0,0,0-.72-.65,4.1,4.1,0,0,0-1.36-.36h0c-.15,0-.22.15-.22.36v3a1.33,1.33,0,0,0,1.15,1.51.6.6,0,0,1,.43.14c.07.08.15.15.15.22S4.76,68,4.4,68a4.44,4.44,0,0,1-1-.07c-.22,0-.44-.08-.72-.08H1.6A6.28,6.28,0,0,1,.45,68c-.36,0-.5-.08-.5-.22s.07-.15.14-.22.22-.07.43-.14A1.48,1.48,0,0,0,1.46,67,1.26,1.26,0,0,0,1.74,66V58.73a3.69,3.69,0,0,0-.07-1c-.07-.22-.14-.36-.29-.43a2.82,2.82,0,0,0-.72-.22.64.64,0,0,1-.43-.14c-.07-.08-.14-.15-.14-.22s.14-.22.5-.22H3c.64,0,1-.07,1.22-.07a4.59,4.59,0,0,1,2.87.72,2.49,2.49,0,0,1,1,2.1,3.11,3.11,0,0,1-2,2.88l-.07.07a.23.23,0,0,0,.07.15c.72,1.08,1.29,2,1.72,2.52a13.07,13.07,0,0,0,1.73,1.88,1.59,1.59,0,0,0,.86.43,5.28,5.28,0,0,0,1.15.07c.15,0,.29.08.29.22s-.14.36-.43.43a3.84,3.84,0,0,1-.94.15A2.39,2.39,0,0,1,9.08,68ZM5.34,61.76a2.33,2.33,0,0,0,.93-.94,2.43,2.43,0,0,0,.29-1.3,3.24,3.24,0,0,0-.5-1.94c-.36-.51-1-.58-2-.58a.79.79,0,0,0-.72.36,2.69,2.69,0,0,0-.21,1.3v3c0,.28.07.43.21.5a1.87,1.87,0,0,0,.72.07A4.41,4.41,0,0,0,5.34,61.76Z"/><path class="cls-3" d="M14.68,66.88a4.4,4.4,0,0,1-1.22-3.24V58.3a1.6,1.6,0,0,0-.21-.87.76.76,0,0,0-.58-.36c-.36-.07-.57-.22-.57-.36s.14-.22.5-.22h3.09c.36,0,.5.08.5.22a.15.15,0,0,1-.14.14c-.07.08-.22.08-.43.15a2.35,2.35,0,0,0-.51.43,1.52,1.52,0,0,0-.21.8v4.83a4.25,4.25,0,0,0,1,3,3.56,3.56,0,0,0,2.66,1,3,3,0,0,0,2.58-1.23A5.47,5.47,0,0,0,22,62.55c0-.72,0-1.94-.08-3.75a2.91,2.91,0,0,0-.21-1.22c-.15-.36-.29-.58-.5-.65s-.58-.22-.58-.36.14-.22.5-.22h2.66c.36,0,.51.07.51.22s-.22.28-.58.36c-.57.07-.86.5-.86,1.3s-.07,1.44-.07,2.16a7.06,7.06,0,0,1-.08,1.51v1.52a4.66,4.66,0,0,1-2.3,4,4.7,4.7,0,0,1-2.3.58A4.62,4.62,0,0,1,14.68,66.88Z"/><path class="cls-3" d="M25.54,67.24c-.15-.14-.22-.21-.22-.36a13.17,13.17,0,0,1-.14-1.44v-.36a.29.29,0,0,1,.07-.22.27.27,0,0,1,.22-.07c.14,0,.21.07.28.22a3.4,3.4,0,0,0,1,1.87,2,2,0,0,0,1.51.58,2.31,2.31,0,0,0,1.51-.58,1.82,1.82,0,0,0,.58-1.51,2.44,2.44,0,0,0-.22-1.08,2,2,0,0,0-.58-.73c-.28-.21-.64-.43-1.15-.79l-.36-.22c-.57-.36-1-.65-1.29-.86a11.45,11.45,0,0,1-.86-.94,2.45,2.45,0,0,1-.36-1.3,2.79,2.79,0,0,1,.93-2.23,3.81,3.81,0,0,1,2.66-.87,5.2,5.2,0,0,1,1.8.36c.07,0,.14.07.22.14a.4.4,0,0,1,.14.29c.14.44.22.72.29,1a2.55,2.55,0,0,1,.07.72c0,.15-.07.22-.29.22a.46.46,0,0,1-.29-.07c-.07-.07-.14-.07-.21-.15A6.89,6.89,0,0,0,30,57.43,1.81,1.81,0,0,0,28.77,57a1.94,1.94,0,0,0-1.43.5A1.87,1.87,0,0,0,26.76,59a1.22,1.22,0,0,0,.29.86,7.4,7.4,0,0,0,.79.8c.29.21.79.5,1.29.86s1,.65,1.3.87a3,3,0,0,1,.86,1,2.73,2.73,0,0,1,.36,1.37,3.18,3.18,0,0,1-1,2.45,3.82,3.82,0,0,1-2.73.94A4,4,0,0,1,25.54,67.24Z"/><path class="cls-3" d="M33.59,67.24c-.14-.14-.22-.21-.22-.36a13.17,13.17,0,0,1-.14-1.44v-.36a.29.29,0,0,1,.07-.22.28.28,0,0,1,.22-.07c.14,0,.21.07.29.22a3.33,3.33,0,0,0,1,1.87,2,2,0,0,0,1.51.58,2.31,2.31,0,0,0,1.51-.58,1.82,1.82,0,0,0,.58-1.51,2.31,2.31,0,0,0-.22-1.08,2,2,0,0,0-.57-.73c-.29-.21-.65-.43-1.15-.79l-.36-.22c-.58-.36-1-.65-1.3-.86s-.57-.58-.86-.94a2.45,2.45,0,0,1-.36-1.3,2.77,2.77,0,0,1,.94-2.23,3.76,3.76,0,0,1,2.65-.87,5.2,5.2,0,0,1,1.8.36c.07,0,.15.07.22.14a.4.4,0,0,1,.14.29,10.23,10.23,0,0,1,.29,1,2.55,2.55,0,0,1,.07.72c0,.15-.07.22-.29.22a.42.42,0,0,1-.28-.07c-.08-.07-.15-.07-.22-.15a6.48,6.48,0,0,0-.86-1.44A1.8,1.8,0,0,0,36.83,57a2,2,0,0,0-1.44.5A1.87,1.87,0,0,0,34.81,59a1.22,1.22,0,0,0,.29.86,8.46,8.46,0,0,0,.79.8c.29.21.79.5,1.29.86s1,.65,1.3.87a2.9,2.9,0,0,1,.86,1,2.73,2.73,0,0,1,.36,1.37,3.18,3.18,0,0,1-1,2.45,3.8,3.8,0,0,1-2.73.94A3.86,3.86,0,0,1,33.59,67.24Z"/><path class="cls-3" d="M44.16,67.32a5.78,5.78,0,0,1-2.09-2,5.92,5.92,0,0,1-.79-3,6.06,6.06,0,0,1,.72-3,5.49,5.49,0,0,1,2-2.24,5.71,5.71,0,0,1,3.17-.86A5.37,5.37,0,0,1,50,57a5.63,5.63,0,0,1,2.09,2,5.87,5.87,0,0,1,.79,3,6.06,6.06,0,0,1-.72,3,5.53,5.53,0,0,1-2,2.23A5.64,5.64,0,0,1,47,68,5.84,5.84,0,0,1,44.16,67.32Zm6.11-1.16a5,5,0,0,0,1-3.32,7.77,7.77,0,0,0-.51-3,4.55,4.55,0,0,0-1.51-2.09A3.78,3.78,0,0,0,46.89,57a3.71,3.71,0,0,0-3,1.15,5.06,5.06,0,0,0-1,3.25,7.77,7.77,0,0,0,.5,3,4.92,4.92,0,0,0,1.44,2.09,3.72,3.72,0,0,0,2.37.79A3.35,3.35,0,0,0,50.27,66.16Z"/><path class="cls-3" d="M54.22,64.79a2.06,2.06,0,0,1,.07-.65c.08-.22.15-.29.22-.29,1.44-.21,2.59-.36,3.31-.43.07,0,.14,0,.14.07a1.64,1.64,0,0,1-.07.65c-.07.15-.14.29-.29.29l-.43.07c-1.15.22-2.16.29-2.8.36C54.22,64.86,54.22,64.86,54.22,64.79Z"/><path class="cls-3" d="M58.75,67.75c0-.07.07-.15.15-.22s.21-.07.43-.14a1.86,1.86,0,0,0,1-.43,1.2,1.2,0,0,0,.36-.87V58.3a1.25,1.25,0,0,0-.28-.94c-.15-.22-.51-.29-.87-.36a.58.58,0,0,1-.43-.15c-.07-.07-.14-.14-.14-.21s.14-.22.5-.22H62c.57,0,1-.07,1.15-.07a6.41,6.41,0,0,1,3,.58,2.16,2.16,0,0,1,.93,1.94,2.31,2.31,0,0,1-.21,1,2.42,2.42,0,0,1-.44.65,2.22,2.22,0,0,1-.5.44,3.19,3.19,0,0,1-.65.29.07.07,0,0,0-.07.07c0,.07,0,.07.07.07a10.35,10.35,0,0,1,1.23.5,2.06,2.06,0,0,1,.86.87,3,3,0,0,1,.36,1.52,2.83,2.83,0,0,1-.29,1.44,3.93,3.93,0,0,1-.65.86,3.88,3.88,0,0,1-.86.58,6.9,6.9,0,0,1-2.95.58h-.5c-.29,0-.72-.07-1.15-.07H60.26c-.29,0-.72.07-1.22.07C58.9,67.89,58.75,67.82,58.75,67.75Zm6.11-6.86c.22-.07.36-.28.51-.57a2.48,2.48,0,0,0,.21-1.08A2.38,2.38,0,0,0,65,57.65,2.43,2.43,0,0,0,63.07,57a1.59,1.59,0,0,0-.94.22c-.21.14-.14.21-.14.5v3c0,.43.28.65.79.65A3.78,3.78,0,0,0,64.86,60.89Zm-.07,5.92a3.5,3.5,0,0,0,1.08-.94,2.29,2.29,0,0,0,.43-1.3,2.31,2.31,0,0,0-1.22-2.23,3.84,3.84,0,0,0-1.94-.44,1,1,0,0,0-.72.22.62.62,0,0,0-.22.43V66a1.18,1.18,0,0,0,.36.94,1.93,1.93,0,0,0,1,.28A3.45,3.45,0,0,0,64.79,66.81Z"/><path class="cls-3" d="M68.67,67.82c-.07-.07-.14-.07-.14-.14s.21-.29.57-.44a1.63,1.63,0,0,0,.87-.43,4.57,4.57,0,0,0,.64-.86c.58-1.45,1.15-2.67,1.59-3.83s1-2.6,1.65-4.33a2.9,2.9,0,0,0,.21-1,.8.8,0,0,1,.22-.07c.14-.07.29-.07.36-.22a1.08,1.08,0,0,0,.22-.29c.07-.14.07-.21.14-.28h.14c0,.07.08.14.08.21s.07.15.07.22c.86,2.67,1.87,5.77,3.09,9.23a2.58,2.58,0,0,0,.72,1.3,2.14,2.14,0,0,0,1,.44.65.65,0,0,1,.44.14c.07.07.14.14.14.22s-.14.14-.5.14h-.94a12.75,12.75,0,0,0-1.44-.07H76c-.36,0-.51-.07-.51-.22s.07-.14.15-.21a1.91,1.91,0,0,1,.43-.15c.72-.14,1.08-.36,1.08-.79a15.87,15.87,0,0,0-.65-2.82.15.15,0,0,0-.14-.14h-3.6c-.14,0-.21.07-.29.29a14,14,0,0,0-.43,1.44c-.14.58-.29.94-.29,1.08a.89.89,0,0,0,.29.65,2.12,2.12,0,0,0,.72.36,2.45,2.45,0,0,0,.43.15c.07.07.15.14.15.21s-.15.22-.51.22H70.11c-.29,0-.65.07-.86.07C68.89,67.89,68.74,67.89,68.67,67.82Zm7-4.91h.14c.07,0,.07,0,.07-.07V62.7l-1.36-4.26a.79.79,0,0,0-.15-.29.91.91,0,0,0-.14.29L72.7,62.7v.14c0,.07,0,.07.07.07h3Z"/><path class="cls-3" d="M81.11,67.82c-.07-.07-.14-.07-.14-.14s.14-.22.36-.29A2.11,2.11,0,0,0,82.4,67a1.09,1.09,0,0,0,.36-.87V58.15a1.66,1.66,0,0,0-.07-.65.53.53,0,0,0-.29-.28,1.31,1.31,0,0,0-.64-.15c-.36-.07-.58-.22-.58-.36s.15-.22.51-.22h4.09c.36,0,.51.08.51.22s-.22.29-.58.36a2.75,2.75,0,0,0-1.15.36.69.69,0,0,0-.36.65v8.15a.91.91,0,0,0,.29.8,1.88,1.88,0,0,0,1.08.21h2.15a2.59,2.59,0,0,0,.79-.14,3.9,3.9,0,0,0,.58-.29,3.28,3.28,0,0,0,.5-.5,2,2,0,0,0,.36-.73c.07-.14.07-.21.15-.36s.14-.14.21-.14.15,0,.15.07.07.15.07.22v.07a6.89,6.89,0,0,0-.29,1.3c0,.29-.14.58-.14.94,0,.21-.08.29-.22.29-1.22,0-2.37,0-3.38-.08H82.69c-.5,0-.86.08-1,.08C81.25,67.89,81.18,67.89,81.11,67.82Z"/><path class="cls-3" d="M91.68,67.75c0-.07.07-.15.14-.22s.22-.07.43-.14a1.93,1.93,0,0,0,1-.43,1.25,1.25,0,0,0,.36-.94V59.31a8.64,8.64,0,0,0-.07-1.59c-.07-.29-.15-.43-.29-.43s-.36-.07-.5-.07H91.25a3.76,3.76,0,0,0-.87.14,1.34,1.34,0,0,0-.57.5,1.39,1.39,0,0,1-.29.44.66.66,0,0,1-.36.21c-.07,0-.14-.07-.14-.21a.65.65,0,0,1,.07-.36,4.58,4.58,0,0,0,.36-.87c.07-.29.14-.58.22-.94s.14-.43.28-.43l.22.22c.07.14.14.21.21.36a.74.74,0,0,0,.44.29,2.45,2.45,0,0,0,.71.07h6a3.38,3.38,0,0,0,1.66-.29c.07,0,.14-.07.28-.22a1.33,1.33,0,0,1,.36-.14.24.24,0,0,1,.08.14v.29a1.77,1.77,0,0,1-.08.51l-.07.5a1.13,1.13,0,0,0-.07.51v.21a.65.65,0,0,1-.07.36c-.07.15-.15.22-.22.22s-.14-.07-.21-.14a2.61,2.61,0,0,1-.15-.58.89.89,0,0,0-.43-.58,2.35,2.35,0,0,0-1.15-.22H95.78c-.29,0-.51,0-.58.08a.65.65,0,0,0-.21.5c0,.29-.08.72-.08,1.37V66a1.25,1.25,0,0,0,.36.93,1.93,1.93,0,0,0,1,.44.62.62,0,0,1,.43.14c.07.07.14.14.14.22s-.14.21-.5.21a4.92,4.92,0,0,1-1.08-.07h-2c-.36,0-.72.07-1.15.07S91.68,67.82,91.68,67.75Z"/></g><g id="Group-Copy"><polygon id="Fill-1" class="cls-4" points="59.47 92.28 58.54 95.24 55.45 95.24 57.89 97.04 56.95 100 59.47 98.2 61.99 100 61.05 97.04 63.5 95.24 60.41 95.24 59.47 92.28"/><polygon class="cls-4" points="40.78 92.28 39.84 95.24 36.75 95.24 39.2 97.04 38.26 100 40.78 98.2 43.3 100 42.36 97.04 44.8 95.24 41.71 95.24 40.78 92.28"/><polygon class="cls-4" points="68.82 92.28 67.88 95.24 64.79 95.24 67.23 97.04 66.3 100 68.82 98.2 71.33 100 70.4 97.04 72.84 95.24 69.75 95.24 68.82 92.28"/><polygon class="cls-4" points="50.13 92.28 49.19 95.24 46.1 95.24 48.54 97.04 47.61 100 50.13 98.2 52.64 100 51.71 97.04 54.15 95.24 51.06 95.24 50.13 92.28"/><polygon class="cls-4" points="31.43 92.28 30.5 95.24 27.41 95.24 29.85 97.04 28.92 100 31.43 98.2 33.95 100 33.02 97.04 35.46 95.24 32.37 95.24 31.43 92.28"/></g></svg>