<svg id="Слой_1" data-name="Слой 1" xmlns="http://www.w3.org/2000/svg" viewBox="0 0 100.4 100"><defs><style>.cls-1{fill:#4d4d4d;}.cls-2{fill:#fff;}</style></defs><title>100-PF-Logo-TXT</title><path class="cls-1" d="M66.7,41.47A16.5,16.5,0,1,1,50.13,25h0A16.47,16.47,0,0,1,66.7,41.47"/><path class="cls-2" d="M43.82,39.89a1.11,1.11,0,0,0,.4,1,7.49,7.49,0,0,0,1.84.53v-2.9c0-3.41-.79-2.89-2.11-3h-.13v4.34Z"/><path class="cls-2" d="M40.14,51.59c1.19-.26,1.19-1.18,1.19-2.89v-15c0-2.1-.14-2.89-1.58-3a15,15,0,0,0-.4,21c.13-.13.53,0,.79-.13"/><path class="cls-2" d="M46.19,30.69c-.79,0-1.84,0-2.24.79a5.72,5.72,0,0,0-.13,2.1v.92h.27c.92,0,1.84.13,2.76.13h4.34c-.53-2.37-2.24-3.81-5-3.94"/><path class="cls-2" d="M48.43,41.07c1.44-.52,2.76-2.23,2.76-5.12v-.4c-2.76,0-2.76.13-2.76,1.32Z"/><path class="cls-2" d="M40.27,52.77a14.43,14.43,0,0,0,5.53,3.16,6.25,6.25,0,0,0,.26-2.24v-.78c-1.05,0-2.11-.14-3.16-.14a8.92,8.92,0,0,0-2.63,0"/><path class="cls-2" d="M43.82,42.78V48.7c0,2.76.66,2.89,2.24,2.89v-9.2c-.4-.13-.79-.13-1.18-.27a1.93,1.93,0,0,0-.79-.26c-.27.13-.27.53-.27.92"/><path class="cls-2" d="M61.44,37.13h-.39a.5.5,0,0,0-.27.13l-.13.26c-.13.13-.26.27-.52.13a.13.13,0,0,1-.14-.13l-.13-.26c-.13-.13-.13-.13-.26-.13h-.39a.35.35,0,0,1-.4-.4c0-.13,0-.13.13-.13l.13-.26a.23.23,0,0,0,0-.39l-.13-.27a.32.32,0,0,1,.13-.52.14.14,0,0,0,.14-.14h.39a.45.45,0,0,0,.26-.13l.13-.26c.14-.13.27-.26.53-.13a.13.13,0,0,1,.13.13l.13.26c.14.13.14.13.27.13h.39c.26,0,.4.14.4.27s0,.13-.14.13l-.13.53c-.13.13-.13.26,0,.26l.13.26a.32.32,0,0,1-.13.53c0,.13,0,.13-.13.13M50.27,26.61a14.81,14.81,0,0,0-9.34,3.16c.53,0,1,.13,1.71.13s1.71-.13,2.5-.13c.52,0,.92-.14,1.44-.14,1.06,0,6.18.14,7,5a13.77,13.77,0,0,0,2.5-.13c.92-.13,1.05-.13,1.05.26v4.47c0,.13,0,.53-.26.53s-.39-.26-.53-.79l-.26-.92A3,3,0,0,0,54,35.68v.13c0,4.08-2.5,6.18-5.26,6.58V43c0,.53,0,1.06.79,1.06H52c1.85,0,2.11-1.06,2.37-2.11.13-.52.26-.79.53-.79s.39.14.39.53a35.54,35.54,0,0,0-.13,6.44c0,.53.13,1.19-.39,1.19s-.4-.4-.66-1.45C53.55,45.15,52.5,45,50.79,45H49c-.26,0-.66,0-.66.92v7.23c0,1.84.14,2.76,1.58,2.89l.66.13a14.79,14.79,0,0,0-.26-29.58"/><path class="cls-1" d="M.08,73a.11.11,0,0,1-.08-.1c0-.11.09-.18.27-.23a1.22,1.22,0,0,0,.59-.23A.67.67,0,0,0,1,72V67.22a1.11,1.11,0,0,0-.14-.62.83.83,0,0,0-.52-.27c-.19,0-.28-.11-.28-.22S.17,66,.35,66l.72,0h.61a5.82,5.82,0,0,0,.62,0c.31,0,.56,0,.77,0a3.47,3.47,0,0,1,2.06.54,1.75,1.75,0,0,1,.77,1.49,2.78,2.78,0,0,1-.29,1.26,2.21,2.21,0,0,1-.86.91,2.78,2.78,0,0,1-1.41.33.93.93,0,0,1-.4-.07.23.23,0,0,1-.15-.19.13.13,0,0,1,.07-.11A.21.21,0,0,1,3,70a.83.83,0,0,1,.2,0h.26a.82.82,0,0,0,.77-.51,3,3,0,0,0,.27-1.39,2.13,2.13,0,0,0-.37-1.38,1.29,1.29,0,0,0-1.05-.45c-.42,0-.64.17-.64.52v5.07a.7.7,0,0,0,.18.54,1.09,1.09,0,0,0,.61.26.54.54,0,0,1,.21.08.18.18,0,0,1,.06.14c0,.09-.07.14-.22.14s-.55,0-.83,0-.53,0-.66,0-.48,0-.72,0l-.37,0H.25A.31.31,0,0,1,.08,73Z"/><path class="cls-1" d="M12,73.05a2.52,2.52,0,0,1-.76-.64c-.29-.38-.54-.73-.74-1s-.44-.7-.7-1.18a.93.93,0,0,0-.35-.36,1.43,1.43,0,0,0-.53-.15h0c-.07,0-.11.08-.11.22v2a.77.77,0,0,0,.17.53,1.09,1.09,0,0,0,.62.26.55.55,0,0,1,.2.08.19.19,0,0,1,.07.14c0,.09-.08.14-.23.14s-.55,0-.82,0-.54,0-.66,0-.49,0-.73,0l-.37,0H6.62a.33.33,0,0,1-.17,0,.11.11,0,0,1-.08-.1c0-.11.09-.18.27-.23a1.22,1.22,0,0,0,.59-.23A.67.67,0,0,0,7.4,72V67.2a1.93,1.93,0,0,0-.05-.49.37.37,0,0,0-.18-.24,1.34,1.34,0,0,0-.43-.14.4.4,0,0,1-.21-.08.17.17,0,0,1-.07-.14c0-.1.09-.15.26-.15a7.39,7.39,0,0,1,.74,0L8,66l.31,0,.24,0a7,7,0,0,1,.87,0,3.48,3.48,0,0,1,1.91.44A1.47,1.47,0,0,1,12,67.68a1.52,1.52,0,0,1-.39,1.08,2.53,2.53,0,0,1-1,.64.05.05,0,0,0,0,.06.1.1,0,0,0,0,.07c.39.59.73,1.09,1,1.48a7.8,7.8,0,0,0,1,1.09,1.45,1.45,0,0,0,.62.35,3.46,3.46,0,0,0,.8.08.14.14,0,0,1,.16.16.46.46,0,0,1-.32.44,2.19,2.19,0,0,1-.83.13A2.56,2.56,0,0,1,12,73.05ZM10.26,69a1.59,1.59,0,0,0,.35-1.06,1.86,1.86,0,0,0-.3-1.15,1.18,1.18,0,0,0-1-.4.39.39,0,0,0-.38.21,2,2,0,0,0-.11.8c0,.22,0,.76,0,1.62,0,.15,0,.26.11.31a.56.56,0,0,0,.35.09A1.24,1.24,0,0,0,10.26,69Z"/><path class="cls-1" d="M14.56,73.05a.13.13,0,0,1-.07-.11c0-.09.09-.16.28-.21a1.4,1.4,0,0,0,.56-.25.63.63,0,0,0,.16-.49v-4.9a.81.81,0,0,0-.14-.52,1.13,1.13,0,0,0-.55-.24c-.19,0-.28-.11-.28-.22a.11.11,0,0,1,.07-.11.36.36,0,0,1,.19,0l.89,0,.83,0,2.05,0a4.73,4.73,0,0,0,.58,0l.29,0c.15,0,.23,0,.25.16l.07.49a4.86,4.86,0,0,1,.1.82.2.2,0,0,1,0,.14.14.14,0,0,1-.11.06c-.07,0-.13,0-.17-.16L19.35,67a.76.76,0,0,0-.17-.29,1,1,0,0,0-.77-.32h-1a.56.56,0,0,0-.36.12.35.35,0,0,0-.16.31V69a.22.22,0,0,0,.25.25h1a.54.54,0,0,0,.4-.14,1.46,1.46,0,0,0,.23-.47c0-.14.11-.21.2-.21a.12.12,0,0,1,.1.06.23.23,0,0,1,.05.15,8.19,8.19,0,0,0-.05.83c0,.37,0,.67,0,.88v.06c0,.13,0,.19-.1.19a.22.22,0,0,1-.15-.08.5.5,0,0,1-.1-.22,1.24,1.24,0,0,0-.21-.46.39.39,0,0,0-.32-.15h-1a.35.35,0,0,0-.23.06.24.24,0,0,0-.07.2V72a.67.67,0,0,0,.14.48.65.65,0,0,0,.47.14h.89a1.52,1.52,0,0,0,.88-.21,2.69,2.69,0,0,0,.62-.85.22.22,0,0,1,.19-.14c.07,0,.11.07.11.19a5.24,5.24,0,0,1-.34,1.35.21.21,0,0,1-.21.15l-1.3,0c-.93,0-1.65,0-2.18,0-.13,0-.36,0-.68,0s-.48,0-.73,0A.36.36,0,0,1,14.56,73.05Z"/><path class="cls-1" d="M20.61,72.94a.11.11,0,0,1,.07-.11.74.74,0,0,1,.24-.08.94.94,0,0,0,.45-.31,1,1,0,0,0,.22-.55c.19-1.32.34-2.82.44-4.49V67a.9.9,0,0,0-.06-.27.42.42,0,0,0-.17-.18,2.09,2.09,0,0,0-.68-.27c-.17,0-.26-.11-.26-.23s.1-.15.31-.15L22,66c.52,0,.9.05,1.13.05a.19.19,0,0,1,.14,0,.31.31,0,0,1,.1.13,1.84,1.84,0,0,1,.11.37l.16.44,1.62,4c0,.05.06.08.1.08s.05,0,.06-.06l1.74-3.87c.09-.42.16-.73.22-.93s.07-.14.14-.14h.44l.85-.07.72,0c.17,0,.25,0,.25.14a.15.15,0,0,1-.06.13.9.9,0,0,1-.2.1c-.18.06-.32.12-.41.16a.76.76,0,0,0-.35.26.66.66,0,0,0-.09.42c0,.77.05,1.46.08,2.09s.07,1.25.11,1.86l.07.9a.56.56,0,0,0,.21.46,1.16,1.16,0,0,0,.58.26.68.68,0,0,1,.22.08.19.19,0,0,1,.07.14.11.11,0,0,1-.08.1.34.34,0,0,1-.18,0l-.8,0c-.35,0-.59,0-.73,0s-.34,0-.65,0-.49,0-.75,0a.4.4,0,0,1-.2,0,.1.1,0,0,1-.07-.1c0-.12.09-.19.29-.23a.87.87,0,0,0,.51-.21.76.76,0,0,0,.13-.51c0-1.18-.08-2.49-.13-3.93,0,0,0-.07,0-.07s-.05,0-.08.08l-2.21,5a.15.15,0,0,1-.13.1.16.16,0,0,1-.09,0,.12.12,0,0,1-.05-.07c-.24-.6-.66-1.6-1.27-3-.5-1.17-.79-1.83-.85-2A.09.09,0,0,0,22.5,68s-.07,0-.08.12a35.94,35.94,0,0,0-.17,3.79.71.71,0,0,0,.2.51,1,1,0,0,0,.57.28,1,1,0,0,1,.24.08.17.17,0,0,1,.08.14.11.11,0,0,1-.08.1.45.45,0,0,1-.2,0l-.63,0A3.78,3.78,0,0,0,22,73l-.68,0-.42,0C20.7,73.08,20.61,73,20.61,72.94Z"/><path class="cls-1" d="M30.52,73a.1.1,0,0,1-.07-.1c0-.11.08-.18.27-.23a1.27,1.27,0,0,0,.6-.23.62.62,0,0,0,.17-.49V67.08a.71.71,0,0,0-.15-.51,1.18,1.18,0,0,0-.57-.24c-.18,0-.27-.1-.27-.23a.1.1,0,0,1,.07-.1.37.37,0,0,1,.18,0l.77,0,.69,0,.67,0,.78,0a.29.29,0,0,1,.17,0,.12.12,0,0,1,.07.11.17.17,0,0,1-.07.14.55.55,0,0,1-.2.08,1.31,1.31,0,0,0-.59.26.7.7,0,0,0-.15.5V72a.65.65,0,0,0,.17.48,1.42,1.42,0,0,0,.6.25.71.71,0,0,1,.21.08.16.16,0,0,1,.07.14c0,.09-.08.14-.24.14l-.8,0c-.32,0-.55,0-.69,0s-.41,0-.74,0-.5,0-.78,0A.33.33,0,0,1,30.52,73Z"/><path class="cls-1" d="M34.46,73.05a.14.14,0,0,1-.08-.11c0-.09.1-.16.28-.21a1.39,1.39,0,0,0,.57-.25.63.63,0,0,0,.16-.49v-4.9a.75.75,0,0,0-.15-.52,1.09,1.09,0,0,0-.54-.24c-.19,0-.28-.11-.28-.22a.11.11,0,0,1,.07-.11.32.32,0,0,1,.18,0l.89,0,.84,0,2.05,0A4.85,4.85,0,0,0,39,66l.29,0c.15,0,.23,0,.24.16l.08.49a4.86,4.86,0,0,1,.1.82.26.26,0,0,1,0,.14.14.14,0,0,1-.11.06c-.08,0-.13,0-.18-.16s-.11-.29-.16-.42a.92.92,0,0,0-.17-.29,1,1,0,0,0-.77-.32h-1a.6.6,0,0,0-.36.12.37.37,0,0,0-.16.31V69a.22.22,0,0,0,.25.25h1a.5.5,0,0,0,.39-.14,1.44,1.44,0,0,0,.24-.47c0-.14.11-.21.2-.21a.12.12,0,0,1,.1.06.22.22,0,0,1,0,.15,8.07,8.07,0,0,0,0,.83c0,.37,0,.67,0,.88v.06c0,.13,0,.19-.11.19a.19.19,0,0,1-.14-.08.65.65,0,0,1-.11-.22,1.1,1.1,0,0,0-.2-.46.4.4,0,0,0-.33-.15h-1a.38.38,0,0,0-.24.06.28.28,0,0,0-.07.2V72a.63.63,0,0,0,.15.48.65.65,0,0,0,.47.14h.89a1.47,1.47,0,0,0,.87-.21,2.54,2.54,0,0,0,.62-.85.23.23,0,0,1,.2-.14c.07,0,.1.07.1.19a5.52,5.52,0,0,1-.33,1.35.22.22,0,0,1-.22.15l-1.3,0c-.92,0-1.64,0-2.17,0-.14,0-.36,0-.68,0s-.49,0-.74,0A.34.34,0,0,1,34.46,73.05Z"/><path class="cls-1" d="M46.14,73.05a2.44,2.44,0,0,1-.77-.64l-.74-1a12.05,12.05,0,0,1-.69-1.18,1,1,0,0,0-.36-.36,1.37,1.37,0,0,0-.53-.15h0c-.08,0-.12.08-.12.22v2a.72.72,0,0,0,.18.53,1.05,1.05,0,0,0,.61.26.55.55,0,0,1,.2.08.16.16,0,0,1,.07.14c0,.09-.08.14-.23.14s-.55,0-.82,0-.54,0-.66,0-.49,0-.73,0l-.37,0h-.43a.33.33,0,0,1-.17,0,.11.11,0,0,1-.08-.1c0-.11.1-.18.28-.23a1.18,1.18,0,0,0,.58-.23.63.63,0,0,0,.17-.5V67.2a1.56,1.56,0,0,0-.05-.49.37.37,0,0,0-.18-.24,1.26,1.26,0,0,0-.43-.14.4.4,0,0,1-.21-.08.17.17,0,0,1-.07-.14c0-.1.09-.15.26-.15s.55,0,.75,0l.57,0,.31,0,.24,0a7,7,0,0,1,.87,0,3.46,3.46,0,0,1,1.91.44,1.47,1.47,0,0,1,.66,1.31,1.52,1.52,0,0,1-.39,1.08,2.53,2.53,0,0,1-1,.64.05.05,0,0,0,0,.06.16.16,0,0,0,0,.07c.39.59.73,1.09,1,1.48a8.48,8.48,0,0,0,1,1.09,1.51,1.51,0,0,0,.62.35,3.53,3.53,0,0,0,.8.08.14.14,0,0,1,.16.16.45.45,0,0,1-.32.44,2.17,2.17,0,0,1-.82.13A2.5,2.5,0,0,1,46.14,73.05ZM44.38,69a1.55,1.55,0,0,0,.36-1.06,1.79,1.79,0,0,0-.31-1.15,1.16,1.16,0,0,0-1-.4.4.4,0,0,0-.39.21,2.15,2.15,0,0,0-.11.8c0,.22,0,.76,0,1.62a.37.37,0,0,0,.11.31.56.56,0,0,0,.35.09A1.24,1.24,0,0,0,44.38,69Z"/><path class="cls-1" d="M51.09,73a.11.11,0,0,1-.08-.1c0-.11.09-.18.27-.23a1.18,1.18,0,0,0,.58-.23A.68.68,0,0,0,52,72V67.22a1.11,1.11,0,0,0-.14-.62.83.83,0,0,0-.52-.27c-.19,0-.28-.11-.28-.22s.08-.15.26-.15l.87,0L53,66h1.72a7.07,7.07,0,0,0,.84-.08l.46,0a.29.29,0,0,1,.16,0,.17.17,0,0,1,.08.13c0,.45,0,.9,0,1.34a.35.35,0,0,1,0,.16.09.09,0,0,1-.08.06.21.21,0,0,1-.13-.05.15.15,0,0,1-.07-.12,1.84,1.84,0,0,0-.35-.72,1,1,0,0,0-.76-.29h-1a.52.52,0,0,0-.38.14.56.56,0,0,0-.13.38v2c0,.17.07.25.21.25h1.11a.56.56,0,0,0,.39-.14,1.11,1.11,0,0,0,.26-.38.3.3,0,0,1,.09-.13.17.17,0,0,1,.12-.06.14.14,0,0,1,.1.06.19.19,0,0,1,0,.15,6.39,6.39,0,0,0,0,.72c0,.18,0,.43,0,.75v0c0,.14,0,.2-.1.2a.23.23,0,0,1-.16-.08.81.81,0,0,1-.1-.18.78.78,0,0,0-.22-.39.43.43,0,0,0-.31-.12H53.64c-.17,0-.25.1-.25.26,0,.46,0,1.15,0,2.06a.69.69,0,0,0,.18.49,1.16,1.16,0,0,0,.61.25.54.54,0,0,1,.21.08.18.18,0,0,1,.06.14c0,.09-.08.14-.23.14s-.56,0-.82,0-.53,0-.66,0l-.71,0-.37,0h-.42A.33.33,0,0,1,51.09,73Z"/><path class="cls-1" d="M56.88,73.05a.13.13,0,0,1-.07-.11.16.16,0,0,1,.07-.13.48.48,0,0,1,.16-.08,1.44,1.44,0,0,0,.58-.25A.57.57,0,0,0,57.8,72V67a.67.67,0,0,0-.14-.48,1.33,1.33,0,0,0-.56-.22c-.19,0-.28-.11-.28-.23a.11.11,0,0,1,.08-.1.33.33,0,0,1,.17,0l.78,0,.66,0,.75,0,.79,0a.29.29,0,0,1,.17,0,.11.11,0,0,1,.06.11.17.17,0,0,1-.06.14.54.54,0,0,1-.21.08,2.26,2.26,0,0,0-.64.24.5.5,0,0,0-.18.43v5a.65.65,0,0,0,.14.46.78.78,0,0,0,.53.14H61a1,1,0,0,0,.44-.09,1.09,1.09,0,0,0,.35-.21,2,2,0,0,0,.31-.35,2.92,2.92,0,0,0,.26-.47c.1-.23.19-.34.27-.34a.12.12,0,0,1,.11.07.32.32,0,0,1,0,.14l0,.16q-.15.53-.21.81a3.78,3.78,0,0,0-.1.63c0,.13-.07.19-.17.19l-1.57,0c-.72,0-1.44,0-2.17,0l-1,0-.52,0A.34.34,0,0,1,56.88,73.05Z"/><path class="cls-1" d="M65.13,72.74a3.51,3.51,0,0,1-1.36-1.26,3.41,3.41,0,0,1-.51-1.85,4.11,4.11,0,0,1,.44-1.86A3.43,3.43,0,0,1,65,66.38a4.09,4.09,0,0,1,3.88-.08,3.51,3.51,0,0,1,1.36,1.26,3.41,3.41,0,0,1,.51,1.85,3.93,3.93,0,0,1-.45,1.86A3.41,3.41,0,0,1,69,72.66a3.86,3.86,0,0,1-2.05.53A3.81,3.81,0,0,1,65.13,72.74ZM68.68,72a3.4,3.4,0,0,0,.53-2,5.68,5.68,0,0,0-.27-1.78,3.07,3.07,0,0,0-.79-1.34,1.81,1.81,0,0,0-1.29-.5,1.76,1.76,0,0,0-1.52.74,3.34,3.34,0,0,0-.53,2,5.74,5.74,0,0,0,.26,1.79,3,3,0,0,0,.78,1.33,1.78,1.78,0,0,0,1.29.51A1.76,1.76,0,0,0,68.68,72Z"/><path class="cls-1" d="M81.43,66.1a.14.14,0,0,1-.09.13l-.25.09a.86.86,0,0,0-.5.29,2.26,2.26,0,0,0-.32.53L78,73a1.3,1.3,0,0,1-.1.18.14.14,0,0,1-.1,0q-.14,0-.24-.21l-.65-1.47-.61-1.4s0-.07-.06-.07-.06,0-.08.1c-.52,1.09-1,2-1.31,2.79a2.22,2.22,0,0,1-.11.22.14.14,0,0,1-.13.07s-.07,0-.1-.07a1.64,1.64,0,0,1-.1-.22L71.76,67a1.66,1.66,0,0,0-.29-.45,1.19,1.19,0,0,0-.46-.25l-.25-.1a.16.16,0,0,1-.08-.13.11.11,0,0,1,.09-.1A.42.42,0,0,1,71,66l.65,0,.64,0,.65,0,.56,0a.38.38,0,0,1,.27.07A.27.27,0,0,1,74,66l.68,0,.68,0,.6,0h.55c.23,0,.34,0,.34.14s-.06.13-.19.2a.64.64,0,0,0-.22.14c-.1,0-.15.08-.15.16s0,.06,0,.12l.25.64c.09.25.18.47.26.66s.08.13.1.13,0,0,0-.06A.5.5,0,0,0,77,68c0-.12.11-.28.19-.5l.16-.44.11-.29a.43.43,0,0,0,0-.17.21.21,0,0,0-.07-.17.69.69,0,0,0-.2-.13l-.15-.1A.15.15,0,0,1,77,66a.48.48,0,0,1,.21,0l.35,0,.26,0,.23,0,.51,0c.21,0,.31.05.31.15a.14.14,0,0,1-.08.14.76.76,0,0,1-.23.08,1.18,1.18,0,0,0-.45.22,1.89,1.89,0,0,0-.3.41,14.61,14.61,0,0,0-.68,1.45.76.76,0,0,0,0,.27.46.46,0,0,0,0,.22l.92,2.23c0,.05,0,.07,0,.07s.05,0,.08-.1c.46-1.09.94-2.39,1.46-3.9a1.46,1.46,0,0,0,.11-.49.38.38,0,0,0-.31-.37.81.81,0,0,1-.25-.09.17.17,0,0,1-.1-.14s0-.07.09-.1a.72.72,0,0,1,.22,0h.44a1.28,1.28,0,0,0,.33,0,3.13,3.13,0,0,0,.39,0l.5,0C81.32,66,81.43,66,81.43,66.1Zm-5.51,3.36a.64.64,0,0,0-.07-.24l-.95-2.1a1.11,1.11,0,0,0-.35-.48,1.59,1.59,0,0,0-.56-.3.64.64,0,0,1-.25-.12.62.62,0,0,1-.3.12.25.25,0,0,0-.18.11.49.49,0,0,0-.05.23,1,1,0,0,0,.07.36c.29.7.65,1.57,1.09,2.59L75,71.11c0,.08.07.12.08.12s.06,0,.09-.11l.68-1.44A.53.53,0,0,0,75.92,69.46Z"/><path class="cls-1" d="M81.69,73.05a.13.13,0,0,1-.07-.11c0-.09.09-.16.28-.21a1.34,1.34,0,0,0,.56-.25.63.63,0,0,0,.17-.49v-4.9a.75.75,0,0,0-.15-.52,1.13,1.13,0,0,0-.55-.24c-.19,0-.28-.11-.28-.22a.12.12,0,0,1,.07-.11.36.36,0,0,1,.19,0l.89,0,.83,0,2.06,0a5,5,0,0,0,.58,0l.28,0c.15,0,.24,0,.25.16l.08.49a5.8,5.8,0,0,1,.09.82.2.2,0,0,1,0,.14.13.13,0,0,1-.11.06c-.07,0-.13,0-.17-.16s-.11-.29-.17-.42a.76.76,0,0,0-.17-.29,1,1,0,0,0-.76-.32h-1a.56.56,0,0,0-.36.12.35.35,0,0,0-.16.31V69a.22.22,0,0,0,.25.25h1a.52.52,0,0,0,.4-.14,1.46,1.46,0,0,0,.23-.47c.05-.14.11-.21.21-.21a.11.11,0,0,1,.09.06.23.23,0,0,1,0,.15,8.19,8.19,0,0,0,0,.83c0,.37,0,.67,0,.88v.06c0,.13,0,.19-.11.19a.22.22,0,0,1-.15-.08.64.64,0,0,1-.1-.22,1.24,1.24,0,0,0-.21-.46.38.38,0,0,0-.32-.15h-1a.37.37,0,0,0-.23.06.24.24,0,0,0-.07.2V72a.63.63,0,0,0,.15.48.62.62,0,0,0,.47.14h.88a1.5,1.5,0,0,0,.88-.21,2.54,2.54,0,0,0,.62-.85.22.22,0,0,1,.19-.14c.07,0,.11.07.11.19A5.52,5.52,0,0,1,87,72.93a.23.23,0,0,1-.22.15l-1.3,0c-.92,0-1.65,0-2.17,0-.14,0-.37,0-.69,0s-.48,0-.73,0A.38.38,0,0,1,81.69,73.05Z"/><path class="cls-1" d="M93.37,73.05a2.41,2.41,0,0,1-.76-.64c-.29-.38-.54-.73-.75-1s-.44-.7-.69-1.18a.93.93,0,0,0-.35-.36,1.43,1.43,0,0,0-.54-.15h0c-.08,0-.12.08-.12.22v2a.72.72,0,0,0,.18.53,1.08,1.08,0,0,0,.61.26.54.54,0,0,1,.21.08.19.19,0,0,1,.07.14c0,.09-.08.14-.23.14s-.55,0-.82,0-.54,0-.66,0-.49,0-.73,0l-.37,0H88a.33.33,0,0,1-.17,0,.11.11,0,0,1-.08-.1c0-.11.09-.18.27-.23a1.22,1.22,0,0,0,.59-.23.67.67,0,0,0,.17-.5V67.2a1.93,1.93,0,0,0-.05-.49.37.37,0,0,0-.18-.24,1.34,1.34,0,0,0-.43-.14.4.4,0,0,1-.21-.08.17.17,0,0,1-.07-.14c0-.1.08-.15.26-.15a7.39,7.39,0,0,1,.74,0l.58,0,.31,0L90,66a7,7,0,0,1,.87,0,3.48,3.48,0,0,1,1.91.44,1.47,1.47,0,0,1,.66,1.31A1.52,1.52,0,0,1,93,68.76a2.53,2.53,0,0,1-1,.64.05.05,0,0,0,0,.06.08.08,0,0,0,0,.07c.39.59.73,1.09,1,1.48a8.56,8.56,0,0,0,1,1.09,1.45,1.45,0,0,0,.62.35,3.46,3.46,0,0,0,.8.08.14.14,0,0,1,.16.16.46.46,0,0,1-.33.44,2.14,2.14,0,0,1-.82.13A2.56,2.56,0,0,1,93.37,73.05ZM91.62,69A1.59,1.59,0,0,0,92,67.9a1.86,1.86,0,0,0-.3-1.15,1.18,1.18,0,0,0-1-.4.39.39,0,0,0-.38.21,2,2,0,0,0-.11.8c0,.22,0,.76,0,1.62a.35.35,0,0,0,.12.31.54.54,0,0,0,.35.09A1.24,1.24,0,0,0,91.62,69Z"/><path class="cls-1" d="M96.25,72.72a.59.59,0,0,1-.21-.24,4.31,4.31,0,0,1-.14-1.43c0-.1.07-.14.21-.14l.13,0a.18.18,0,0,1,.07.11A2.92,2.92,0,0,0,97,72.3a1.46,1.46,0,0,0,1,.46,1,1,0,0,0,.81-.34,1.17,1.17,0,0,0,.31-.81A1.35,1.35,0,0,0,99,71a1.4,1.4,0,0,0-.38-.43,7.21,7.21,0,0,0-.72-.46c-.42-.25-.74-.45-1-.62a2.45,2.45,0,0,1-.6-.64,1.73,1.73,0,0,1-.26-.95,1.91,1.91,0,0,1,.31-1.06,2.13,2.13,0,0,1,.86-.73,3,3,0,0,1,1.28-.26,3.36,3.36,0,0,1,.71.08,3.2,3.2,0,0,1,.59.18.56.56,0,0,1,.17.11.59.59,0,0,1,.1.21,4.2,4.2,0,0,1,.16,1.2c0,.08-.06.13-.18.13a.41.41,0,0,1-.19-.05.2.2,0,0,1-.11-.11c-.26-.85-.72-1.28-1.37-1.28a1.17,1.17,0,0,0-.8.26,1,1,0,0,0-.29.8.93.93,0,0,0,.35.69,7.44,7.44,0,0,0,1.13.78,4.47,4.47,0,0,1,1.21,1,1.89,1.89,0,0,1,.38,1.2,2,2,0,0,1-.68,1.6,2.8,2.8,0,0,1-1.83.56A2.76,2.76,0,0,1,96.25,72.72Z"/></svg>