<svg id="Слой_1" data-name="Слой 1" xmlns="http://www.w3.org/2000/svg" xmlns:xlink="http://www.w3.org/1999/xlink" viewBox="0 0 100 100"><defs><style>.cls-1{fill:none;}.cls-2{clip-path:url(#clip-path);}.cls-3{clip-path:url(#clip-path-2);}.cls-4{fill:#3d2b1c;}.cls-5{fill:#1e1e1c;}</style><clipPath id="clip-path"><rect class="cls-1" y="18.37" width="100" height="67.02"/></clipPath><clipPath id="clip-path-2"><rect class="cls-1" y="18.37" width="100" height="67.02"/></clipPath></defs><title>100-Logo-PH</title><g id="Logo"><g class="cls-2"><g class="cls-3"><path class="cls-4" d="M55.72,26.21l.25.14.09-.12-.29-.12Z"/><path class="cls-4" d="M55.36,26l.17.09,0-.07L55.39,26Z"/><path class="cls-4" d="M55.26,26l0,0-.34-.1.32.13"/></g><polygon class="cls-4" points="64.06 20.07 63.92 21.07 65.58 19.47 64.06 20.07"/><g class="cls-3"><path class="cls-4" d="M57.57,39.63s0,.2.22,0h0l-.07-.12-.16.08"/></g><polygon class="cls-4" points="51.15 22.02 51.4 21.78 51.27 21.76 51.15 22.02"/><g class="cls-3"><path class="cls-4" d="M57.83,39.47l.08.13.22-.14L58,39.32l-.2.15"/></g><polygon class="cls-4" points="55.5 22.77 55.91 22.39 55.71 22.35 55.5 22.77"/><polygon class="cls-4" points="52.74 22.56 52.99 22.32 52.87 22.3 52.74 22.56"/><polygon class="cls-4" points="53.52 22.63 53.84 22.33 53.68 22.3 53.52 22.63"/><g class="cls-3"><path class="cls-4" d="M58.17,39.24l.08.14.29-.2L58.42,39a2.76,2.76,0,0,0-.25.21"/></g><polygon class="cls-4" points="51.48 22.14 51.74 21.9 51.61 21.88 51.48 22.14"/><g class="cls-3"><path class="cls-4" d="M58.56,38.92l.13.15.3-.23-.16-.18c-.09.1-.19.18-.27.26"/></g><polygon class="cls-4" points="65.2 21.23 65.81 19.71 64.22 21.36 65.2 21.23"/><g class="cls-3"><path class="cls-4" d="M47.32,52.58l-.33.16,0,.06a1,1,0,0,0,.27.34l.25-.32a.76.76,0,0,1-.23-.24"/><path class="cls-4" d="M41.68,21.09a.2.2,0,0,0,.2.2h0a.21.21,0,1,0,0-.41.21.21,0,0,0-.19.21"/><path class="cls-4" d="M40.59,19.06a.2.2,0,0,0,.2-.2.22.22,0,0,0-.2-.23.22.22,0,1,0,0,.43h0"/><path class="cls-4" d="M36.91,18.71s.22.27.15.44c0,0-.5-.43-.61.15-.08.43.2.48.45.43s.81-.35.35-1.07a1,1,0,0,0-1.42.05l.13.07a.78.78,0,0,1,.95-.07"/><path class="cls-4" d="M40.6,52.73a.2.2,0,0,0-.2.2v0a.21.21,0,0,0,.21.21.21.21,0,0,0,.22-.21h0a.22.22,0,0,0-.21-.22h0"/><path class="cls-4" d="M37.67,19.81s.84-.2.8-.82-.8-.57-.8-.57.68.81,0,1.39"/><path class="cls-4" d="M39.16,19.48s.55,0,.52-.47-.63-.52-.63-.52.52.64.11,1"/><path class="cls-4" d="M43.92,20.71c.07.59.76.61.76.61A.83.83,0,0,1,44.6,20s-.76.11-.68.71"/></g><polygon class="cls-4" points="40.36 20.08 40.87 20.38 40.52 19.99 40.36 20.08"/><polygon class="cls-4" points="41.08 19.88 41.56 20.2 41.24 19.78 41.08 19.88"/><g class="cls-3"><path class="cls-4" d="M39,20.44l.38.26-.23-.3c.15,0,.3-.1.47-.16l.43.29-.27-.35a17.23,17.23,0,0,0,1.67-.71,6.36,6.36,0,0,1,2.84-.65v0l.29.19a4.24,4.24,0,0,0-.46.1L44,18.91l-.15.09.24.16-.39.13-.2-.26-.16.1.29.18-.43.16-.25-.32-.16.1.36.24-.44.19-.3-.4-.16.1.45.3c-.44.18-.75.34-.75.34a6.76,6.76,0,0,1-4.62.71A4.51,4.51,0,0,0,39,20.44M45.39,19a2.07,2.07,0,0,0-.7,0l-.14-.17a3.35,3.35,0,0,1,.84.13m-8.64,1.49a.27.27,0,0,1-.12,0l-.08.23a3.82,3.82,0,0,0,1.16.36c-.9.37-.84,1.6-.11,1.64s.51-.6.51-.6c.08.39-.68.65-.83,0s1.3-.89,1.9-1a8.68,8.68,0,0,0,2.18-.53s3.63-1.81,4.26-1.29c0,0,1,.31.82,1.24s-1.24.78-1.31.34c0,0,.74.36.71-.34a.4.4,0,0,0-.38-.4.32.32,0,0,0-.14,0s-.73.22-.18,1.06a.85.85,0,0,0,1,.06c.65-.35.63-1.43,0-2.14s-2.86-.73-4.13-.2-3.69,1.92-5.35,1.57"/><path class="cls-4" d="M35.73,19.59a1.4,1.4,0,0,1,0-.29l-.18,0a1,1,0,0,0,0,.35Z"/><path class="cls-4" d="M37,52.17c-.26,0-.61,0-.43.44s.52.17.52.17c.07.18-.14.3-.14.3A.8.8,0,0,1,36,53l-.14.08c.38.37,1.26.47,1.52.07.46-.72-.06-1-.37-1"/><path class="cls-4" d="M36.37,51.23c-.12.08-.24.16-.35.25l.1.13a1.45,1.45,0,0,1,.34-.2Z"/><path class="cls-4" d="M39.17,52.31c.48.41-.1,1-.1,1s.61,0,.63-.43-.53-.58-.53-.58"/><path class="cls-4" d="M35.78,52.67l-.17.06a1.2,1.2,0,0,0,.11.23l.16-.08a1,1,0,0,1-.1-.21"/><path class="cls-4" d="M37.69,52c.68.59,0,1.39,0,1.39s.71,0,.76-.59-.76-.8-.76-.8"/></g><polygon class="cls-4" points="41.67 19.59 42.15 19.9 41.83 19.49 41.67 19.59"/><g class="cls-3"><path class="cls-4" d="M36,20.31a2.8,2.8,0,0,0,.35.25l.1-.18a1.1,1.1,0,0,1-.35-.2Z"/><path class="cls-4" d="M35.86,18.92l-.15-.08a1,1,0,0,0-.12.23l.17.06a.68.68,0,0,1,.1-.21"/><path class="cls-4" d="M35.76,52.2l-.17,0a.82.82,0,0,0,0,.35l.18,0a1.5,1.5,0,0,1,0-.3"/><path class="cls-4" d="M36,51.74l-.14-.1-.08.1-.08.15.16.07a1.18,1.18,0,0,1,.14-.22"/><path class="cls-4" d="M42.78,20.92c0,.41.52.4.52.4s-.44-.55,0-1c0,0-.58.15-.52.56"/><path class="cls-4" d="M59.47,19.48c-.47-.41.11-1,.11-1s-.61,0-.63.43.52.58.52.58"/><path class="cls-4" d="M62.28,20.56a2.31,2.31,0,0,0,.36-.25l-.1-.13a1.45,1.45,0,0,1-.34.2Z"/><path class="cls-4" d="M61,19.81c-.68-.58,0-1.39,0-1.39s-.71-.05-.75.58.75.82.75.82"/><path class="cls-4" d="M54.06,18.83l-.14.17a1.94,1.94,0,0,0-.68,0,3.2,3.2,0,0,1,.82-.14m.17,0a6.32,6.32,0,0,1,2.93.63c.6.29,1.14.52,1.63.71l-.29.36.47-.31.45.16-.25.32.41-.27a4.24,4.24,0,0,0,1.74.28A6.72,6.72,0,0,1,57,20.19l.45-.3-.14-.09-.3.39L56.72,20l-.25-.11.45-.31-.15-.09-.3.38L56,19.66l.42-.27-.17-.09-.28.36-.43-.18.33-.21-.16-.08-.23.28-.4-.15.25-.18-.16-.09-.18.23-.38-.13.22-.13-.16-.1-.16.21A4,4,0,0,0,54,19l.24-.17Zm-1.78,2.39a.86.86,0,0,0,1-.05c.61-.72,0-1.07,0-1.07s-.38-.15-.48.2c-.17.57.44.51.44.51-.06.44-1.1.59-1.31-.34s.82-1.24.82-1.24c.2-.17.7-.09,1.29.08h0a21.75,21.75,0,0,1,3,1.23,9.12,9.12,0,0,0,2.18.52c.6.09,2,.37,1.9,1s-.9.42-.83,0c0,0-.23.64.51.6s.8-1.27-.11-1.64a3.84,3.84,0,0,0,1.16-.37L62,20.44s-.08,0-.13,0c-1.64.35-4.08-1-5.33-1.57s-3.52-.77-4.12.2c-.49.79-.63,1.8,0,2.14"/><path class="cls-4" d="M58.06,19.06a.22.22,0,1,0-.22-.22h0a.22.22,0,0,0,.22.22"/></g><polygon class="cls-4" points="57.72 20.41 58.23 20.09 58.08 20 57.72 20.41"/><g class="cls-3"><path class="cls-4" d="M62.67,20l.14.11.09-.1A1,1,0,0,0,63,19.9l-.16-.06a.66.66,0,0,1-.14.2"/><path class="cls-4" d="M61.66,19.63c.27,0,.61,0,.43-.45s-.52-.18-.52-.18c-.07-.17.14-.29.14-.29a.77.77,0,0,1,1,.07l.14-.08c-.38-.37-1.26-.46-1.51-.07-.46.73.06,1,.36,1"/><path class="cls-4" d="M62.9,19.58l.17.05a1.53,1.53,0,0,0,0-.37l-.18,0a1.41,1.41,0,0,1,0,.29"/><path class="cls-4" d="M62.88,19.13l.17-.06a1.63,1.63,0,0,0-.11-.23l-.16.08a1.24,1.24,0,0,1,.1.2"/><path class="cls-4" d="M51.34,19.21l.32-.16,0-.06a1.13,1.13,0,0,0-.27-.34L51.1,19a.78.78,0,0,1,.24.24"/><path class="cls-4" d="M48.78,18.76a1.35,1.35,0,0,0-.33-.19l-.13.35a.79.79,0,0,1,.23.14Z"/><path class="cls-4" d="M50.32,18.92l-.13-.35a2.79,2.79,0,0,0-.33.19l.24.31a.54.54,0,0,1,.22-.15"/><path class="cls-4" d="M48.14,18.86l.12-.36a1.34,1.34,0,0,0-.66,0l.11.4a.89.89,0,0,1,.43,0"/><path class="cls-4" d="M50.92,18.89l.11-.4a1.2,1.2,0,0,0-.65,0l.12.36a.76.76,0,0,1,.42,0"/><path class="cls-4" d="M47.54,19l-.25-.32A.87.87,0,0,0,47,19l0,.07.33.15a.8.8,0,0,1,.23-.22"/><path class="cls-4" d="M51.46,19.65s-.57-.3-.76.07-.21.7.24.87,1.13-.34.82-1.31l-.35.09a1.4,1.4,0,0,1,.06.28"/><path class="cls-4" d="M54.72,20.69a.62.62,0,0,0-.54-.69c.61.59-.1,1.32-.1,1.32a.71.71,0,0,0,.64-.63"/><path class="cls-4" d="M47.69,20.59c.46-.17.57-.58.28-.89s-.78.21-.78.21a4.9,4.9,0,0,1,0-.54l-.35-.09c-.32,1,.39,1.46.82,1.3"/><path class="cls-4" d="M55.82,20.9a.45.45,0,0,0-.39-.5c.43.41,0,.92,0,.92a.46.46,0,0,0,.44-.42"/><path class="cls-4" d="M56.55,21.06a.2.2,0,0,0,.19.22h0a.21.21,0,0,0,.22-.19h0a.21.21,0,0,0-.19-.22h0a.2.2,0,0,0-.2.2"/><path class="cls-4" d="M54.61,30.2a.26.26,0,0,1,.06-.31c.14-.1-.12-1.14-.51-1s.07.87.2,1.11a.28.28,0,0,1,.24.2"/></g><polygon class="cls-4" points="62.22 28 62.71 27.77 62.67 27.53 62.22 28"/><g class="cls-3"><path class="cls-4" d="M58,31c.24-.07.46.3.46.3a.49.49,0,0,1,.06-.52c-.21-.46-1-1.53-1.35-1.3s.59,1.59.83,1.52"/><path class="cls-4" d="M51.84,29.8c.12.05.54-.5.38-.73s-.57.39-.61.57,0,.22,0,.22a.21.21,0,0,1,.24-.06"/><path class="cls-4" d="M62.92,52.2a1,1,0,0,1,0,.29l.18,0a1.1,1.1,0,0,0,0-.36Z"/></g><polygon class="cls-4" points="62.98 39.74 63.01 39.61 62.74 39.48 62.98 39.74"/><polygon class="cls-4" points="40.43 51.7 40.58 51.79 40.94 51.39 40.43 51.7"/><g class="cls-3"><path class="cls-4" d="M62.65,51.47a2.16,2.16,0,0,0-.35-.24l-.09.18a1,1,0,0,1,.35.2Z"/><path class="cls-4" d="M61.75,53.07s-.22-.26-.15-.43c0,0,.5.43.61-.15.08-.42-.2-.48-.45-.43s-.82.35-.36,1.08a1,1,0,0,0,1.43,0L62.69,53a.76.76,0,0,1-.95.07"/><path class="cls-4" d="M62.8,52.87,63,53a1,1,0,0,0,.12-.23l-.18-.06a.72.72,0,0,1-.09.2"/><path class="cls-4" d="M63,51.88s0-.1-.07-.15l-.09-.09-.14.1a.9.9,0,0,1,.14.2Z"/></g><polygon class="cls-4" points="58.11 26.6 58.12 26.61 58.12 26.59 58.11 26.6"/><polygon class="cls-4" points="62.68 31.5 63.02 31.34 62.99 31.18 62.68 31.5"/><polygon class="cls-4" points="62.68 31.92 63.02 31.76 62.99 31.6 62.68 31.92"/><polygon class="cls-4" points="62.54 29.52 62.97 29.32 62.93 29.11 62.54 29.52"/><polygon class="cls-4" points="62.58 30.57 63 30.36 62.96 30.16 62.58 30.57"/><polygon class="cls-4" points="62.75 32.27 63.02 32.14 62.99 32.01 62.75 32.27"/><polygon class="cls-4" points="62.75 32.77 63.02 32.64 62.99 32.52 62.75 32.77"/><polygon class="cls-4" points="62.98 40.58 63.01 40.42 62.67 40.26 62.98 40.58"/><polygon class="cls-4" points="62.98 40.16 63.01 40 62.67 39.84 62.98 40.16"/><polygon class="cls-4" points="62.92 42.64 62.96 42.44 62.53 42.23 62.92 42.64"/><polygon class="cls-4" points="62.54 30.03 62.97 29.82 62.93 29.62 62.54 30.03"/><g class="cls-3"><path class="cls-4" d="M61,52s-.85.2-.8.82.8.56.8.56-.69-.82,0-1.39"/><path class="cls-4" d="M56.14,26.45l.24.14.11-.15-.24-.13Z"/><path class="cls-4" d="M47.74,52.9l-.1.41a1.26,1.26,0,0,0,.64,0l-.11-.36a.78.78,0,0,1-.43,0"/><path class="cls-4" d="M47.2,52.14s.56.3.76-.07.2-.7-.25-.86-1.12.34-.81,1.3l.34-.09a.87.87,0,0,1-.05-.28"/><path class="cls-4" d="M49.87,53a1.63,1.63,0,0,0,.34.19l.13-.34a.76.76,0,0,1-.23-.15Z"/><path class="cls-4" d="M48.34,52.88l.13.35A1.85,1.85,0,0,0,48.8,53l-.24-.29a1.07,1.07,0,0,1-.22.15"/><path class="cls-4" d="M44.6,53l.13-.17a2,2,0,0,0,.69,0,3.8,3.8,0,0,1-.82.14m-.18,0a6.43,6.43,0,0,1-2.92-.65c-.61-.29-1.15-.52-1.63-.7l.29-.38-.47.31-.45-.15.24-.33-.41.28a4.73,4.73,0,0,0-1.74-.29,6.66,6.66,0,0,1,4.28.54l-.45.29.16.1.3-.39c.11.06.23.11.34.18l.24.11-.45.3.16.09.3-.39a4.35,4.35,0,0,0,.51.23l-.42.28.16.09.28-.36.43.17-.33.22.16.1.23-.29c.13.05.27.11.41.15l-.26.17.16.1.18-.23.38.11-.22.15.16.09.16-.2a4.08,4.08,0,0,0,.45.1l-.26.17Zm1.79-2.42a.86.86,0,0,0-1,.06c-.62.72-.05,1.07-.05,1.07a.34.34,0,0,0,.46-.18v0c.17-.58-.43-.5-.43-.5.06-.45,1.1-.6,1.3.33s-.82,1.24-.82,1.24c-.2.16-.69.1-1.28-.08h0a20.69,20.69,0,0,1-3-1.22,9.21,9.21,0,0,0-2.19-.53c-.6-.08-2-.37-1.9-1s.9-.4.83,0c0,0,.23-.64-.5-.59s-.8,1.27.1,1.63a3.74,3.74,0,0,0-1.16.37l.08.22.12,0c1.66-.34,4.09,1,5.35,1.57s3.52.78,4.12-.2c.49-.78.62-1.79,0-2.14"/><path class="cls-4" d="M59.5,52.3s-.56,0-.53.48.64.52.64.52-.53-.63-.11-1"/><path class="cls-4" d="M42.11,50.73a.22.22,0,0,0-.19-.22h0a.2.2,0,0,0-.22.19h0a.2.2,0,0,0,.2.21.21.21,0,0,0,.21-.19"/><path class="cls-4" d="M43.94,51.1a.62.62,0,0,0,.54.69c-.62-.59.09-1.32.09-1.32a.7.7,0,0,0-.63.63"/><path class="cls-4" d="M42.83,50.89c0,.41.4.5.4.5-.43-.4.05-.92.05-.92a.46.46,0,0,0-.45.42"/><path class="cls-4" d="M50.51,52.93l-.11.36a1.2,1.2,0,0,0,.65,0l-.11-.39a.89.89,0,0,1-.43,0"/><path class="cls-4" d="M54.74,51.08c-.07-.6-.76-.61-.76-.61a.83.83,0,0,1,.08,1.32s.75-.11.68-.7"/><path class="cls-4" d="M55.88,50.87c-.05-.41-.52-.41-.52-.41s.43.56,0,1c0,0,.57-.15.52-.56"/><path class="cls-4" d="M59.62,51.34l-.39-.24.24.29-.47.16-.44-.29.26.35c-.49.18-1,.41-1.66.7a6.22,6.22,0,0,1-2.84.65h0L54,52.77c.14,0,.3-.07.46-.11l.17.23.16-.09-.25-.16.4-.13.2.26.16-.1-.29-.19.43-.15.25.31.16-.1-.36-.24c.15,0,.3-.12.44-.18l.3.39.16-.09-.46-.3c.45-.19.76-.35.76-.35a6.76,6.76,0,0,1,4.62-.7,4.43,4.43,0,0,0-1.74.28m-6.36,1.48a2.41,2.41,0,0,0,.71,0l.14.17a4.06,4.06,0,0,1-.85-.13m8.65-1.5.12,0,.08-.23a4.75,4.75,0,0,0-1.16-.37c.9-.36.84-1.59.1-1.63s-.5.6-.5.6c-.08-.39.68-.66.82,0s-1.29.89-1.89,1a9.19,9.19,0,0,0-2.19.52s-3.62,1.81-4.23,1.29c0,0-1-.31-.82-1.24s1.24-.77,1.3-.34c0,0-.74-.36-.7.34a.39.39,0,0,0,.38.4l.14,0s.73-.23.18-1.07a.86.86,0,0,0-1-.06c-.65.36-.64,1.43,0,2.14s2.86.73,4.12.2,3.7-1.91,5.36-1.56"/><path class="cls-4" d="M57,50.7a.21.21,0,0,0-.22-.19.2.2,0,0,0-.2.21.2.2,0,0,0,.2.2h0a.2.2,0,0,0,.2-.2v0"/><path class="cls-4" d="M51.12,52.82l.25.32a1,1,0,0,0,.28-.34l0-.07-.33-.16a.61.61,0,0,1-.23.25"/><path class="cls-4" d="M58.07,52.73a.21.21,0,0,0-.21.22.21.21,0,1,0,.42,0,.21.21,0,0,0-.21-.22"/><path class="cls-4" d="M51,51.21c-.47.16-.57.57-.28.87s.78-.2.78-.2a4.93,4.93,0,0,1,0,.54l.35.08c.32-1-.38-1.45-.82-1.3"/></g><polygon class="cls-4" points="56.83 52.3 56.99 52.2 56.51 51.89 56.83 52.3"/><polygon class="cls-4" points="57.42 52.01 57.58 51.91 57.1 51.6 57.42 52.01"/><polygon class="cls-4" points="58.14 51.8 58.3 51.71 57.79 51.4 58.14 51.8"/><g class="cls-3"><path class="cls-4" d="M35.66,19.9a1.09,1.09,0,0,0,.08.15.39.39,0,0,0,.08.1l.15-.1a1,1,0,0,1-.15-.2Z"/><path class="cls-4" d="M31.84,24.29s-.1.77.53.81.78-.81.78-.81a.9.9,0,0,1-1.31,0"/><path class="cls-4" d="M32.34,37.67l-.32.26a1,1,0,0,0,.33.27l.08,0,.16-.33a.56.56,0,0,1-.25-.23"/><path class="cls-4" d="M31.83,34.84l.36-.13a.86.86,0,0,1,0-.42l-.38-.11a1.23,1.23,0,0,0,0,.66"/><path class="cls-4" d="M32.88,25.7c-.4.47-1-.09-1-.09s-.07.58.37.61.62-.52.62-.52"/><path class="cls-4" d="M31.79,47.49s.81-.68,1.39,0c0,0-.17-.84-.81-.8s-.59.8-.59.8"/><path class="cls-4" d="M32.56,33.88l-.17-.33-.07,0a1.06,1.06,0,0,0-.34.26l.33.26a.61.61,0,0,1,.25-.23"/><path class="cls-4" d="M31.94,36.77l.34.13a.76.76,0,0,1,.15-.23l-.3-.23a1.35,1.35,0,0,0-.19.33"/><path class="cls-4" d="M32.25,34.9l-.34.13a1.57,1.57,0,0,0,.19.33l.3-.24a.86.86,0,0,1-.15-.22"/><path class="cls-4" d="M32,27.19a.21.21,0,0,0,.21.22.22.22,0,0,0,.22-.22h0a.22.22,0,0,0-.22-.21.21.21,0,0,0-.21.21"/><path class="cls-4" d="M65.73,49.42l0,.16a2.19,2.19,0,0,0,.36,0l0-.19a.71.71,0,0,1-.29,0"/><path class="cls-4" d="M32.07,49.32l.11-.2a.67.67,0,0,1-.1-.89s.12-.21.29-.14c0,0-.29.28,0,.47s.56,0,.57-.26-.2-.94-.93-.48a1.15,1.15,0,0,0,0,1.5"/></g><polygon class="cls-4" points="65.42 44.24 65.52 44.08 65.1 43.76 65.42 44.24"/><g class="cls-3"><path class="cls-4" d="M66.19,49.4l.06.16a.7.7,0,0,0,.23-.11l-.08-.15a1,1,0,0,1-.21.1"/></g><polygon class="cls-4" points="65.22 44.95 65.31 44.79 64.92 44.44 65.22 44.95"/><g class="cls-3"><path class="cls-4" d="M56.69,26.55l-.15.15.24.17.16-.18-.25-.14"/><path class="cls-4" d="M32.21,49.44a.65.65,0,0,0,.22.11l.07-.16-.21-.1Z"/><path class="cls-4" d="M66.62,49.33c.26,0,.42-1.36-.06-1.55-.8-.31-1,.33-.87.62s.1.43.5.22a.37.37,0,0,0,.13-.5h0c.18-.08.23.13.23.13.21.41.21.75,0,1Z"/><path class="cls-4" d="M34.13,29.5c-.41-.05-.55.4-.55.4.4-.42,1,.06,1,.06a.5.5,0,0,0-.44-.47"/><path class="cls-4" d="M31.87,37a1.3,1.3,0,0,0,0,.65l.41-.11a.9.9,0,0,1,0-.43Z"/><path class="cls-4" d="M32.65,38.32c1,.32,1.46-.38,1.3-.8s-.5-.45-.87-.25S33,38,33,38a1,1,0,0,1-.29-.05Z"/></g><polygon class="cls-4" points="32.84 43.53 32.94 43.69 33.25 43.21 32.84 43.53"/><g class="cls-3"><path class="cls-4" d="M32.54,41.17l-.29.22.1.16.2-.32c0,.14.09.28.14.41l-.32.26.09.15.25-.37c.06.16.11.31.17.45l-.38.32.09.16.3-.45c.25.61.5,1.11.5,1.11a6.61,6.61,0,0,1,.72,4.59,4.51,4.51,0,0,0-.26-1.63l.2-.3-.23.18c0-.16-.1-.32-.16-.49l.23-.36-.28.22c-.06-.17-.14-.35-.21-.54l0,.06.3-.51-.38.34c-.15-.35-.32-.72-.5-1.13a6.26,6.26,0,0,1-.67-2.65l.23-.33c0,.15.08.31.13.47m-.2-1.36a2.32,2.32,0,0,0,.06.83l-.2.16a3.35,3.35,0,0,1,.15-1m-.07,3.27c.65,1.2,1.92,3.68,1.57,5.32l0,.12.23.08a4.18,4.18,0,0,0,.37-1.15c.37.89,1.61.84,1.65.1s-.6-.5-.6-.5c.39-.08.65.67,0,.82s-.9-1.3-1-1.89a9.08,9.08,0,0,0-.54-2.17s-1.83-3.63-1.32-4.24c0,0,.32-1,1.26-.82s.77,1.23.33,1.3c0,0,.33-.47-.23-.57-.38-.08-.36.37-.36.37s.07.82,1,.19a.85.85,0,0,0,0-1c-.34-.65-1.43-.63-2.14,0s-.88,2.85-.2,4.1"/></g><polygon class="cls-4" points="32.63 42.98 32.73 43.14 33.04 42.67 32.63 42.98"/><g class="cls-3"><path class="cls-4" d="M33.35,31.2a.73.73,0,0,1,1.1-.11s.07-.32-.39-.47-.71.58-.71.58"/><path class="cls-4" d="M34.56,28.52a.17.17,0,0,0-.16-.19h0c-.11,0-.15,0-.16.15s0,.18.12.19.21,0,.22-.15"/><path class="cls-4" d="M33.05,34.52c.37.2.71.2.87-.25s-.33-1.12-1.31-.8l.09.35a.79.79,0,0,1,.29-.06s-.3.56.06.76"/></g><polygon class="cls-4" points="33.13 44.11 33.23 44.27 33.55 43.8 33.13 44.11"/><g class="cls-3"><path class="cls-4" d="M33.28,49.48l.15-.07.09-.09-.1-.13a1.37,1.37,0,0,1-.2.13Z"/><path class="cls-4" d="M31.86,46.15s.65-.49,1,0c0,0-.24-.57-.68-.54s-.37.56-.37.56"/><path class="cls-4" d="M32.42,44.59a.2.2,0,0,0-.2-.2.2.2,0,0,0-.22.19h0a.22.22,0,0,0,.22.22h0a.22.22,0,0,0,.21-.2v0"/></g><polygon class="cls-4" points="65.72 43.65 65.81 43.49 65.4 43.17 65.72 43.65"/><g class="cls-3"><path class="cls-4" d="M34.25,43.31a.2.2,0,0,0,.22.19.2.2,0,0,0,.19-.21h0a.21.21,0,1,0-.41,0h0"/><path class="cls-4" d="M34.66,40.67a.82.82,0,0,1-1.2,0s0,.65.6.57a.62.62,0,0,0,.6-.6"/><path class="cls-4" d="M33.79,42.07a.42.42,0,0,0,.43.39h0c.41-.05.45-.52.45-.52s-.49.56-.91.13"/><path class="cls-4" d="M33.55,49.05l.14.09a2.62,2.62,0,0,0,.24-.34l-.17-.09a1.73,1.73,0,0,1-.21.34"/><path class="cls-4" d="M66.41,36.91l.34-.13a1.63,1.63,0,0,0-.19-.34l-.31.23a.78.78,0,0,1,.16.24"/><path class="cls-4" d="M66.72,35l-.34-.13a.69.69,0,0,1-.16.22l.31.23a1.5,1.5,0,0,0,.19-.32"/></g><polygon class="cls-4" points="65.92 43.11 66.02 42.95 65.61 42.63 65.92 43.11"/><g class="cls-3"><path class="cls-4" d="M66.11,37.91l.16.33.07,0a1,1,0,0,0,.34-.28l-.33-.25a.59.59,0,0,1-.24.23"/><path class="cls-4" d="M66.23,27.2a.22.22,0,1,0,.43,0,.21.21,0,0,0-.22-.21.21.21,0,0,0-.21.21"/><path class="cls-4" d="M65.38,22.31l-.15.07-.1.09.11.14a.9.9,0,0,1,.2-.14Z"/><path class="cls-4" d="M65.77,46.1c.41-.48,1,.08,1,.08s.07-.58-.36-.61-.63.53-.63.53"/><path class="cls-4" d="M66.79,34.84a1.3,1.3,0,0,0,0-.65l-.41.11a.85.85,0,0,1,0,.42Z"/><path class="cls-4" d="M66.8,25.64s-.65.49-1.06,0c0,0,.25.57.69.54s.37-.56.37-.56"/><path class="cls-4" d="M66.59,22.46l-.11.21a.66.66,0,0,1,.09.89s-.11.21-.29.14c0,0,.29-.27,0-.47s-.57,0-.58.26.2.94.94.48a1.17,1.17,0,0,0,0-1.51"/><path class="cls-4" d="M66,22.37l0-.18a1.45,1.45,0,0,0-.36,0l0,.17a.94.94,0,0,1,.29,0"/><path class="cls-4" d="M66.45,22.34l-.23-.11-.06.17.2.1Z"/><path class="cls-4" d="M66.69,44.6a.22.22,0,0,0-.22-.22.21.21,0,0,0-.21.22.21.21,0,0,0,.21.21.2.2,0,0,0,.22-.18v0"/><path class="cls-4" d="M66.87,24.3s-.81.68-1.4,0c0,0,.18.84.82.8s.59-.8.59-.8"/><path class="cls-4" d="M66.81,47.49s.11-.77-.52-.81-.79.81-.79.81a.9.9,0,0,1,1.31,0"/><path class="cls-4" d="M66.82,37l-.36.12a.79.79,0,0,1,0,.43l.41.1a1.3,1.3,0,0,0,0-.65"/><path class="cls-4" d="M66.31,34.12l.33-.24a1,1,0,0,0-.33-.28l-.07,0-.16.33a.84.84,0,0,1,.23.23"/><path class="cls-4" d="M66,33.47c-1-.32-1.47.38-1.31.8s.5.45.87.25.06-.76.06-.76a.75.75,0,0,1,.29.06Z"/><path class="cls-4" d="M65.31,40.61a.74.74,0,0,1-1.1.1s-.07.32.38.48.72-.58.72-.58"/><path class="cls-4" d="M64.09,43.28a.19.19,0,0,0,.17.19h0c.12,0,.16,0,.17-.15s0-.18-.13-.19-.2,0-.22.15"/><path class="cls-4" d="M65.6,37.27c-.37-.2-.71-.2-.88.26s.34,1.12,1.31.8L66,38a1,1,0,0,1-.29.06s.3-.56-.06-.77"/><path class="cls-4" d="M64.53,42.3c.41.05.55-.41.55-.41-.41.43-1-.06-1-.06a.52.52,0,0,0,.45.47"/><path class="cls-4" d="M65.09,45.47l-.33-.25.27.41c0,.17-.11.33-.16.48l-.27-.22.23.35a4.25,4.25,0,0,0-.25,1.64,6.61,6.61,0,0,1,.71-4.61s.24-.48.5-1.1l.27.39.09-.16-.35-.27c.06-.14.11-.28.17-.43l.2.32.1-.17L66,41.63a4,4,0,0,0,.13-.41l.18.28.1-.16-.25-.21c0-.15.09-.3.13-.44l.2.3,0,0a6.27,6.27,0,0,1-.66,2.72c-.32.66-.56,1.26-.75,1.77m1.26-5.65a3.63,3.63,0,0,1,.14,1l-.2-.16a2.44,2.44,0,0,0,0-.81M66.22,39c-.7-.59-1.79-.61-2.14,0a.84.84,0,0,0,0,1c.94.69,1.12-.06,1.12-.06s.07-.41-.24-.48c-.73-.16-.52.55-.52.55-.44-.07-.61-1.1.34-1.3a1.13,1.13,0,0,1,1.25.82c.51.61-1.31,4.23-1.31,4.23A9.56,9.56,0,0,0,64.24,46c-.08.59-.37,2-1,1.89s-.42-.9,0-.83c0,0-.64-.23-.6.5s1.28.79,1.65-.1a3.87,3.87,0,0,0,.37,1.15l.23-.07a.27.27,0,0,1,0-.12c-.35-1.65,1-4.11,1.57-5.33s.51-3.49-.21-4.09"/><path class="cls-4" d="M65.26,49.42l.15.07.06-.16-.2-.14-.1.14.09.09"/><path class="cls-4" d="M65,49.15l.14-.1a1.38,1.38,0,0,1-.2-.33l-.18.08.24.35"/></g><polygon class="cls-4" points="65.11 28 65.53 27.69 65.43 27.53 65.11 28"/><g class="cls-3"><path class="cls-4" d="M64.4,28.49a.2.2,0,1,0-.19.21.19.19,0,0,0,.19-.21h0"/><path class="cls-4" d="M64,31.13a.81.81,0,0,1,1.2,0s0-.65-.61-.58a.62.62,0,0,0-.59.61"/><path class="cls-4" d="M64.86,29.73a.41.41,0,0,0-.46-.39c-.41.05-.44.52-.44.52s.49-.56.9-.13"/><path class="cls-4" d="M66.11,30.62l.29-.22-.1-.16-.2.33L66,30.16l.33-.26-.09-.15-.25.36-.18-.45.4-.3-.1-.16-.3.45c-.25-.63-.5-1.11-.5-1.11a6.72,6.72,0,0,1-.71-4.61,4.25,4.25,0,0,0,.25,1.64l-.2.3.23-.18c0,.16.1.33.17.5l-.22.34.27-.2c.07.17.14.35.21.55l0-.07-.3.52L65.3,27c.15.35.31.72.5,1.12a6.41,6.41,0,0,1,.67,2.65l-.23.34c0-.15-.08-.31-.13-.48m.2,1.37a2.39,2.39,0,0,0-.06-.84l.2-.16a3.77,3.77,0,0,1-.14,1m.06-3.28c-.65-1.19-1.92-3.67-1.57-5.33l0-.11-.23-.08a3.87,3.87,0,0,0-.37,1.15c-.37-.89-1.6-.84-1.65-.1s.6.5.6.5c-.39.07-.65-.68,0-.82s.89,1.3,1,1.89A9.12,9.12,0,0,0,64.72,28S66.54,31.6,66,32.22c0,0-.32,1-1.25.82s-.78-1.24-.34-1.3c0,0-.33.47.24.58.38.07.35-.38.35-.38s-.07-.82-1-.19a.84.84,0,0,0,0,1c.36.64,1.44.63,2.15,0s.88-2.85.2-4.1"/></g><polygon class="cls-4" points="65.41 28.59 65.82 28.26 65.72 28.11 65.41 28.59"/><polygon class="cls-4" points="65.62 29.13 66.03 28.82 65.93 28.66 65.62 29.13"/><g class="cls-3"><path class="cls-4" d="M65.1,22.74l-.13-.1c-.09.11-.17.23-.25.35l.18.09a1.45,1.45,0,0,1,.2-.34"/><path class="cls-4" d="M32.67,49.42l0,.18a1.09,1.09,0,0,0,.36,0l0-.17a1.4,1.4,0,0,1-.29,0"/></g><polygon class="cls-4" points="35.64 40.46 35.67 40.62 35.98 40.29 35.64 40.46"/><polygon class="cls-4" points="35.66 41.43 35.69 41.64 36.08 41.23 35.66 41.43"/><polygon class="cls-4" points="35.66 40.88 35.69 41.09 36.08 40.68 35.66 40.88"/><polygon class="cls-4" points="35.69 42.48 35.73 42.68 36.12 42.27 35.69 42.48"/><polygon class="cls-4" points="35.95 44.03 35.99 44.27 36.43 43.8 35.95 44.03"/><g class="cls-3"><path class="cls-4" d="M41.13,32s0-.2-.22,0h0l.07.13.16-.09"/></g><polygon class="cls-4" points="35.64 39.66 35.67 39.78 35.91 39.53 35.64 39.66"/><polygon class="cls-4" points="35.64 39.15 35.67 39.28 35.91 39.03 35.64 39.15"/><polygon class="cls-4" points="35.64 40.04 35.67 40.2 35.98 39.88 35.64 40.04"/><polygon class="cls-4" points="44.82 49.46 44.98 49.49 45.14 49.16 44.82 49.46"/><polygon class="cls-4" points="42.75 49.4 42.95 49.44 43.16 49.01 42.75 49.4"/><polygon class="cls-4" points="45.66 49.47 45.79 49.49 45.92 49.23 45.66 49.47"/><polygon class="cls-4" points="33.44 50.56 32.85 52.07 34.44 50.43 33.44 50.56"/><polygon class="cls-4" points="46.92 49.89 47.05 49.91 47.17 49.64 46.92 49.89"/><polygon class="cls-4" points="34.6 51.72 34.73 50.73 33.07 52.31 34.6 51.72"/><polygon class="cls-4" points="47.26 50.01 47.39 50.03 47.51 49.77 47.26 50.01"/><polygon class="cls-4" points="35.69 41.97 35.73 42.18 36.12 41.77 35.69 41.97"/><polygon class="cls-4" points="46.86 21.89 47.12 22.13 46.99 21.87 46.86 21.89"/><polygon class="cls-4" points="45.6 22.31 45.85 22.55 45.73 22.28 45.6 22.31"/><polygon class="cls-4" points="43.73 22.33 44.14 22.71 43.94 22.3 43.73 22.33"/><g class="cls-3"><path class="cls-4" d="M33.67,22.63l-.14.11a1.08,1.08,0,0,1,.21.34l.17-.1c-.07-.12-.16-.23-.24-.35"/><path class="cls-4" d="M57.1,26.8l-.18.17.21.15.2-.16-.22-.16"/><path class="cls-4" d="M53.67,31.73c.18-.08,0-.12,0-.12a2.84,2.84,0,0,0-2.81,1.71,4.24,4.24,0,0,1,2.8-1.59"/></g><polygon class="cls-4" points="44.75 22.31 45.08 22.61 44.92 22.28 44.75 22.31"/><g class="cls-3"><path class="cls-4" d="M57.5,27.08l-.22.16.29.24.22-.16-.29-.24"/></g><polygon class="cls-4" points="35.7 29.36 36.13 29.57 35.73 29.16 35.7 29.36"/><polygon class="cls-4" points="35.65 31.8 35.98 31.95 35.68 31.64 35.65 31.8"/><polygon class="cls-4" points="35.65 32.18 35.92 32.31 35.68 32.06 35.65 32.18"/><polygon class="cls-4" points="35.65 31.38 35.98 31.54 35.68 31.22 35.65 31.38"/><polygon class="cls-4" points="33.06 19.48 34.72 21.07 34.58 20.07 33.06 19.48"/><polygon class="cls-4" points="33.41 21.23 34.41 21.36 32.82 19.7 33.41 21.23"/><polygon class="cls-4" points="42.68 22.37 43.1 22.76 42.88 22.33 42.68 22.37"/><polygon class="cls-4" points="35.7 29.86 36.12 30.06 35.73 29.66 35.7 29.86"/><polygon class="cls-4" points="45.17 22.31 45.5 22.61 45.34 22.28 45.17 22.31"/><g class="cls-3"><path class="cls-4" d="M46.47,42.56c.16.24.57-.39.61-.57s0-.22,0-.22a.24.24,0,0,1-.24.07c-.13-.06-.55.49-.4.72"/><path class="cls-4" d="M44,41.74c-.13.1.12,1.14.51,1s-.07-.87-.2-1.11a.28.28,0,0,1-.24-.2s.08.2-.06.3"/><path class="cls-4" d="M41.55,42.13c.4-.24-.58-1.59-.81-1.52s-.47-.29-.47-.29a.47.47,0,0,1-.06.51c.21.47,1,1.54,1.35,1.3"/><path class="cls-4" d="M32.47,22.4l-.07-.18a.94.94,0,0,0-.22.12l.08.15a.72.72,0,0,1,.2-.09"/><path class="cls-4" d="M32,22.45c-.26.05-.42,1.37.06,1.55.8.31,1-.32.87-.61s-.11-.44-.5-.22a.37.37,0,0,0-.13.5v0c-.18.07-.24-.14-.24-.14-.2-.41-.2-.75,0-1Z"/></g><polygon class="cls-4" points="64.08 51.71 65.6 52.31 63.94 50.73 64.08 51.71"/><g class="cls-3"><path class="cls-4" d="M63.72,51.9l-.12-1.47-.3-.32a.78.78,0,0,1,.09-.21h0l.23-.11.32.31,1.48.11,1,2.67h0Zm-.81-2.19c-.15-.13,0-.28,0-.28s.16-.17.29,0-.17.42-.31.3m-.51-.48-3.95-4.08.28-.09,4,3.84-.37,0Zm-3.72,0s-.63-.66-.57-.85.07-.08.21-.21a4.18,4.18,0,0,1,.51.52c0,.07.2,0,.18-.15a4.19,4.19,0,0,0-.54-.49l.2-.19a2.2,2.2,0,0,1,.53.48s.23.05.19-.24a4.34,4.34,0,0,0-.54-.42,2.11,2.11,0,0,0,.19-.23,2.14,2.14,0,0,1,.49.41s.14,0,.1-.2-.3-.32-.45-.38a3.14,3.14,0,0,0,.18-.31.7.7,0,0,1,.59.63,2,2,0,0,1-1.26,1.63m-5.92.57a4.54,4.54,0,0,0-1.32.25l-.24-.22.13.26h0l-.23.09-.2-.18.1.23a2.16,2.16,0,0,0-1.31,2.29A1.59,1.59,0,0,1,50,50.67a3.81,3.81,0,0,1,2.35-1.37l.1.2.13,0-.21-.21a7.11,7.11,0,0,1,1-.13l.63,0,.19.39.2,0L54,49.09c.18,0,.34,0,.51,0l.55,0,.2.41.2,0-.4-.38,1-.09.21.43.23,0-.41-.38.48-.07.21.41.24,0-.4-.37a5.07,5.07,0,0,0,.54-.09l.2.44.24,0-.42-.41a3.08,3.08,0,0,0,.69-.32,1.61,1.61,0,0,0,.56.84,19,19,0,0,1-5.63.48m5-5.47c0,.1.28.27.44.37l-.41.36c-.11-.12-.28-.34-.34-.41s-.23,0-.2.12.25.29.4.42c-.15.11-.3.23-.47.34a5.74,5.74,0,0,0-.36-.5c-.1,0-.18,0-.15.18s.2.32.34.44l-.5.32c-.13-.15-.29-.46-.34-.51s-.25-.08-.18.14a2,2,0,0,0,.35.47l-.58.31a6.48,6.48,0,0,1-.34-.56c-.06-.06-.19-.05-.17.11a1.9,1.9,0,0,0,.34.54l-.55.26c-.11-.2-.26-.54-.31-.61a.13.13,0,0,0-.18,0,.16.16,0,0,0-.06.08,2.73,2.73,0,0,0,.34.65L54.3,47A2.8,2.8,0,0,0,54,46.4c-.12-.12-.2.11-.2.11l.33.58c-.24.09-.48.18-.73.25a4.92,4.92,0,0,1-.21-.65c-.06-.11-.3-.21-.26.05a3.48,3.48,0,0,0,.25.68l-.6.18c-.11-.24-.24-.67-.27-.73s-.26-.34-.24,0a3.91,3.91,0,0,0,.3.83l-.54.14a8.9,8.9,0,0,1-.38-1.31.11.11,0,0,0-.15-.06l0,0a4.39,4.39,0,0,0,.38,1.39l-.37.08a5.42,5.42,0,0,1-.53-2s-.23-.12-.26,0A11,11,0,0,0,51,48a5.61,5.61,0,0,1-.31-5.06l.15-.08a9.11,9.11,0,0,0-.29,2.45l.21-.38A15.45,15.45,0,0,1,51,42.75a2,2,0,0,1,.48-.09,8.6,8.6,0,0,0-.18,2.15l.16-.06s.08-1.59.19-2.1a4,4,0,0,1,.6.05,14,14,0,0,0-.11,1.95c.09.2.2,0,.2,0a18,18,0,0,1,0-1.87,3.37,3.37,0,0,1,.46.14l.16,0c0,.51,0,1,.11,1.54,0,0,.21.18.17-.07s-.09-1.17-.09-1.42a4.46,4.46,0,0,0,.63,0c.08.34.22,1.23.22,1.23s.2.09.2-.06S54.09,43.33,54,43c.19,0,.37,0,.57,0,.11.27.33.95.33.95s.26.12.21-.11a5.07,5.07,0,0,0-.37-.86l.62-.14a8.41,8.41,0,0,1,.41.76c.11.06.2,0,.18-.13a3.2,3.2,0,0,0-.42-.68c.19-.06.39-.13.58-.21.11.14.34.4.35.55s.26,0,.18-.12-.21-.31-.35-.5a5.07,5.07,0,0,0,.61-.32,4.34,4.34,0,0,1,.28.46c.35.07,0-.38-.11-.55l.45-.32.29.36h0l0,0,0-.06A5.49,5.49,0,0,0,60,39.14c.74-2,.35.58.35.58l0,0s0,.07.25,0a1.32,1.32,0,0,0,.54-.24c0,.2-.08.4-.13.61a1.67,1.67,0,0,1-.58.2s-.43.13-.09.18a1,1,0,0,0,.63-.2c0,.19-.11.38-.18.59a3,3,0,0,1-.45.18s-.71.08-.27.2a.74.74,0,0,0,.65-.18,6,6,0,0,1-.27.63,5.2,5.2,0,0,1-.69.07c-.08,0-.13.1,0,.2s.39,0,.58-.07l-.25.47a1.6,1.6,0,0,1-.49,0s-.26.06-.18.18.38,0,.59,0l-.23.37c-.19,0-.51,0-.57,0s-.18.05-.11.14.35.07.55.07l-.22.31c-.21,0-.55-.13-.61-.14s-.21,0-.16.14.43.16.64.16L59,44a2.07,2.07,0,0,1-.52-.2c-.05,0-.32-.11-.2.08s.39.22.59.26a6.09,6.09,0,0,1-.44.44c-.14-.09-.35-.32-.43-.36s-.17,0-.16.12m-7.62,4.6A4.69,4.69,0,0,1,49.36,46s-.08-.19-.13.09a7.3,7.3,0,0,0,.69,3A.67.67,0,0,1,49,49c-.4-.5-1.54-5.31.21-8.67,0,0,.13-.18,0,.16a6.47,6.47,0,0,0-.41,2.1s.48-2.66,1-2.34a.62.62,0,0,1,.59.64v0s-.29-.79-.65.48a10.8,10.8,0,0,0-.24,3.1s.21-3.5.42-2.56c0,0-.48,4.46.33,6.65,0,0,.08.26.31,0,0,0-.13.56-.36.35m-.64-10c.08.26-.19.66-.19.66a.87.87,0,0,1-.25-.67.79.79,0,0,1-.58.35,5.45,5.45,0,0,0,.82-1.61v0h0l0,0a4.93,4.93,0,0,0,.68,1.65.81.81,0,0,1-.51-.33M44.26,40.5c-3-.31-4.45-1.59-4.89-2.57a7.28,7.28,0,0,0,2,1.47A10.74,10.74,0,0,1,40,37.91a2.43,2.43,0,0,1,.3-.34A5.58,5.58,0,0,0,42.81,39c-.05.11-.08.23,0,.27s0,.1.07.1.14-.18.16-.33l.44.07c-.06.16-.13.37,0,.39s.15-.22.16-.38a3.62,3.62,0,0,0,.47,0c-.05.2-.1.53.09.48s.13-.31.09-.49l.3,0a1.38,1.38,0,0,0,.2,0c0,.19,0,.6.21.51s0-.38,0-.54a3.23,3.23,0,0,0,.51-.14c.06.2.2.48.32.35s0-.29-.14-.42a3.3,3.3,0,0,0,1.87-2,1.86,1.86,0,0,1-.78,1.73s.73-.15,1.43-1.6c0,0,.43-.52.72.19s-1.6,3.65-4.59,3.35m-1.39.16v-.12a7.26,7.26,0,0,0,2.17.27,8,8,0,0,1-2.18-.13m-.1,0a3.59,3.59,0,0,1-.52-.13v-.16a4.64,4.64,0,0,0,.53.16Zm-.66-.17-.46-.17,0-.18a4.49,4.49,0,0,0,.44.17Zm-.56-.21-.43-.2,0-.18.41.21ZM41,40l-.39-.24v-.17l.41.23Zm-.51-.33-.36-.29,0-.11.36.24ZM40,39.28a3.25,3.25,0,0,1-.41-.42s.15.13.43.34Zm6.4,7s.72.54-.41.92h0a1,1,0,0,0,.08-.38c0-.23-.17,0-.17,0l-.13.33L45.47,47l.14-.3c0-.26-.21,0-.21,0l-.1.28-.39-.13.11-.24c-.06-.19-.18,0-.18,0l-.13.21a2.15,2.15,0,0,0-.27-.1.33.33,0,0,0,.05-.22c0-.14-.13,0-.13,0l-.13.18L44,46.52a.39.39,0,0,0,.06-.15c0-.11-.11,0-.11,0l-.09.14a10.12,10.12,0,0,1-4.67-3.67s-.16-.44.2-.15a15.38,15.38,0,0,0,1.42,1.56,1.2,1.2,0,0,0,.24-.15,9.17,9.17,0,0,1-3-5.57,6.12,6.12,0,0,1,1.76-5.38l-.17-.17a8,8,0,0,0-1.94,2.35,6.46,6.46,0,0,1,3.21-3.71,1,1,0,0,1,.59.43s.17.12.08-.17a.83.83,0,0,0-.48-.36,4.93,4.93,0,0,1,.53-.22,1,1,0,0,1,.54.42s.17.12.08-.18a.73.73,0,0,0-.41-.32,4,4,0,0,1,.49-.15,1,1,0,0,1,.53.51s.16.14.1-.16-.23-.32-.41-.41l.47-.1a1.06,1.06,0,0,1,.43.46s.15.15.1-.16a.65.65,0,0,0-.29-.34l.51-.07a1.16,1.16,0,0,1,.4.45s.15.14.09-.16a.57.57,0,0,0-.24-.31l.46,0a1,1,0,0,1,.43.51s.13.17.11-.14a.67.67,0,0,0-.26-.38,4.25,4.25,0,0,1,.61.08,1.19,1.19,0,0,1,.28.42s.13.17.11-.14a.4.4,0,0,0-.09-.21l.51.16a1,1,0,0,1,.17.44s.09.17.12-.1a.31.31,0,0,0-.06-.23,4.72,4.72,0,0,1,2.73,3.46s-.36.39-.67.23-.36-1.94-3-2.67c0,0,2.28,1,2.39,2.55l-.32-.27s-1.27-3.22-5.33-1.63a6,6,0,0,0-2.88,2.67s-3.12,8,7.17,10.77m-.85-.87s-1.09.26-3.51-1.6a7.62,7.62,0,0,1,3.51,1.6M42.8,42l2.67,2.78A4.51,4.51,0,0,1,42.8,42m3-.21-.07,2.79a2.45,2.45,0,0,1,.07-2.79m1.66,4.08a9,9,0,0,1,0,2.07c-.29-.12-.43-.26-.54-1a1,1,0,0,1,.54-1m-11.2,3.38,0-.35,0,0h0v0l0,0-.35,0,4.21-4.06.11.28Zm3.2-2h0a.91.91,0,0,0-.55.41.14.14,0,0,0,.08.19h0a2,2,0,0,1,.5-.41.21.21,0,0,1,.11,0l.07.1a.29.29,0,0,1,0,.13,3.93,3.93,0,0,0-.55.44c0,.27.21.23.21.23a2.32,2.32,0,0,1,.57-.51l.06,0,.16.15,0,0a3,3,0,0,0-.57.5c0,.2.18.22.18.15a4.41,4.41,0,0,1,.53-.53l.05,0a1.1,1.1,0,0,1,.28.29c.06.19-.56.79-.56.79a2.07,2.07,0,0,1-1.31-1.63.71.71,0,0,1,.59-.63,3.21,3.21,0,0,0,.19.31m2.08,1.57-.41.38.24,0,.2-.4.53.1-.38.34.25.05.18-.39.46.07-.39.37.25,0,.2-.41c.28,0,.61.07,1,.09l-.39.36.21,0,.2-.41.53,0-.38.36.2,0,.21-.4.5,0-.36.33.2,0,.18-.36.59,0,.23,0-.3.29.16,0,.15-.32c.29,0,.55.08.79.12l-.18.18.13,0,.09-.18a3.71,3.71,0,0,1,2.3,1.36A1.61,1.61,0,0,1,49,52.47a2.19,2.19,0,0,0-1.3-2.29l.13-.26-.23.22a4.43,4.43,0,0,0-1.67-.39,18.75,18.75,0,0,1-5.61-.48,1.53,1.53,0,0,0,.54-.8,2.56,2.56,0,0,0,.71.28m-5.78.94c-.16.14-.44-.15-.3-.3s.28,0,.28,0,.16.16,0,.28m-.69.72L35,51.89,32.2,53l1.06-2.75,1.48-.12.33-.3a.75.75,0,0,1,.2.1h0a.94.94,0,0,1,.12.22Zm2.59-4A2.06,2.06,0,0,1,36,45.12s.63-.64.81-.58a.77.77,0,0,1,.28.26l0,.05a3.78,3.78,0,0,1-.53.53c-.07,0,0,.2.16.18a4.63,4.63,0,0,0,.5-.58l0,0c0,.05.1.1.14.16l0,.07a2.85,2.85,0,0,1-.51.57s0,.23.23.18a3.75,3.75,0,0,0,.44-.53h.13l.1.09a.1.1,0,0,1,0,.09,1.6,1.6,0,0,1-.4.49.15.15,0,0,0,.18.11h0a.88.88,0,0,0,.41-.55h0a1.85,1.85,0,0,0,.33.21.72.72,0,0,1-.64.58m-2.25-7.1a4.6,4.6,0,0,0-.12-.84l.21-.21-.22.1c0-.08,0-.17-.08-.26l.17-.18-.2.1a2.77,2.77,0,0,0-.1-.26l.13-.13-.16.08a2.19,2.19,0,0,0-2.36-1.45,1.6,1.6,0,0,1,1.82.27,4.23,4.23,0,0,1,1.53,3.36c0,.28,0,.54.05.78,0,.84.1,1.51.16,2l-.46.23,0,.24.42-.45c0,.17.05.34.08.49l-.46.22,0,.24.41-.44a2.94,2.94,0,0,0,.33,1,1.48,1.48,0,0,0-.74.52,16.74,16.74,0,0,1-.51-5.48m2.77,2.3-.06-.08.23-.18c.07.13.14.26.22.38s-.14.15-.39-.12m-.27-.49.25-.18a1.66,1.66,0,0,0,.13.27l-.26.15a1.78,1.78,0,0,1-.12-.24m-.15-.36.25-.16.09.21-.26.14c0-.06-.05-.12-.08-.19m-.13-.37.26-.15c0,.07,0,.15.08.23l-.25.17-.09-.25m-.1-.38.25-.12.06.21-.25.12Zm-.1-.4.25-.09a2,2,0,0,1,.06.23l-.25.1a2.1,2.1,0,0,1-.06-.24m-.09-.46.26-.09a2.93,2.93,0,0,0,0,.29l-.25.11-.06-.31m-.05-.44.25-.1a2.77,2.77,0,0,0,0,.3l-.25.07,0-.27m0-.4.25-.11a1,1,0,0,0,0,.24l-.25.1a.9.9,0,0,0,0-.23m0-.38s.05-.31.24-.08v.19l-.24.07v-.18m.2-4.88a1.42,1.42,0,0,1,.36-.14c-.11.29-.21.66-.34,1.15a5,5,0,0,1,0-1m.07-.73a1.66,1.66,0,0,1,.69-.27,2.41,2.41,0,0,0-.3.6,1.22,1.22,0,0,0-.45.24c0-.17,0-.36.06-.56m2.85-2.17.37-.49A2.1,2.1,0,0,0,41,30a5.22,5.22,0,0,0-.43.39,1.59,1.59,0,0,1-.2-.24m-.34.92a4.64,4.64,0,0,0-.43.79s-.24-.08.24-.92l.19.13M40,30.78l.3-.45.21.19a4.82,4.82,0,0,0-.35.44l-.17-.18m2.53-.66a6.71,6.71,0,0,1,3.64.08,1.25,1.25,0,0,1-.22.41,6.25,6.25,0,0,0-5.24.49c3-3.61,7.32-.86,7.32-.86a1.63,1.63,0,0,0,0,.66c-3.25-2.26-5.52-.77-5.52-.77m5,.84a2.9,2.9,0,0,1,.54.62c-.23-.14-.44-.27-.66-.38Zm-.38-.29c.11.08.21.15.3.23l-.1.27L46.9,31Zm-.68.1L46,30.65l.17-.42.34.14a2.83,2.83,0,0,1-.14.41m.25-.35a2,2,0,0,1,.34.2l-.13.35-.33-.14Zm-8.94,1.09a1.79,1.79,0,0,1,.59-.2s.42-.13.08-.19a1,1,0,0,0-.62.21,5.71,5.71,0,0,1,.19-.59,2.05,2.05,0,0,1,.43-.18s.72-.08.29-.21a.82.82,0,0,0-.66.18l.26-.63c.26-.06.64,0,.7-.06s.13-.1,0-.2-.38,0-.58.07l.25-.47a1.34,1.34,0,0,1,.49.05s.27-.08.18-.18-.38,0-.59,0l.24-.38c.18,0,.51,0,.56,0s.18-.05.11-.14-.34-.08-.54-.08a2.77,2.77,0,0,1,.22-.29,4.42,4.42,0,0,1,.61.13c.07,0,.2.05.16-.13s-.42-.17-.64-.17c.11-.15.24-.28.36-.42a1.87,1.87,0,0,1,.51.2c.06,0,.33.11.21-.08s-.4-.23-.59-.26a4.47,4.47,0,0,1,.43-.44c.15.08.35.32.44.36s.17,0,.15-.13-.27-.27-.44-.37l.41-.35a4.71,4.71,0,0,1,.35.41c.08.1.22,0,.2-.11s-.25-.31-.41-.42a4.21,4.21,0,0,1,.48-.35,2.87,2.87,0,0,0,.36.5c.09,0,.18,0,.15-.18a1.34,1.34,0,0,0-.34-.44l.5-.32c.13.15.28.46.33.51s.25.08.18-.14a1.45,1.45,0,0,0-.34-.47c.18-.11.37-.21.57-.31.13.15.3.5.35.55s.18.06.17-.1a2,2,0,0,0-.34-.55l.55-.26c.11.21.25.54.31.61a.13.13,0,0,0,.18,0,.41.41,0,0,0,0-.09,2.79,2.79,0,0,0-.33-.65l.58-.24a3.11,3.11,0,0,0,.32.63c.12.12.19-.12.19-.12l-.33-.58c.23-.09.47-.17.73-.25a6.56,6.56,0,0,1,.21.65c0,.09.3.22.26-.05a3.21,3.21,0,0,0-.26-.67l.6-.18a6.46,6.46,0,0,1,.28.73c0,.1.26.33.23.05a3.63,3.63,0,0,0-.29-.84l.54-.13a8,8,0,0,1,.38,1.31.12.12,0,0,0,.15.06l0,0a4.31,4.31,0,0,0-.37-1.39l.37-.08a5.62,5.62,0,0,1,.54,2s.22.12.25,0a11.31,11.31,0,0,0-.52-2A5.61,5.61,0,0,1,48,28.7l-.15.09a9,9,0,0,0,.29-2.44l-.21.38a16.86,16.86,0,0,1-.28,2.15,2,2,0,0,1-.49.09,8.73,8.73,0,0,0,.19-2.16l-.18.07S47.13,28.46,47,29a3.05,3.05,0,0,1-.6-.06,13.88,13.88,0,0,0,.11-2c-.1-.2-.2.05-.2.05a15.54,15.54,0,0,1,0,1.87,2.42,2.42,0,0,1-.46-.13l-.16-.05c0-.37-.11-1.54-.11-1.54s-.21-.17-.17.07.09,1.17.1,1.43a3.39,3.39,0,0,0-.64-.06c-.08-.34-.22-1.23-.22-1.23s-.2-.08-.2.07.18.85.25,1.16l-.57.05c-.12-.27-.33-.95-.33-.95s-.26-.11-.21.12a6.55,6.55,0,0,0,.37.86c-.21,0-.42.08-.63.14-.13-.2-.41-.77-.41-.77s-.2,0-.18.14a3.79,3.79,0,0,0,.42.67,5.54,5.54,0,0,0-.57.21,1.79,1.79,0,0,1-.37-.54c0-.21-.24,0-.16.11s.2.32.34.51c-.2.09-.41.2-.61.31A2.69,2.69,0,0,1,41.5,29c-.35-.06,0,.39.11.56-.15.1-.31.2-.45.31l-.3-.36h0l0,0,0,.06a5.54,5.54,0,0,0-2.06,2.92c-.74,2-.35-.57-.35-.57h0s-.05-.06-.25,0a1.1,1.1,0,0,0-.54.24,5.61,5.61,0,0,1,.13-.61m-1.77-8.63.35,0,0,0v0h0v0l0-.34,3.95,4.08-.28.09ZM38,26a1,1,0,0,0-.38-.46.16.16,0,0,0-.2.07s0,0,0,0a1.64,1.64,0,0,1,.41.5l-.23.18a3.09,3.09,0,0,0-.43-.54c-.28,0-.23.2-.23.2a2,2,0,0,1,.47.53c-.07.06-.13.13-.2.2a6.22,6.22,0,0,0-.46-.56c-.21,0-.23.19-.16.19a3,3,0,0,1,.51.49c-.15.18-.25.31-.32.33s-.73-.51-.73-.51a2.24,2.24,0,0,1,1.56-1.36.72.72,0,0,1,.64.58A2.32,2.32,0,0,0,38,26m-1.59,2-.4-.44,0,.24.46.22a4.87,4.87,0,0,0-.12.52l-.38-.4-.05.23.41.21q0,.21-.06.48l-.39-.41,0,.24.42.2c0,.28-.07.61-.09,1,0,.18,0,.36,0,.55l-.37-.42,0,.21.41.2a4.38,4.38,0,0,1,0,.5l-.33-.37,0,.2.38.18c0,.24,0,.49,0,.76a8.85,8.85,0,0,1-.12.88l-.2-.21,0,.13.22.11a3.81,3.81,0,0,1-1.4,2.45,1.64,1.64,0,0,1-1.83.27A2.22,2.22,0,0,0,35,34.08l.2.09L35.06,34l.09-.24.24.11-.21-.21c0-.09,0-.17.07-.25l.26.13-.23-.24a5.06,5.06,0,0,0,.11-.86,19,19,0,0,1,.48-5.62,1.7,1.7,0,0,0,.8.55,3.51,3.51,0,0,0-.24.61m-.69-5.65s-.17.17-.29,0,.15-.43.31-.29a.16.16,0,0,1,0,.27m-.47-.47h0a.94.94,0,0,1-.22.12l-.33-.31-1.48-.11-1-2.66h0l2.67,1,.12,1.48.3.32a.58.58,0,0,1-.1.21m4.72.7s.62.67.56.84-.06.08-.2.21a3.14,3.14,0,0,1-.52-.51c0-.07-.2-.05-.18.15a4.11,4.11,0,0,0,.55.48c0,.06-.13.12-.2.19a2.57,2.57,0,0,1-.52-.47s-.23,0-.21.23a4.43,4.43,0,0,0,.54.43l-.18.21a1.57,1.57,0,0,1-.49-.39.15.15,0,0,0-.1.2c0,.14.3.32.45.38a3.21,3.21,0,0,0-.19.31.73.73,0,0,1-.59-.63A2,2,0,0,1,40,22.6m5.9-.57a5.39,5.39,0,0,0,1.33-.25l.25.22-.14-.27h0l.24-.08.2.19-.11-.23A2.21,2.21,0,0,0,49,19.3a1.61,1.61,0,0,1-.28,1.82,3.84,3.84,0,0,1-2.34,1.38l-.1-.22-.13,0,.2.19a6.82,6.82,0,0,1-1,.14l-.63,0-.19-.39-.21,0,.38.35-.51,0-.54,0-.2-.42-.21,0,.41.38-1,.09-.2-.42-.23,0,.4.38-.48.06-.2-.41-.24.05.39.37-.53.1-.2-.43-.24,0,.43.4a2.59,2.59,0,0,0-.72.32,1.67,1.67,0,0,0-.56-.84A19.26,19.26,0,0,1,45.88,22m2.63.7a4.69,4.69,0,0,1,.81,2.87s.1.21.15-.08a7.52,7.52,0,0,0-.68-3,.65.65,0,0,1,.9.16,11.62,11.62,0,0,1-.21,8.67s-.13.18,0-.16a6.23,6.23,0,0,0,.41-2.11s-.49,2.67-1,2.35a.63.63,0,0,1-.59-.66h0s.29.78.66-.49a11,11,0,0,0,.23-3.09s-.22,3.49-.42,2.56c0,0,.48-4.48-.32-6.66,0,0-.08-.26-.32,0,0,0,.13-.56.36-.35m.67,10a1.88,1.88,0,0,1,.2-.7s.13.09.24.69a.85.85,0,0,1,.61-.29,3.84,3.84,0,0,0-.8,1.61h0a5.64,5.64,0,0,0-.74-1.61.72.72,0,0,1,.52.3m5.25-1.62c3,.31,4.45,1.58,4.89,2.56a7.31,7.31,0,0,0-2-1.46,11.27,11.27,0,0,1,1.45,1.48,1.67,1.67,0,0,1-.31.34,5.53,5.53,0,0,0-2.56-1.46c.06-.11.09-.23,0-.27s0-.1-.08-.1-.13.18-.15.33l-.44-.07c.06-.16.13-.37,0-.38s-.15.21-.16.37a3.68,3.68,0,0,0-.47,0c0-.2.09-.54-.09-.49s-.14.31-.09.5l-.3,0-.2,0c0-.2,0-.6-.21-.5s0,.37,0,.53a4.84,4.84,0,0,0-.51.14c-.07-.19-.21-.49-.33-.36s0,.3.14.43a3.26,3.26,0,0,0-1.86,2S51,34,52,33.09c0,0-.73.15-1.43,1.59,0,0-.44.52-.71-.2s1.59-3.65,4.58-3.34M55.84,31v.12a7.62,7.62,0,0,0-2.18-.26,7.58,7.58,0,0,1,2.18.14m.1,0a4.94,4.94,0,0,1,.52.13v.17a5.25,5.25,0,0,0-.52-.17Zm.67.18.45.17,0,.18-.44-.18Zm.56.2.42.21,0,.18-.41-.21Zm.52.27.39.23,0,.18a3.76,3.76,0,0,0-.41-.23Zm.51.32.36.29,0,.11-.36-.24Zm.46.39a3.25,3.25,0,0,1,.41.42c-.14-.11-.28-.22-.43-.32Zm-5.88,1.93c.13,0,0,.18,0,.18-1,0-1.09.58-1.09.58L51.57,35a1.09,1.09,0,0,1,1.21-.69m1.81-.5s-.25.66-.68.73c0,0,0-.84.68-.73m-2.24,1a.87.87,0,0,1,1,.09c.08.16.17.15.24.11a2.92,2.92,0,0,1-.38.32,8.14,8.14,0,0,0-.85,1c.23-.93-.33-1.11-.33-1.11.44-.24.73.26.73.26.13-.65-.37-.68-.37-.68m5.24,2.14c.46.15.33.84-.28.61s-1-.45-.63.3-.57.36-.57.36c-1.8-.85-1.38-.06-1.08.35s-.9.16-.9.16a2.76,2.76,0,0,0-1.35-.85,3,3,0,0,1-1.46-1l.07,0a2.86,2.86,0,0,0,1.37.56,2.57,2.57,0,0,1,1.63,1,1.55,1.55,0,0,0-.81-1,3,3,0,0,1,2.62.39L55.27,37s.9-.72,1.24-.41a3.09,3.09,0,0,0,.78.51s-.9-.72-.58-.81.89-.46,1.39-.33a1.78,1.78,0,0,0-1.48.08,3.74,3.74,0,0,1,.13-.88,3.71,3.71,0,0,0-.44.95,12.66,12.66,0,0,0-1.38.61l0,0,0,0a2.32,2.32,0,0,0,.45-1.61S55,37,53.59,37a3.08,3.08,0,0,0,.15-1.16s-.21,1.81-2.18.83l.09,0c1.16.12,1,0,1.7-1s.69-.19.79.17.63.18.68-.65,1.19-.93,1-.37.13,1.33.36.45.93-.74.93-.74-.24,1.33.5.89,1.09.45,1.09.45a.79.79,0,0,1-.65.61c-.65-.32-1,.2-.48.36m1.18-1.63a1.21,1.21,0,0,0-1.23-.36c-.17-1.41-1.37-.34-1.37-.34-1-1.29-1.75.6-1.75.6-.22-.56-.56-.44-.82-.24a.64.64,0,0,0,.1-.13,1.34,1.34,0,0,0,1.17-1.17,1.5,1.5,0,0,0-1.74,0c.21,0,.55.64.48,1s-.25,0-.25,0c-.48-1.45-.63-.54-.63-.54-.83.14-.21-.61-.21-.61a4.51,4.51,0,0,1,6.24,1.8M59,34.18c0,.17,0,.31-.11.39l-.13-.17a1.7,1.7,0,0,0,.24-.22m-.29.15a1.25,1.25,0,0,1-.17-.16,1.72,1.72,0,0,0,.31-.29,1,1,0,0,1,.1.18,3,3,0,0,1-.24.28m-12.79,3c-.13,0,0-.19,0-.19,1,.05,1.09-.57,1.09-.57l.17.07a1.09,1.09,0,0,1-1.22.69m-1.81.5s.26-.66.68-.72c0,0,0,.83-.68.72m2.25-1a.88.88,0,0,1-1-.1c-.08-.15-.18-.15-.24-.1.18-.15.32-.33.37-.33a7.47,7.47,0,0,0,.85-1c-.22.92.34,1.11.34,1.11-.45.25-.73-.26-.73-.26-.14.65.37.69.37.69m-5.24-2.15c-.46-.14-.33-.83.28-.61s1,.45.63-.29.57-.37.57-.37c1.81.85,1.38.06,1.08-.35s.89-.16.89-.16a2.8,2.8,0,0,0,1.37.84,3.09,3.09,0,0,1,1.46,1l-.08,0a2.77,2.77,0,0,0-1.37-.55,2.57,2.57,0,0,1-1.62-1,1.56,1.56,0,0,0,.8,1,3,3,0,0,1-2.61-.4l.92.76s-.9.72-1.22.41a2.92,2.92,0,0,0-.79-.52s.89.73.59.81-.9.47-1.41.34a1.8,1.8,0,0,0,1.49-.08,3.66,3.66,0,0,1-.13.87,4,4,0,0,0,.44-.94,14.19,14.19,0,0,0,1.38-.62s0,0,0,0h0a2.24,2.24,0,0,0-.44,1.62s.39-1.91,1.78-1.91A3,3,0,0,0,45,35.76s.21-1.81,2.18-.84l-.09,0c-1.16-.1-1,0-1.69,1s-.7.18-.8-.17-.63-.18-.67.64-1.2.94-1,.38-.13-1.34-.37-.45-.92.74-.92.74.24-1.35-.51-.89-1.1-.44-1.1-.44a.8.8,0,0,1,.65-.63c.65.33.95-.2.48-.36m-1.18,1.65a1.22,1.22,0,0,0,1.23.35c.17,1.4,1.37.33,1.37.33,1,1.3,1.75-.6,1.75-.6.22.56.55.45.82.25a.52.52,0,0,0-.1.11A1.35,1.35,0,0,0,43.83,38a1.49,1.49,0,0,0,1.73,0c-.2,0-.54-.64-.47-1s.25,0,.25,0c.48,1.45.63.54.63.54.83-.13.2.63.2.63a4.55,4.55,0,0,1-6.26-1.81m-.23,1.07a.3.3,0,0,1,.11-.39l.13.17a1.7,1.7,0,0,0-.24.22M40,37.3l.15.17a2.76,2.76,0,0,0-.29.3,1.62,1.62,0,0,1-.1-.18L40,37.3m9.32-.86c-.24,0-2.28.15-2.47-.41a1,1,0,0,1,.45-.14v-.18a.43.43,0,0,1-.41-.2c-.11-.24.78-.31,2.44-.32h0s2.3-.18,2.49.42a1,1,0,0,1-.44.14v.18a.43.43,0,0,1,.41.2c.11.24-.76.31-2.39.33h0Zm9.35,4.11a4,4,0,0,0,.42-.79s.24.09-.25.92l-.17-.13m-.43.56a4.82,4.82,0,0,0,.35-.44l.16.17c-.08.14-.18.28-.3.46a1.8,1.8,0,0,0-.2-.19m-.12.12a1.64,1.64,0,0,1,.21.25c-.11.14-.23.31-.37.48a3.85,3.85,0,0,0-.26-.34,4,4,0,0,0,.43-.39m-6.85-.58a2.84,2.84,0,0,1-.53-.61c.22.14.44.26.65.37Zm.38.3-.3-.22.11-.28.35.17Zm.68-.1.37.14-.16.42-.35-.15.14-.41m-.25.37a2.77,2.77,0,0,1-.34-.2l.12-.36.33.14Zm-1.39-.47c3.25,2.26,5.51.77,5.51.77a6.45,6.45,0,0,1-3.62-.08,1.62,1.62,0,0,1,.22-.41,6.3,6.3,0,0,0,5.24-.49c-2.94,3.61-7.31.87-7.31.87a1.75,1.75,0,0,0,0-.66m1.55-15.37s-.71-.54.42-.92h0a1,1,0,0,0-.08.38c0,.23.17,0,.17,0l.13-.33.31.07-.12.31c0,.26.2,0,.2,0l.11-.28.37.12-.1.24c0,.2.18,0,.18,0l.13-.19.28.1a.25.25,0,0,0-.06.2c0,.14.14.05.14.05l.12-.17a1.09,1.09,0,0,1,.25.1.88.88,0,0,0,0,.15c0,.11.1,0,.1,0l.11-.15a10.39,10.39,0,0,1,4.67,3.68s.15.43-.21.14a16.62,16.62,0,0,0-1.42-1.56l-.24.14a9.3,9.3,0,0,1,3,5.58A6.08,6.08,0,0,1,59,38.54l.16.18a8.37,8.37,0,0,0,1.95-2.36,6.58,6.58,0,0,1-3.23,3.72,1.13,1.13,0,0,1-.59-.44s-.17-.13-.08.17a.83.83,0,0,0,.48.36l-.53.22a1,1,0,0,1-.55-.42s-.17-.12-.07.17a.71.71,0,0,0,.41.33,4,4,0,0,1-.49.15,1.07,1.07,0,0,1-.54-.51s-.15-.15-.09.15.23.32.41.42l-.47.11a1.05,1.05,0,0,1-.44-.47s-.15-.15-.09.15a.58.58,0,0,0,.29.34,4.63,4.63,0,0,1-.52.07,1.08,1.08,0,0,1-.41-.44s-.14-.15-.09.16a.59.59,0,0,0,.24.3c-.15,0-.3,0-.45,0a1.06,1.06,0,0,1-.43-.53s-.13-.16-.11.14a.62.62,0,0,0,.27.38,4.38,4.38,0,0,1-.62-.08,1.19,1.19,0,0,1-.28-.42s-.13-.16-.11.14a.35.35,0,0,0,.1.2,3.8,3.8,0,0,1-.51-.16.9.9,0,0,1-.18-.44s-.08-.17-.12.1a.34.34,0,0,0,.06.24A4.75,4.75,0,0,1,49.6,37s.37-.39.68-.23.36,1.93,3,2.67c0,0-2.28-1-2.4-2.56l.32.3s1.27,3.22,5.34,1.61a5.88,5.88,0,0,0,2.86-2.68s3.12-7.95-7.17-10.77m.85.88s1.09-.25,3.52,1.6a7.8,7.8,0,0,1-3.52-1.6m2.81,3.42-2.68-2.8a4.51,4.51,0,0,1,2.68,2.8m-3,.19L53,27.08a2.47,2.47,0,0,1-.07,2.79m-1.68-4.1a8.87,8.87,0,0,1,0-2.06c.29.12.44.27.55,1a1,1,0,0,1-.55,1m11.16-3.21,0,.34,0,0h0v0l.35,0L58.51,27v0l-.11-.26Zm-3.2,2h0a.91.91,0,0,0,.54-.4.15.15,0,0,0-.1-.2,1.76,1.76,0,0,1-.5.4.12.12,0,0,1-.1,0L59,24.3a.17.17,0,0,1,0-.14,4.43,4.43,0,0,0,.54-.43c0-.29-.2-.24-.2-.24a2.56,2.56,0,0,1-.58.51l-.06,0-.16-.15s0,0,0,0a3.46,3.46,0,0,0,.57-.51c0-.2-.18-.22-.18-.15a3.78,3.78,0,0,1-.53.53l0,0c-.15-.13-.27-.22-.28-.29s.56-.79.56-.79A2.07,2.07,0,0,1,60,24.25a.7.7,0,0,1-.58.64,3.28,3.28,0,0,0-.2-.31M57.1,23l.41-.38-.24,0-.2.41a3.52,3.52,0,0,0-.53-.11l.37-.35-.24,0-.18.38L56,22.83l.38-.36-.24,0-.2.39-1-.08.38-.36-.2,0-.21.39c-.16,0-.34,0-.53,0l.39-.36-.2,0-.19.41-.51,0,.36-.33-.2,0-.18.36-.59,0-.23,0,.31-.29-.16,0-.16.32a5.42,5.42,0,0,1-.79-.13l.18-.16-.13,0-.09.18A3.71,3.71,0,0,1,50,21.12a1.6,1.6,0,0,1-.28-1.81A2.15,2.15,0,0,0,51,21.59l-.13.27.24-.23a4.86,4.86,0,0,0,1.67.4,18.6,18.6,0,0,1,5.61.47,1.53,1.53,0,0,0-.54.8,2.56,2.56,0,0,0-.71-.28m5.78-.94c.16-.14.43.16.3.31s-.27,0-.27,0-.18-.15,0-.28m.69-.72.12-1.48,2.77-1.06-1.08,2.77-1.47.11-.33.3a.38.38,0,0,1-.31-.32Zm-2.57,4a2.07,2.07,0,0,1,1.63,1.28s-.63.63-.82.59a1,1,0,0,1-.28-.27l0-.05a3.75,3.75,0,0,1,.53-.52c.07,0,0-.21-.15-.18a3.85,3.85,0,0,0-.51.56.07.07,0,0,1,0,.05l-.14-.17,0-.05s.33-.5.51-.58c0,0,.05-.23-.24-.2a4.43,4.43,0,0,0-.43.54.28.28,0,0,1-.13,0l-.11-.09a.13.13,0,0,1,0-.08,1.64,1.64,0,0,1,.41-.5s0-.15-.21-.1a.89.89,0,0,0-.41.54h0l-.32-.2a.7.7,0,0,1,.63-.59m2.25,7.1a4.82,4.82,0,0,0,.11.85l-.2.2.22-.1a2.5,2.5,0,0,0,.07.26l-.17.18.21-.1.09.26-.12.13.14-.07A2.23,2.23,0,0,0,66,35.53a1.61,1.61,0,0,1-1.82-.28,4.2,4.2,0,0,1-1.53-3.36c0-.28,0-.53-.05-.78l.42-.2,0-.2-.38.4c0-.81-.1-1.49-.17-2l.47-.22v-.24l-.42.45c0-.18,0-.34-.07-.49l.45-.22,0-.24-.41.44a3.1,3.1,0,0,0-.34-1,1.37,1.37,0,0,0,.74-.51,16.74,16.74,0,0,1,.51,5.48M60.54,30l.05.07-.23.18-.22-.38s.14-.15.4.13m.26.48-.24.18c-.05-.08-.08-.18-.13-.27l.26-.15c0,.07.07.15.11.24m.14.36L60.7,31a1.19,1.19,0,0,1-.08-.2l.25-.15a1.07,1.07,0,0,1,.07.19m.13.37-.24.15c0-.08-.06-.15-.08-.23L61,31c0,.08,0,.15.07.24m.12.38-.25.12-.07-.22.26-.12.06.22m.09.41-.25.09c0-.07,0-.15-.06-.23l.24-.11.06.24m.09.46-.26.1c0-.1,0-.2-.05-.3l.25-.11.06.31m0,.43-.25.1a1.67,1.67,0,0,0,0-.29l.26-.07,0,.26m0,.41-.24.1a1.06,1.06,0,0,0,0-.24l.25-.1v.24m0,.37s0,.31-.24.09a.6.6,0,0,0,0-.19l.25-.08v.18m-.19,4.88a2.17,2.17,0,0,1-.35.15c.09-.3.2-.67.33-1.16a6.81,6.81,0,0,1,0,1m-.07.73a1.56,1.56,0,0,1-.68.28,2.77,2.77,0,0,0,.29-.6,1.37,1.37,0,0,0,.45-.23c0,.17,0,.35-.06.55m-.51,6.53c.05.14.26.43.39.46a.15.15,0,0,0,.2-.07v0a1.6,1.6,0,0,1-.41-.49l.22-.18a4.43,4.43,0,0,0,.43.54c.28,0,.23-.21.23-.21a2.28,2.28,0,0,1-.47-.51,1.8,1.8,0,0,0,.19-.21,4.28,4.28,0,0,0,.49.55c.2,0,.22-.19.15-.19a3.45,3.45,0,0,1-.51-.5c.15-.18.26-.3.33-.32s.73.5.73.5a2.22,2.22,0,0,1-1.57,1.36.71.71,0,0,1-.63-.59l.22-.12m1.59-2,.41.44,0-.23-.45-.22c0-.15.08-.33.12-.53l.38.41,0-.24-.4-.2q0-.23.06-.48l.39.41,0-.24-.42-.2c0-.28.06-.61.09-1l.38.4,0-.2-.42-.2c0-.17,0-.35,0-.54l.38.41,0-.2-.4-.21c0-.16,0-.33,0-.5l.34.36,0-.2-.38-.19c0-.24,0-.48.05-.75a8.65,8.65,0,0,1,.11-.89l.21.22,0-.13L62.79,39a3.76,3.76,0,0,1,1.4-2.44A1.59,1.59,0,0,1,66,36.29a2.21,2.21,0,0,0-2.36,1.42l-.2-.1.16.18-.09.24-.24-.12.21.22c0,.08-.05.17-.07.24l-.26-.12.23.24a4.82,4.82,0,0,0-.11.85A19.56,19.56,0,0,1,62.8,45a1.65,1.65,0,0,0-.8-.56,3.51,3.51,0,0,0,.24-.61m4.66,9.59L65.55,50,64,49.86,60.85,46.8a2.85,2.85,0,0,0,2-1.29s.47.16.2-.41c0,0,.61-1.4.47-5s2-3.85,2.56-3.52l.29-.29a1.11,1.11,0,0,0-.82-.36c-1.12,0-2.24.41-2.86,2.68s-.07,3.76-1.06,5.66a2.85,2.85,0,0,1-1.81,1.61l-1.12-1.14.1-.1a9.07,9.07,0,0,0,2.72-8.77,9.54,9.54,0,0,0-2.89-8.78L59.81,26a3.91,3.91,0,0,1,1.91,1.65c.86,2,.37,3.43,1,5.63s1.74,2.65,2.86,2.67a1.16,1.16,0,0,0,.83-.37l-.3-.29c-.56.32-2.69,0-2.56-3.53a13.8,13.8,0,0,0-.43-5c.19-.43-.22-.41-.22-.41a2.94,2.94,0,0,0-2-1.31L64,21.94l1.57-.1,1.37-3.44-3.44,1.35-.1,1.57-3.06,3.12a2.75,2.75,0,0,0-1.28-2s0-.51-.43-.23a14,14,0,0,0-5-.43c-3.62.14-3.88-2-3.55-2.54l-.31-.3a1.17,1.17,0,0,0-.37.84c0,1.11.41,2.22,2.68,2.83s3.84.09,5.74,1.08a3.07,3.07,0,0,1,1.58,1.79l-1.15,1.22,0,0v0a15.54,15.54,0,0,0-6.35-2.84s-.49-.75-.76-.44a6.28,6.28,0,0,0,.07,2.82c.15.07.52-.35.52-.35s.38-.4,1.45.12A2.3,2.3,0,0,0,51.9,26a1.06,1.06,0,0,1,.74.56s-1-.46-1.24.38.93.79.82.16c0,0-.26.41-.51.11s.59-.9.78-.11-.9,1.15-1.37.47a.71.71,0,0,0,.78.73s-1.54,1.1-.76,2a.44.44,0,0,0,.55,0s-1.49-.31.94-2.45l-.41,1,.47-.63s.06,1.82,0,2,1.41-.78.67-2.81a12.12,12.12,0,0,1,.65,1.3l.13-.08a5.41,5.41,0,0,0-.34-.87,30.42,30.42,0,0,0,2.72,2.75,6.75,6.75,0,0,0-1-2.51A6.1,6.1,0,0,1,57,29.38l.13-.12a9.11,9.11,0,0,0-.85-1.05c-.19-.13,2.21.19,3,4.14,0,0-4.81-3.91-8.68-.34,0,0-.41.38-.2-.08a2.25,2.25,0,0,1,1-1,2.11,2.11,0,0,0-1.63,1.29s-.24-.42-.39-.42a1,1,0,0,0-.33.42,3.37,3.37,0,0,0-.38-.55s1,.21,1.21-.39,1.86-5.1-.12-9a1.24,1.24,0,0,0-1.87.88,17.78,17.78,0,0,0-7.5,3.38h0l-1.06-1.1a2.73,2.73,0,0,1,1.61-1.76c1.91-1,3.49-.5,5.7-1.09s2.67-1.73,2.69-2.84A1.21,1.21,0,0,0,49,18.9l-.3.29c.33.58.05,2.69-3.54,2.55a14,14,0,0,0-5.1.46c-.53-.28-.37.2-.37.2a2.78,2.78,0,0,0-1.28,2L35.3,21.33l-.1-1.57L31.76,18.4v0h0l1.34,3.42,1.58.1L37.81,25a2.83,2.83,0,0,0-2,1.29s-.47-.15-.21.41c0,0-.61,1.41-.47,5s-2,3.87-2.57,3.53l-.29.28a1.16,1.16,0,0,0,.83.37c1.12,0,2.25-.41,2.86-2.68S36,29.45,37,27.55a2.85,2.85,0,0,1,1.81-1.61L39.85,27h0a9.09,9.09,0,0,0-2.7,8.77,9.48,9.48,0,0,0,3,8.82l-1.27,1.24a3.86,3.86,0,0,1-1.9-1.65c-.86-2-.37-3.43-1-5.62s-1.74-2.67-2.86-2.68a1.2,1.2,0,0,0-.83.37l.3.29c.56-.32,2.69,0,2.56,3.53a13.4,13.4,0,0,0,.43,5c-.18.44.22.41.22.41a3,3,0,0,0,2,1.31L34.7,49.85l-1.58.1-1.36,3.43L35.21,52l.1-1.57,3.06-3.12a2.81,2.81,0,0,0,1.28,2s0,.51.43.23a14.05,14.05,0,0,0,5,.43c3.62-.13,3.87,2,3.55,2.55l.29.29a1.08,1.08,0,0,0,.36-.83c0-1.11-.41-2.22-2.68-2.83s-3.83-.1-5.74-1.08a3.11,3.11,0,0,1-1.57-1.79L40.57,45h0a15.7,15.7,0,0,0,6.33,2.82s.48.75.75.44a6.29,6.29,0,0,0-.06-2.82c-.15-.07-.52.36-.52.36s-.38.38-1.45-.13a2.34,2.34,0,0,0,1.15-.06,1.11,1.11,0,0,1-.74-.56s1,.45,1.25-.38-.93-.79-.82-.17c0,0,.26-.39.51-.1s-.59.89-.78.1.9-1.15,1.36-.46a.71.71,0,0,0-.77-.73s1.53-1.11.76-2a.44.44,0,0,0-.55,0s1.49.32-.95,2.45l.41-1-.46.61a19.33,19.33,0,0,1,0-2c.06-.21-1.41.77-.68,2.79a12,12,0,0,1-.65-1.29l-.13.09a4.48,4.48,0,0,0,.35.85,27.92,27.92,0,0,0-2.72-2.73,6.66,6.66,0,0,0,1,2.5,6.3,6.3,0,0,1-1.47-1.36l-.13.13a8.34,8.34,0,0,0,.85,1c.19.12-2.21-.19-3-4.14,0,0,4.81,3.92,8.68.34,0,0,.41-.38.2.08a2.16,2.16,0,0,1-1,1s.94,0,1.66-1.32a1.13,1.13,0,0,0,.4.44v0h0l0,0v0a1,1,0,0,0,.3-.46A2.26,2.26,0,0,0,50,40s-1-.2-1.21.39-1.87,5.1.12,9a1.24,1.24,0,0,0,1.87-.87,18,18,0,0,0,7.39-3.3l1.14,1.17a2.75,2.75,0,0,1-1.62,1.76c-1.91,1-3.49.51-5.69,1.1s-2.68,1.72-2.7,2.84a1.21,1.21,0,0,0,.38.83l.29-.3c-.33-.56,0-2.67,3.55-2.54a14.2,14.2,0,0,0,5.1-.45c.52.28.36-.21.36-.21a2.79,2.79,0,0,0,1.29-2l3.06,3.12L63.47,52l3.43,1.36Z"/></g><polygon class="cls-4" points="64.25 50.44 65.84 52.08 65.24 50.57 64.25 50.44"/><polygon class="cls-4" points="33.34 27.01 33.74 27.35 33.44 26.85 33.34 27.01"/><polygon class="cls-4" points="32.64 28.85 33.04 29.17 32.73 28.69 32.64 28.85"/><g class="cls-3"><path class="cls-4" d="M32.93,22.37l0-.16a.88.88,0,0,0-.36,0l0,.17a1.51,1.51,0,0,1,.3,0"/><path class="cls-4" d="M33.4,22.37l-.16-.07-.06.16a1.28,1.28,0,0,1,.21.14l.1-.14-.1-.09"/><path class="cls-4" d="M33.57,26.33l.32.25-.27-.41c.06-.16.11-.32.16-.47l.27.2-.23-.35a4.53,4.53,0,0,0,.26-1.63,6.65,6.65,0,0,1-.72,4.6s-.24.49-.49,1.11l-.27-.41-.09.16.34.28c-.06.14-.11.29-.17.44l-.2-.32-.1.16.29.22a3,3,0,0,0-.13.39l-.18-.27-.1.16.25.19c0,.16-.09.31-.13.46l-.2-.31,0,0a6.35,6.35,0,0,1,.66-2.74c.31-.65.56-1.24.75-1.76M32.3,32a3.7,3.7,0,0,1-.14-1l.2.16a2.32,2.32,0,0,0-.06.83m.13.81c.71.61,1.8.63,2.15,0a.84.84,0,0,0,0-1c-1-.69-1.12.06-1.12.06s-.07.41.24.48c.73.15.52-.55.52-.55.44.06.61,1.09-.34,1.3a1.11,1.11,0,0,1-1.25-.82c-.51-.63,1.3-4.23,1.3-4.23a8.79,8.79,0,0,0,.53-2.18c.09-.6.37-2,1-1.89s.43.9,0,.82c0,0,.64.23.6-.5s-1.28-.8-1.65.1A3.89,3.89,0,0,0,34,23.18l-.22.07,0,.11c.35,1.66-1,4.12-1.57,5.34s-.51,3.5.2,4.09"/></g><polygon class="cls-4" points="55.77 49.45 55.98 49.42 55.56 49.03 55.77 49.45"/><polygon class="cls-4" points="33.14 27.72 33.55 28.04 33.23 27.56 33.14 27.72"/><polygon class="cls-4" points="32.85 28.31 33.26 28.63 32.94 28.15 32.85 28.31"/><polygon class="cls-4" points="53.32 49.5 53.48 49.48 53.15 49.17 53.32 49.5"/><g class="cls-3"><path class="cls-4" d="M43.33,45.61l-.17-.09,0,.08.19.06Z"/><path class="cls-4" d="M43,45.43l-.25-.14-.09.12.29.11Z"/><path class="cls-4" d="M42.57,45.19a2.07,2.07,0,0,1-.25-.15l-.11.16.24.12Z"/><path class="cls-4" d="M42,45.1l.15-.15-.24-.18-.16.18.25.15"/><path class="cls-4" d="M40.14,32.72,40,32.57l-.29.23.15.17.28-.25"/><path class="cls-4" d="M43.44,45.66l0,0,.34.1-.32-.14"/><path class="cls-4" d="M40.53,32.4l-.08-.14-.29.2.12.15.25-.21"/><path class="cls-4" d="M41.6,44.84l.18-.18-.21-.14-.2.16a1.25,1.25,0,0,0,.22.16"/><path class="cls-4" d="M45,39.9c-.17.09,0,.13,0,.13a2.88,2.88,0,0,0,2.82-1.71A4.16,4.16,0,0,1,45,39.9"/></g><polygon class="cls-4" points="52.93 49.5 53.06 49.48 52.8 49.24 52.93 49.5"/><g class="cls-3"><path class="cls-4" d="M40.86,32.17,40.79,32l-.22.14.09.13.2-.14"/></g><polygon class="cls-4" points="51.67 49.92 51.8 49.9 51.54 49.66 51.67 49.92"/><polygon class="cls-4" points="54.72 49.5 54.93 49.46 54.51 49.08 54.72 49.5"/><polygon class="cls-4" points="53.74 49.5 53.9 49.48 53.58 49.17 53.74 49.5"/><g class="cls-3"><path class="cls-4" d="M41.2,44.55l.21-.16-.28-.24-.22.16a3.36,3.36,0,0,0,.29.24"/></g><polygon class="cls-4" points="49.34 37.59 49.34 37.6 49.35 37.56 49.34 37.59"/><g class="cls-3"><path class="cls-5" d="M83.23,85.39l.85-5.18-.45-.08-.86,5.19Zm-2.34-3,.53.08a1.21,1.21,0,0,1,.44.15.67.67,0,0,1,.24.26.73.73,0,0,1,.09.35,1.53,1.53,0,0,1,0,.43,2.58,2.58,0,0,1-.1.42.89.89,0,0,1-.19.33.68.68,0,0,1-.32.18.94.94,0,0,1-.47,0l-.54-.09ZM81.05,85a1.83,1.83,0,0,0,.66,0,1,1,0,0,0,.46-.25,1.22,1.22,0,0,0,.28-.45,3.25,3.25,0,0,0,.17-.61,4,4,0,0,0,0-.6,1.2,1.2,0,0,0-.14-.49.92.92,0,0,0-.36-.37,1.69,1.69,0,0,0-.65-.23L81,81.94l.36-2.19-.45-.08L80,84.85ZM77.93,79.3a1,1,0,0,0-.4.24,1.16,1.16,0,0,0-.25.41,2.27,2.27,0,0,0-.14.51l-.38,2.75a1.27,1.27,0,0,0,.16.93,1.15,1.15,0,0,0,.82.43,1.08,1.08,0,0,0,1.29-.8,1.23,1.23,0,0,0,0-.19l-.46-.15a.87.87,0,0,1-.28.6.64.64,0,0,1-.52.12.76.76,0,0,1-.32-.11.53.53,0,0,1-.18-.21.61.61,0,0,1-.08-.27.76.76,0,0,1,0-.3l.39-2.78a1.16,1.16,0,0,1,.08-.32.76.76,0,0,1,.16-.26.56.56,0,0,1,.24-.17.65.65,0,0,1,.34,0,.61.61,0,0,1,.48.28.86.86,0,0,1,.09.63l.47,0a1,1,0,0,0-.76-1.28.78.78,0,0,0-.22,0,1.33,1.33,0,0,0-.56,0m-2.34,4.91.06-.41-1.72-.23.26-2,1.5.2.06-.42-1.51-.2.25-1.92,1.72.22.06-.42-2.18-.28-.67,5.21ZM72.89,79l0-.42-2.34-.25,0,.42.94.1L71,83.66l.48,0,.51-4.8Zm-4.22-.08.12,1.27L69,81.75l-1.14-.11.46-1.47.37-1.24Zm1,4.59L69,78.19l-.47,0-1.61,5.11.43,0,.39-1.23,1.3.12.16,1.29ZM63.79,83,64,80.56l.47,0,.28,0a.77.77,0,0,1,.25.14,1,1,0,0,1,.19.27,1.59,1.59,0,0,1,.12.44l.24,1.66.47,0-.26-1.73a2.41,2.41,0,0,0-.2-.68.77.77,0,0,0-.46-.39.89.89,0,0,0,.44-.32,1.83,1.83,0,0,0,.3-.63l.45-1.49-.42,0-.48,1.5a1.14,1.14,0,0,1-.19.4.84.84,0,0,1-.24.22.63.63,0,0,1-.27.1,1,1,0,0,1-.25,0l-.42,0,.17-2.32-.46,0L63.32,83Zm-1.92-4.27-.25,4.11.46,0,.31-5.24-.44,0-1.76,4h0l.23-4.14-.46,0-.31,5.24.42,0,1.8-4Zm-5.07-.94,1.28.05-.19,4.82.46,0,.21-5.24-2.17-.09-.11,2.93c0,.31,0,.62-.08.93a2.36,2.36,0,0,1-.15.58,1.15,1.15,0,0,1-.22.35,1.68,1.68,0,0,1-.29.24l.21.34a2.07,2.07,0,0,0,.42-.31,1.32,1.32,0,0,0,.29-.48,4,4,0,0,0,.17-.76c0-.3.06-.69.08-1.17Zm-2.16,4.75v-.42l-1.74,0,0-2,1.51,0v-.42l-1.51,0,0-1.94,1.73,0v-.42l-2.19,0-.07,5.25Zm-5.79-.47a2,2,0,0,0,.26-.75,9.83,9.83,0,0,0,.09-1.08l.08-2.59h1.37l0,4.42Zm-.39.41h2.48v1h.41v-1.4h-.28l0-4.84H48.86l-.1,3c0,.3,0,.54,0,.74a4,4,0,0,1-.08.5,1.4,1.4,0,0,1-.13.34,1.57,1.57,0,0,1-.21.24l-.26,0V83.5h.41Zm-3.53-4.09L45,82.55h.46l-.15-5.25h-.44L43.5,81.48h0l-.12-4.14H42.9L43,82.6h.43l1.43-4.17Zm-5,1.7.53,0a1.19,1.19,0,0,1,.46.06.69.69,0,0,1,.3.2.84.84,0,0,1,.16.33,3.18,3.18,0,0,1,.06.43,3,3,0,0,1,0,.43.77.77,0,0,1-.12.36.66.66,0,0,1-.28.24,1,1,0,0,1-.46.11l-.54,0Zm.7,2.57a1.57,1.57,0,0,0,.64-.14.89.89,0,0,0,.41-.33,1.27,1.27,0,0,0,.19-.5,3.33,3.33,0,0,0,0-.63,3.11,3.11,0,0,0-.09-.6,1.13,1.13,0,0,0-.23-.45.85.85,0,0,0-.43-.29,2,2,0,0,0-.68-.09l-.55,0-.1-2.22-.46,0,.2,5.24Zm-5-5,.11,1.84a1.69,1.69,0,0,0,.12.55,1.08,1.08,0,0,0,.26.37.87.87,0,0,0,.38.17,1.6,1.6,0,0,0,.49,0,2.25,2.25,0,0,0,.36-.06,1.42,1.42,0,0,0,.35-.11l.15,2.33.46,0L38,77.56l-.46,0,.15,2.55a1.15,1.15,0,0,1-.31.11l-.3.05a1,1,0,0,1-.64-.14.83.83,0,0,1-.23-.64l-.12-1.84ZM34,78.94l.3,4.11.46,0-.38-5.24-.44,0-1.23,4.24h0l-.3-4.12L32,78l.37,5.24.43,0L34,78.94Zm-3,4.38-.49-5.23-.46,0,.22,2.35-1.42.13-.23-2.35-.46,0,.5,5.23.46,0L29,81l1.43-.14.24,2.47Zm-3.93-4.47-.05-.41-2.35.27.05.42.94-.11.56,4.8.47-.06L26.19,79Zm-3.34,4a1.17,1.17,0,0,1-.09.64.6.6,0,0,1-.52.33.78.78,0,0,1-.34,0,.58.58,0,0,1-.25-.15.78.78,0,0,1-.16-.24.9.9,0,0,1-.08-.28L22,80.41a1.71,1.71,0,0,1,0-.32,1,1,0,0,1,.08-.33.63.63,0,0,1,.2-.26.64.64,0,0,1,.35-.14.66.66,0,0,1,.34,0,.51.51,0,0,1,.25.16.75.75,0,0,1,.15.24,1.77,1.77,0,0,1,.08.31Zm.1-2.75a2.4,2.4,0,0,0-.12-.53,1.28,1.28,0,0,0-.25-.4,1,1,0,0,0-.4-.22,1.56,1.56,0,0,0-.57,0,1.32,1.32,0,0,0-.55.18,1,1,0,0,0-.33.33,1.45,1.45,0,0,0-.14.46,2.35,2.35,0,0,0,0,.53l.36,2.74a1.3,1.3,0,0,0,.41.86,1.37,1.37,0,0,0,1.77-.25,1.44,1.44,0,0,0,.16-1Zm-2.73,4.37L19.68,82l.64-2.66-.49.08-.43,2.16L18.33,79.6l-.49.07L19.22,82l-.63,2.85.47-.07.48-2.31,1.14,2.06ZM17,83.86a1.16,1.16,0,0,1-.06.64.61.61,0,0,1-.51.35.77.77,0,0,1-.34,0,.55.55,0,0,1-.26-.14.63.63,0,0,1-.16-.23.76.76,0,0,1-.09-.28l-.45-2.7c0-.11,0-.22,0-.33a1.3,1.3,0,0,1,.07-.33.8.8,0,0,1,.18-.27.7.7,0,0,1,.34-.15.69.69,0,0,1,.35,0,.64.64,0,0,1,.25.15.78.78,0,0,1,.16.24,1.58,1.58,0,0,1,.09.31Zm0-2.75a2.44,2.44,0,0,0-.14-.53,1.27,1.27,0,0,0-.26-.39.84.84,0,0,0-.4-.2,1.6,1.6,0,0,0-1.11.2.89.89,0,0,0-.32.35,1.22,1.22,0,0,0-.13.46,2.36,2.36,0,0,0,0,.53l.45,2.72a1.31,1.31,0,0,0,.44.84,1.14,1.14,0,0,0,.93.17,1.12,1.12,0,0,0,.83-.48,1.5,1.5,0,0,0,.13-1Z"/><path class="cls-4" d="M97.16,76l-.73-.18L99.2,64.42l.73.18.07-.3-2.64-.63-.07.29.73.18-2.77,11.4-.73-.17-.07.29,2.64.64ZM94.39,63.26l.73.17.07-.29-2.64-.64-.07.29.73.18L90.44,74.38l-.73-.18-.07.3,2.67.64a1.85,1.85,0,0,0,2.38-1.37l.59-2.47A1.86,1.86,0,0,0,93.8,69L93,68.79ZM91.65,74.52l1.28-5.28.77.19a.77.77,0,0,1,.57.94h0l-.91,3.76a.79.79,0,0,1-.94.58h0ZM90.71,62.1,85,61l-.54,2.85,1,.2.4-2.1a.31.31,0,0,1,.36-.24l1,.18L85,73.28l-.81-.15-.06.29L87,74l.06-.3-.82-.15,2.16-11.4.94.18a.3.3,0,0,1,.25.35l-.41,2.11,1,.2Zm-10.6,9.59a.79.79,0,0,1-1.56-.2v0l1.56-10.18a.77.77,0,0,1,.89-.65.78.78,0,0,1,.66.89h0Zm2.63-9.18a2,2,0,0,0-3.92-.73.5.5,0,0,0,0,.12l-1.31,8.57a2,2,0,0,0,3.94.61Zm-5.4-2.68-2.43-.29,0,.3.48.06-.57,4.88a.79.79,0,0,1-1.56-.18l.58-4.89.48,0,0-.3-2.43-.28,0,.3.75.08-.48,4.08A2,2,0,0,0,73,65.58a2,2,0,0,0-1.29,1.69l-.47,3.94-.71-.08,0,.3,2.43.29,0-.31-.48,0L73,66.59a.79.79,0,0,1,1.56.19L74,71.54l-.48-.05,0,.3,2.43.28,0-.3-.72-.08.47-4a2,2,0,0,0-.87-1.94,2,2,0,0,0,1.26-1.69L76.55,60l.75.09ZM68,70.17A.78.78,0,1,1,66.45,70l1-10.24a.78.78,0,0,1,1.56.15Zm2.1-9.32a2,2,0,0,0-4-.44.15.15,0,0,0,0,.07l-.82,8.62a2,2,0,1,0,4,.52c0-.05,0-.1,0-.14Zm-9.47,9.48-.75,0,.45-11.73.76,0v-.3l-2.74-.1A1.86,1.86,0,0,0,56.3,60l-.1,2.73a1.79,1.79,0,0,0,.91,1.71,1.78,1.78,0,0,0-1,1.63l-.15,3.76a.32.32,0,0,1-.31.29l-.45,0v.3l1.35,0a.59.59,0,0,0,.63-.54v0l.17-4.42a.77.77,0,0,1,.8-.75h0l.79,0-.2,5.51-.68,0,0,.31,2.64.1Zm-2.51-6a.77.77,0,0,1-.75-.8v0l.16-4.06a.77.77,0,0,1,.8-.75h0l.79,0-.22,5.62ZM52,70.06h-.53v.31h2.45v-.3h-.76l.07-11.74H54V58l-2.45,0v.31h.53v2l-1.69,5.76,0-7.8h.53V58H48.47v.3h.75l0,11.75h-.75v.3h2.45v-.3h-.53v-2L52,62.26Zm-6.72,0-.75,0,0-.78a2.93,2.93,0,0,0,2.69-3.09l-.11-4a2.93,2.93,0,0,0-2.86-2.94l0-.94.75,0V58l-2.71.07v.31l.75,0,0,.93a3,3,0,0,0-2.7,3.11l.11,4a2.94,2.94,0,0,0,2.86,2.94l0,.79-.76,0v.3l2.72-.07Zm-2-1.18A1.87,1.87,0,0,1,41.64,67l-.14-5.22a1.85,1.85,0,0,1,1.52-2Zm.95-9.14a1.85,1.85,0,0,1,1.63,1.9L46,66.88a1.85,1.85,0,0,1-1.52,2Zm-6.7,9.9a.79.79,0,0,1-.74.83.78.78,0,0,1-.83-.73h0l-.62-10.28a.78.78,0,0,1,.73-.83.79.79,0,0,1,.83.74Zm.62-9.53a2,2,0,1,0-4,.09.76.76,0,0,0,0,.15L34.7,69a2,2,0,0,0,4-.25Zm-6,.38a2,2,0,0,0-4,.23.76.76,0,0,0,0,.15L29,69.51a2,2,0,0,0,4-.23s0-.1,0-.15l-.1-1-1.2.12.18,1.86a.77.77,0,0,1-.67.88.79.79,0,0,1-.89-.67v-.06L29.33,60a.78.78,0,1,1,1.55-.2.07.07,0,0,1,0,.05l.18,1.87,1.2-.12ZM26.08,70.65a.79.79,0,0,1-1.56.25v-.07L23.31,60.6a.79.79,0,0,1,1.57-.18Zm.09-9.55a2,2,0,1,0-4,.3c0,.05,0,.11,0,.16l1,8.61a2,2,0,0,0,4-.47Zm-4.1,10.77-.74.12L19.55,60.38l.75-.11-.05-.3-5.43.84,0,.3.74-.12L17.19,71.3c.15,1-.17,1.2-.61,1.27l-.41.06.07.45L17,73c.95-.15,1.63-.55,1.37-2.21L16.83,61l1.55-.24,1.75,11.45-.74.12,0,.3,2.69-.41Zm-9,1.5-.52.1.06.3,2.4-.46L15,73l-.74.14-2.2-11.52.75-.15-.06-.29-2.4.45.05.3.52-.1.38,2-.55,6L9.29,62.15l.52-.1-.06-.29-2.4.45.05.3.74-.14L10.33,73.9,9.59,74l.06.3,2.4-.46-.05-.3-.53.1-.37-2,.56-6ZM6.54,74.78,5.81,75l-.18-.76a2.94,2.94,0,0,0,2-3.6l-.94-3.87a2.93,2.93,0,0,0-3.41-2.28L3,63.54l.73-.18-.07-.29-2.64.65.07.29.74-.18.22.91a2.94,2.94,0,0,0-2,3.59L1,72.21a2.94,2.94,0,0,0,3.41,2.28l.19.76-.74.18.07.29,2.64-.64ZM4.34,74a1.85,1.85,0,0,1-2-1.52L1.14,67.45A1.84,1.84,0,0,1,2.2,65.18Zm-1-9.14a1.85,1.85,0,0,1,2,1.52l1.23,5.07a1.86,1.86,0,0,1-1.07,2.27Z"/></g></g></g></svg>