<svg id="Слой_1" data-name="Слой 1" xmlns="http://www.w3.org/2000/svg" viewBox="0 0 100 100"><defs><style>.cls-1{fill:#1e1e1c;}.cls-2{fill:#3b87bd;}.cls-3{fill:#594d7d;}.cls-4{fill:#9e4566;}.cls-5{fill:#a1bf36;}.cls-6{fill:#e8b040;}</style></defs><title>100-Logo-Velvet</title><path class="cls-1" d="M8.05,36.43v.8h-2l4.41,17,2.9-12.63A8.39,8.39,0,0,0,13.63,40a3.44,3.44,0,0,0-.63-2.2,1.93,1.93,0,0,0-1.58-.52v-.8h5.47v.8a2.13,2.13,0,0,0-1.32.74c-.47.59-.73,1.5-1.28,3.78l-4.44,19H8.12L2,37.23H.08v-.8Z"/><path class="cls-1" d="M33.12,36.43l.18,7.71h-.91a12.59,12.59,0,0,0-1-4A4.65,4.65,0,0,0,27,37.23H24.53v9.62h1.69a2,2,0,0,0,1.8-1,6.29,6.29,0,0,0,.88-3.35h.88V52.1H28.9a8.33,8.33,0,0,0-.37-2.53c-.62-1.84-1.83-1.91-2.31-1.91H24.53v12H27a5.46,5.46,0,0,0,4.48-3,11.71,11.71,0,0,0,1.39-4.18h.88l-.25,8h-15v-.8h2.13V37.23H18.44v-.8Z"/><path class="cls-1" d="M44.2,36.43v.8H42V59.67H44a5.29,5.29,0,0,0,4.48-3,10.94,10.94,0,0,0,1.39-4.18h.92l-.3,8H35.91v-.8h2.16V37.23H35.91v-.8Z"/><path class="cls-1" d="M56.82,36.43v.8H54.88l4.4,17,2.9-12.63A8.39,8.39,0,0,0,62.4,40a3.43,3.43,0,0,0-.62-2.2,1.94,1.94,0,0,0-1.58-.52v-.8h5.47v.8a2.11,2.11,0,0,0-1.32.74c-.48.59-.73,1.5-1.28,3.78l-4.45,19H56.9L50.77,37.23H48.86v-.8Z"/><path class="cls-1" d="M81.9,36.43l.18,7.71h-.92a12.29,12.29,0,0,0-1-4,4.66,4.66,0,0,0-4.37-2.87H73.31v9.62H75a2,2,0,0,0,1.8-1,6.29,6.29,0,0,0,.88-3.35h.88V52.1h-.88a8.33,8.33,0,0,0-.37-2.53c-.62-1.84-1.84-1.91-2.31-1.91H73.31v12h2.46a5.46,5.46,0,0,0,4.48-3,11.91,11.91,0,0,0,1.39-4.18h.88l-.25,8H67.21v-.8h2.13V37.23H67.21v-.8Z"/><path class="cls-1" d="M89.36,37.23c-2.13,0-3.16,2.32-3.45,3.05a15.2,15.2,0,0,0-1,3.93H84l.19-7.78H99.9l.18,7.78h-1a18.08,18.08,0,0,0-1-3.93c-1.18-2.9-2.76-3.05-3.42-3.05H94V59.67h2.17v.8h-8.3v-.8h2.17V37.23Z"/><path class="cls-1" d="M20.28,71.66A1.49,1.49,0,0,1,18.8,70a1.53,1.53,0,0,1,1.5-1.69,1.27,1.27,0,0,1,1.32,1h-.31a1,1,0,0,0-1-.77c-.71,0-1.18.57-1.18,1.42s.46,1.41,1.17,1.41a1.05,1.05,0,0,0,1.08-1h.3a1.34,1.34,0,0,1-1.38,1.31"/><polygon class="cls-1" points="24.55 68.63 22.63 68.63 22.63 69.79 24.43 69.79 24.43 70.05 22.63 70.05 22.63 71.32 24.57 71.32 24.57 71.58 22.32 71.58 22.32 68.37 24.55 68.37 24.55 68.63"/><polygon class="cls-1" points="27.58 68.63 26.45 68.63 26.45 71.58 26.14 71.58 26.14 68.63 25.02 68.63 25.02 68.37 27.58 68.37 27.58 68.63"/><path class="cls-1" d="M29.51,70H28.45v1.34h1.06a.67.67,0,1,0,0-1.34m.06,1.6H28.14V68.37h.31v1.35h1.12a.93.93,0,1,1,0,1.86"/><polygon class="cls-1" points="32.69 71.58 32.69 68.37 34.69 68.37 34.69 68.63 33 68.63 33 71.58 32.69 71.58"/><path class="cls-1" d="M36,68.65l-.65,1.67h1.28Zm1.46,2.93h-.34l-.39-1H35.25l-.4,1h-.33l1.3-3.22h.34Z"/><path class="cls-1" d="M40.22,71.58v-3h-1.3l-.06,1.89c0,.65-.19,1.13-.68,1.13a1,1,0,0,1-.32-.06v-.25a1,1,0,0,0,.31,0c.23,0,.37-.23.4-1l.06-2h1.89v3.21Z"/><polygon class="cls-1" points="43.6 68.63 41.67 68.63 41.67 69.79 43.48 69.79 43.48 70.05 41.67 70.05 41.67 71.32 43.62 71.32 43.62 71.58 41.37 71.58 41.37 68.37 43.6 68.37 43.6 68.63"/><path class="cls-1" d="M44.56,70h1c.44,0,.8-.18.8-.66s-.31-.66-.77-.66h-1Zm1.07-1.58c.6,0,1,.3,1,.9a.9.9,0,0,1-1,.94H44.56v1.37h-.31V68.37Z"/><polygon class="cls-1" points="49.51 68.63 47.59 68.63 47.59 69.79 49.39 69.79 49.39 70.05 47.59 70.05 47.59 71.32 49.53 71.32 49.53 71.58 47.28 71.58 47.28 68.37 49.51 68.37 49.51 68.63"/><path class="cls-1" d="M51,67.58a.41.41,0,0,0,.46.37.44.44,0,0,0,.48-.37h.18a.63.63,0,0,1-.66.59.6.6,0,0,1-.64-.59Zm-.8.79h.31v2.88l1.82-2.88h.4v3.21h-.3V68.7l-1.83,2.88h-.4Z"/><path class="cls-1" d="M58.17,71.58h-.29V69.64c0-.34,0-.67,0-1-.07.19-.14.39-.22.58l-.94,2.37h-.28l-1-2.34c-.08-.2-.15-.39-.21-.59,0,.33,0,.65,0,1v2h-.29V68.37h.41l.94,2.29c.08.2.15.4.22.61l.21-.6.92-2.3h.42Z"/><path class="cls-1" d="M60.2,68.65l-.65,1.67h1.28Zm1.45,2.93h-.33l-.39-1H59.45l-.39,1h-.33L60,68.36h.34Z"/><polygon class="cls-1" points="64.75 71.58 64.44 71.58 64.44 70.03 62.52 70.03 62.52 71.58 62.21 71.58 62.21 68.37 62.52 68.37 62.52 69.77 64.44 69.77 64.44 68.37 64.75 68.37 64.75 71.58"/><polygon class="cls-1" points="65.6 68.37 65.9 68.37 65.9 71.25 67.73 68.37 68.13 68.37 68.13 71.58 67.82 71.58 67.82 68.7 66 71.58 65.6 71.58 65.6 68.37"/><polygon class="cls-1" points="70.11 69.68 71.63 71.58 71.24 71.58 69.89 69.89 69.28 70.45 69.28 71.58 68.98 71.58 68.98 68.37 69.28 68.37 69.28 70.1 71.15 68.37 71.56 68.37 70.11 69.68"/><path class="cls-1" d="M73.5,70c0,.86.48,1.42,1.21,1.42A1.43,1.43,0,1,0,73.5,70m2.72,0a1.52,1.52,0,1,1-3,0h-.7v1.55h-.31V68.37h.31v1.4h.71a1.49,1.49,0,0,1,1.51-1.48A1.53,1.53,0,0,1,76.22,70"/><path class="cls-1" d="M77.24,70h1c.44,0,.8-.18.8-.66s-.3-.66-.77-.66h-1Zm1.07-1.58c.6,0,1,.3,1,.9a.9.9,0,0,1-1,.94H77.24v1.37h-.31V68.37Z"/><path class="cls-1" d="M80.84,68.65l-.65,1.67h1.29Zm1.46,2.93H82l-.39-1H80.1l-.39,1h-.33l1.3-3.22H81Z"/><path class="cls-1" d="M47.64,25.39A2.06,2.06,0,0,1,47,26.92a2.22,2.22,0,0,1-1.61.63h-.33a5.92,5.92,0,0,1-1.79-.47l-1.22-.53a3.47,3.47,0,0,0-1.35-.32,1,1,0,0,0-.61.18,1.82,1.82,0,0,0-.44.51c-.14.21-.25.31-.31.31s-.2-.13-.2-.4a.53.53,0,0,1,.11-.34,2.09,2.09,0,0,1,.28-.25.4.4,0,0,0,.11-.22l0,0a1.16,1.16,0,0,0-.55.25l-.37.28a.43.43,0,0,1-.19.12h0a.26.26,0,0,1-.07-.19.62.62,0,0,1,.23-.5,2.92,2.92,0,0,1,.61-.41q.15-.09.15-.15s0-.06-.13-.12-.13-.09-.13-.12.11-.18.35-.3a1.62,1.62,0,0,1,.68-.17,2.81,2.81,0,0,1,1.36.61l.55.4a1.14,1.14,0,0,0,.44.24.35.35,0,0,0,0-.06q0-.42-1.14-1.29a2.59,2.59,0,0,0-.76-.35,3.58,3.58,0,0,0-1-.17l-.21,0-.24,0a.58.58,0,0,1-.41-.19c-.13-.13-.2-.19-.22-.19A.49.49,0,0,0,38,24a1.43,1.43,0,0,1-.21.32.5.5,0,0,1-.38.14.25.25,0,0,1-.26-.15,3.8,3.8,0,0,0-.16-.35.37.37,0,0,0-.31-.14.44.44,0,0,0-.36.16,1.49,1.49,0,0,0-.22.42c-.15.38-.38.57-.68.57a.94.94,0,0,1-.66-.41q-.15-.18-.21-.18l-.11,0-.13,0a.53.53,0,0,1-.28-.1.68.68,0,0,0-.21-.11,6,6,0,0,0-.56.39c-.43.35-.65.64-.65.86a.64.64,0,0,0,.13.26.67.67,0,0,1,.12.27.28.28,0,0,1-.1.22.29.29,0,0,1-.23.1.52.52,0,0,1-.36-.13.45.45,0,0,1-.14-.33,2.22,2.22,0,0,1,.4-1,2.27,2.27,0,0,1,.78-.89H33a4.92,4.92,0,0,0-.91.09l-.48.1c-.17,0-.26-.11-.26-.32s.07-.43.22-.43a1,1,0,0,1,.23.08.74.74,0,0,0,.31.09,4.18,4.18,0,0,0,.9-.07.16.16,0,0,0,0-.08c0-.06-.14-.2-.4-.42-.42-.35-.64-.65-.64-.91a.43.43,0,0,1,.17-.3.51.51,0,0,1,.32-.15q.3,0,.3.33c0,.07,0,.15,0,.27a1.52,1.52,0,0,0,0,.24c0,.12.1.25.31.4a1.36,1.36,0,0,0,.78.34,1,1,0,0,0,.27-.13,1.92,1.92,0,0,0,.4-.14,2,2,0,0,0,.34-.43.54.54,0,0,1,.46-.29.57.57,0,0,1,.43.19,2.78,2.78,0,0,1,.38.55c.1.19.17.28.21.28l.12,0,.13,0h.09l.12,0c.12,0,.21-.09.24-.28a.66.66,0,0,1,.12-.29.44.44,0,0,1,.29-.08.32.32,0,0,1,.25.09.79.79,0,0,1,.14.24.45.45,0,0,0,.41.32.24.24,0,0,0,.2-.09,1.7,1.7,0,0,1,.26-.31.57.57,0,0,1,.37-.12c1,0,2.19.86,3.44,2.59a.08.08,0,0,0,0-.07.91.91,0,0,0-.09-.28A5.82,5.82,0,0,1,42,23.55a.88.88,0,0,1,.09-.31l.2-.43a.28.28,0,0,0-.13,0l-.24.14a1.17,1.17,0,0,1-.49.18,1.65,1.65,0,0,1-.72-.33c-.45-.31-.68-.54-.68-.7s0-.08.13-.13a.21.21,0,0,0,.12-.18,1,1,0,0,0-.08-.23,1.16,1.16,0,0,1-.09-.49.62.62,0,0,1,.37-.57,2.67,2.67,0,0,0,.46-.29.58.58,0,0,1,.24-.11s0,0,0,.05a2.45,2.45,0,0,0-.18.7c0,.09,0,.14.12.14a.32.32,0,0,0,.15-.05.47.47,0,0,1,.14-.05c.17,0,.3.23.4.7a1.13,1.13,0,0,0,.35.34,8.63,8.63,0,0,1,.23-1.22c.08-.27.17-.4.29-.4a.7.7,0,0,1,.28.17.92.92,0,0,1,.78-.37c.16,0,.24.2.24.61a.6.6,0,0,1-.12.23,2.69,2.69,0,0,0-.23.44q.21.11.21.24a.59.59,0,0,1-.2.34l-.47.49c.2,0,.39,0,.6-.05l.34,0a2,2,0,0,1,.67.13c.21.08.32.15.32.2a.4.4,0,0,1-.06.13A.29.29,0,0,0,45,23s.07.1.2.19a.43.43,0,0,1,.21.34.36.36,0,0,1-.11.26.35.35,0,0,0-.1.17.71.71,0,0,0,.1.22.58.58,0,0,1,.11.24c0,.55-.14.83-.41.83-.07,0-.11-.13-.11-.36a.84.84,0,0,1,0-.34.06.06,0,0,0,0,0,0,0,0,0,0,0,0l0,0h0l-.11,0-.11,0a.47.47,0,0,1-.14-.05.39.39,0,0,0-.14-.05s-.09,0-.17.12a.38.38,0,0,1-.21.12s-.12-.06-.21-.17a1,1,0,0,1-.26-.41c-.06-.15-.12-.31-.17-.48a.79.79,0,0,0-.36-.47,7.58,7.58,0,0,0-.11,1.26,3.25,3.25,0,0,0,.29,1.33,2.5,2.5,0,0,0,.78,1,2.2,2.2,0,0,0,1.38.37,2,2,0,0,0,1.33-.43,1.32,1.32,0,0,0,.52-1.05q0-.48-.21-.48s-.11.07-.23.21a.54.54,0,0,1-.4.2q-.33,0-.33-.39a.92.92,0,0,1,.21-.61.62.62,0,0,1,.5-.24.77.77,0,0,1,.6.33,1.24,1.24,0,0,1,.27.79"/><path class="cls-1" d="M51.62,18.24a.29.29,0,0,1-.06.17.19.19,0,0,1-.14.08,1.52,1.52,0,0,1-.37-.12,1.43,1.43,0,0,0-.49-.12,1,1,0,0,0-.44.13,1.25,1.25,0,0,1-.35.12c-.07,0-.13-.09-.19-.27a.57.57,0,0,1,.35-.41,1.66,1.66,0,0,1,.8-.17,1,1,0,0,1,.62.19.54.54,0,0,1,.27.4m1.77,2.36a.39.39,0,0,1-.1.27.37.37,0,0,1-.24.11.33.33,0,0,1-.22-.12.2.2,0,0,0-.09.19v.06c0,.12-.2.33-.61.63h.11a.68.68,0,0,1,.32-.11q.45,0,.45.36c0,.09-.16.26-.48.48a6.38,6.38,0,0,0-1.1.95l-.08.16,0,.06a1.34,1.34,0,0,0,.51-.33,1,1,0,0,1,.49-.29s.08,0,.08.06-.18.19-.54.6a6.07,6.07,0,0,0-1.27,2.73l0,.13a1.17,1.17,0,0,0,.49-.39.61.61,0,0,1,.45-.27h.22c.1,0,.16.06.16.18a.94.94,0,0,1,0,.16,1,1,0,0,0,0,.22s0,0,.07,0a.35.35,0,0,0,.19-.08.43.43,0,0,1,.19-.09s.07,0,.07,0a.64.64,0,0,1,0,.11.78.78,0,0,1-.31.37.72.72,0,0,1-.38.16.89.89,0,0,1-.38-.11,1.43,1.43,0,0,0-.31-.11.39.39,0,0,0-.26.09.24.24,0,0,0-.12.18.72.72,0,0,0,.16.3.74.74,0,0,1,.15.4v.05a.32.32,0,0,0-.21.28,1,1,0,0,0,0,.15l0,.1c0,.07-.06.11-.16.11a.79.79,0,0,1-.3-.08c-.11-.06-.16-.11-.16-.14l.09-.28-.2-.18a.26.26,0,0,1-.11-.19.87.87,0,0,1,.15-.32.94.94,0,0,0,.14-.29c0-.14-.13-.2-.4-.2a1,1,0,0,0-.29.12,1,1,0,0,1-.38.12.61.61,0,0,1-.37-.2c-.15-.14-.22-.25-.22-.33l0-.07.19.11.13,0,.05-.09q0-.48.33-.48a.77.77,0,0,1,.55.21,1,1,0,0,0,.29.21c.13,0,.19-.11.19-.34a5.94,5.94,0,0,0-1.24-3l0-.08c0-.06,0-.09.1-.09s.19.1.29.29.19.29.28.31l0,0a1,1,0,0,0-.37-.76l-.63-.47c-.19-.14-.29-.25-.29-.33s.14-.31.42-.46a.49.49,0,0,0-.28-.34L48.25,21a.28.28,0,0,1-.19-.28.65.65,0,0,1,.61-.6q.57,0,1.29,1.59a3.43,3.43,0,0,1,.23,1,2.82,2.82,0,0,0,.24,1,1.41,1.41,0,0,0,.07-.36v-.06a.34.34,0,0,1,0-.09.18.18,0,0,1,0-.06V23a10.4,10.4,0,0,0-.32-2.54l-.31-1.25a.29.29,0,0,1,0-.09.68.68,0,0,1,.2-.15c0-.34.18-.52.43-.52a.76.76,0,0,1,.62.36l0,0,.07-.06a.29.29,0,0,1,.17.29,3.11,3.11,0,0,1-.15.54c-.13.4-.24.74-.31,1,0,.13-.07.6-.13,1.4-.07,1-.11,1.54-.11,1.55a2,2,0,0,0,.05.45,5.17,5.17,0,0,0,.29-1.08,7,7,0,0,1,.3-1.28,3.9,3.9,0,0,1,.75-1.28c.26-.29.47-.43.63-.43a.58.58,0,0,1,.43.23.71.71,0,0,1,.21.47"/><path class="cls-1" d="M69.85,23.38c0,.25-.2.37-.6.37a6.92,6.92,0,0,1-1-.13l-.43,0a3.83,3.83,0,0,1,1.15,1,1.56,1.56,0,0,1,.37.87.76.76,0,0,1-.2.5.55.55,0,0,1-.42.24c-.27,0-.41-.19-.41-.57a.37.37,0,0,1,.17-.33c.11-.08.17-.15.17-.2a.85.85,0,0,0-.17-.39,3.07,3.07,0,0,0-.53-.57,1,1,0,0,0-.51-.28s-.06,0-.1.09a.56.56,0,0,1-.11.15.44.44,0,0,1-.19,0,.35.35,0,0,0-.21.06.71.71,0,0,0-.16.25.77.77,0,0,1-.17.26A.8.8,0,0,1,66,25a.59.59,0,0,1-.46-.2,2.27,2.27,0,0,1-.32-.6c-.14-.34-.26-.51-.38-.51s-.22.16-.35.47a1.18,1.18,0,0,1-.12.24.46.46,0,0,1-.23,0,.59.59,0,0,1-.58-.28l-.06-.22a.17.17,0,0,0-.18-.15l-.23.16a.77.77,0,0,1-.4.15h-.12l-.16,0a4.43,4.43,0,0,0-1.41.23l-.75.32a1.49,1.49,0,0,0-.5.29,1.57,1.57,0,0,0-.4.74,1,1,0,0,0,.41-.22l.39-.32a3,3,0,0,1,1.64-.39c.31,0,.46.05.46.14a.46.46,0,0,1-.06.16.54.54,0,0,0,0,.16s0,.05.09.05l.24,0a1.24,1.24,0,0,1,.7.48,1.28,1.28,0,0,1,.27.79c0,.12-.07.18-.2.18s-.28,0-.33-.14-.1-.19-.14-.28a.78.78,0,0,0-.38-.3l-.12,0a1.33,1.33,0,0,1,.28.69,1,1,0,0,1-.1.48c-.06.12-.14.19-.24.19s-.2-.1-.2-.28A.59.59,0,0,1,62,27V26.8c0-.15-.13-.3-.39-.46a1.54,1.54,0,0,0-.8-.24,3.11,3.11,0,0,0-1.31.32c-.38.2-.76.4-1.15.59a7,7,0,0,1-1.32.44,3.59,3.59,0,0,1-.78.13,2.65,2.65,0,0,1-1.89-.7,2.21,2.21,0,0,1-.72-1.68,1.1,1.1,0,0,1,.19-.68.56.56,0,0,1,.48-.25.67.67,0,0,1,.47.25A.74.74,0,0,1,55,25c0,.13,0,.23-.1.27a.85.85,0,0,1-.29.07c-.26,0-.39.22-.39.55a.9.9,0,0,0,.45.76,2.39,2.39,0,0,0,3.07-.33,3,3,0,0,0,.67-2,.48.48,0,0,0-.09-.25c0-.09-.1-.14-.13-.14s-.2.08-.33.22l-.32.41c-.09.11-.16.17-.22.17a.16.16,0,0,1-.14-.08s0-.11-.11-.26H57s0,0-.08.05a.14.14,0,0,1-.1.05h-.06l-.09,0q-.18,0-.18.24a.79.79,0,0,0,.07.23.74.74,0,0,1,.08.22.24.24,0,0,1-.05.13h-.14c-.15,0-.31-.31-.47-.92,0-.59.14-.92.34-1s.3-.15.3-.22V23c0-.09.06-.17.19-.24a1,1,0,0,1,.43-.1l.3.07.64.13s.06,0,.06-.06-.05-.12-.15-.19a3.86,3.86,0,0,1-.56-.42.55.55,0,0,1-.21-.38c0-.08.08-.17.24-.3a1.66,1.66,0,0,1-.2-.66c0-.23.08-.34.25-.36l.75.45a.59.59,0,0,1,.23-.07c.3,0,.45.33.45,1,0,.13,0,.25,0,.36l.12,0c.21-.75.43-1.12.65-1.12a.62.62,0,0,1,.18.05.48.48,0,0,0,.2,0,.44.44,0,0,0,.33-.13.48.48,0,0,0,.12-.33.59.59,0,0,0-.06-.18c0-.08-.06-.16-.08-.23a.18.18,0,0,1,.14-.06.23.23,0,0,1,.18.09,1.46,1.46,0,0,1,.29.51,1.49,1.49,0,0,1,.15.5.46.46,0,0,1-.21.36q-.21.18-.21.24a.57.57,0,0,0,.07.16.36.36,0,0,1,.08.17c0,.1-.08.2-.22.31a4.31,4.31,0,0,0-.42.34l-.08.09a.34.34,0,0,1-.23.05,1.16,1.16,0,0,1-.46-.14,1,1,0,0,0-.37-.15.17.17,0,0,0-.12.06A.12.12,0,0,0,59,23s.05.11.17.33a1.3,1.3,0,0,1,.17.58,5.56,5.56,0,0,1-.53,1.54.52.52,0,0,0,.29-.23l.34-.54a5.36,5.36,0,0,1,1.27-1.3,2.85,2.85,0,0,1,1.55-.7.82.82,0,0,1,.57.22L63,23a.23.23,0,0,0,.17.07.34.34,0,0,0,.29-.17c.05-.1.1-.2.16-.3a.3.3,0,0,1,.28-.15q.37,0,.84.69l.17,0,.1,0s.09-.07.16-.2.21-.4.27-.5a1,1,0,0,1,.51-.4.24.24,0,0,1,.15-.06.65.65,0,0,1,.52.22s.13.21.31.54l.7.05a1,1,0,0,0,.53-.25c.33-.24.49-.44.49-.6l0-.12a1,1,0,0,1,0-.16c0-.31.13-.46.38-.46s.39.19.39.59a.72.72,0,0,1-.16.31,1.89,1.89,0,0,1-.45.48,4.81,4.81,0,0,1-.45.27,1.53,1.53,0,0,0-.42.32,5.58,5.58,0,0,0,.92-.1,5.34,5.34,0,0,1,.62-.09c.31,0,.46.11.46.32"/><path class="cls-2" d="M44.81,81.05a3,3,0,1,1-3-3,3,3,0,0,1,3,3"/><path class="cls-3" d="M36.91,81.05a3,3,0,1,1-3-3,3,3,0,0,1,3,3"/><path class="cls-4" d="M52.72,81.05a3,3,0,1,1-3-3,3,3,0,0,1,3,3"/><path class="cls-5" d="M60.63,81.05a3,3,0,1,1-3-3,3,3,0,0,1,3,3"/><path class="cls-6" d="M68.54,81.05a3,3,0,1,1-3-3,3,3,0,0,1,3,3"/></svg>