<svg id="Слой_1" data-name="Слой 1" xmlns="http://www.w3.org/2000/svg" viewBox="0 0 361.84 138.1"><defs><style>.cls-1{fill:#f96666;}.cls-2{fill:#004bcc;}.cls-3{fill:#fc3;}.cls-4{fill:#936;}</style></defs><title>LogoDLB</title><path class="cls-1" d="M51.92,61.9a1,1,0,0,1-.53-.16,1,1,0,0,1-.44-.63l-9-41a1,1,0,0,1,.77-1.19l14.88-3.26a21.55,21.55,0,0,1,4.51-.49,21.94,21.94,0,0,1,21.1,17.41A22.26,22.26,0,0,1,80.58,49,21,21,0,0,1,67,58.61L52.14,61.87A.78.78,0,0,1,51.92,61.9Zm7.79-12.21,4.47-1a10.37,10.37,0,0,0,6.88-5,12.23,12.23,0,0,0,1.24-8.78c-1.21-5.52-5.64-9.38-10.79-9.38a11,11,0,0,0-2.34.26l-4.47,1Z"/><path class="cls-2" d="M62.12,16.14A20.85,20.85,0,0,1,82.25,32.76c2.47,11.31-4.07,22.39-15.44,24.88L51.92,60.9l-9-41,14.89-3.26a19.78,19.78,0,0,1,4.29-.47M59,50.88l5.45-1.19c6.74-1.48,10.38-8.11,8.88-15-1.31-6-6.1-10.16-11.77-10.16a12,12,0,0,0-2.56.28L53.5,26,59,50.88m3.17-36.74h0a22.16,22.16,0,0,0-4.72.52L42.51,17.92A2,2,0,0,0,41,20.3l9,41a2,2,0,0,0,.88,1.26,2,2,0,0,0,1.07.32,2,2,0,0,0,.43,0l14.89-3.26a22,22,0,0,0,14.19-10A23.31,23.31,0,0,0,84.2,32.33,23,23,0,0,0,62.12,14.14ZM55.89,27.56l3.49-.77a10.36,10.36,0,0,1,2.13-.23c4.67,0,8.71,3.53,9.82,8.59a11.31,11.31,0,0,1-1.13,8.07A9.45,9.45,0,0,1,64,47.74l-3.5.76L55.89,27.56Z"/><path class="cls-1" d="M91.39,53.71a1,1,0,0,1-1-.86l-5.77-41.6a1,1,0,0,1,.86-1.13l25.67-3.56h.14a1,1,0,0,1,1,.87l1.2,8.67a1,1,0,0,1-.85,1.13L96.87,19.41l.55,4,15-2.08h.14a1,1,0,0,1,1,.86l1.18,8.56a1,1,0,0,1-.19.74,1,1,0,0,1-.66.39l-15,2.08,1.07,7.7L116,39.39h.14a1,1,0,0,1,1,.86L118.36,49a1,1,0,0,1-.2.74,1,1,0,0,1-.66.38l-26,3.61Z"/><path class="cls-2" d="M111.3,7.55l1.2,8.68L95.74,18.55l.83,5.95,16-2.22,1.19,8.56-16,2.21,1.35,9.69,17.05-2.36,1.22,8.73-26,3.6-5.76-41.6L111.3,7.55m0-2-.27,0L85.35,9.13A2,2,0,0,0,84,9.91a2,2,0,0,0-.39,1.48L89.41,53a2,2,0,0,0,2,1.73l.28,0,26-3.6a2,2,0,0,0,1.32-.78,2,2,0,0,0,.39-1.48l-1.21-8.74a2,2,0,0,0-2-1.72,1.32,1.32,0,0,0-.28,0L100.8,40.49,100,34.76l14-1.94a2,2,0,0,0,1.7-2.26L114.54,22a2.06,2.06,0,0,0-.78-1.33,2,2,0,0,0-1.21-.4l-.27,0-14,1.94-.27-2,14.78-2.05a2,2,0,0,0,1.7-2.26l-1.2-8.67a2,2,0,0,0-2-1.73Z"/><path class="cls-1" d="M123.48,49.51a1,1,0,0,1-1-.92l-3-41.9a1,1,0,0,1,.24-.72,1,1,0,0,1,.68-.34L146.3,3.75a1,1,0,0,1,1,.93l.63,8.74a1,1,0,0,1-.24.72,1,1,0,0,1-.69.35l-15.88,1.15.29,4,15.18-1.1a1,1,0,0,1,.65.24,1,1,0,0,1,.34.69l.63,8.61a1,1,0,0,1-.93,1.07l-15.1,1.1.56,7.76L149,36.82a1,1,0,0,1,1,.93l.64,8.8a1,1,0,0,1-.93,1.07Z"/><path class="cls-2" d="M146.3,4.75l.63,8.74-16.88,1.22.44,6,16.1-1.16.62,8.62-16.1,1.16.71,9.76L149,37.82l.64,8.8-26.15,1.89-3-41.89L146.3,4.75m0-2h-.15L120.3,4.63a2,2,0,0,0-1.37.68,2.05,2.05,0,0,0-.48,1.46l3,41.89a2,2,0,0,0,2,1.85h.14l26.16-1.89a2,2,0,0,0,1.85-2.14l-.64-8.8a2,2,0,0,0-2-1.86h-.14l-15.18,1.1-.42-5.77,14.11-1a2,2,0,0,0,1.36-.69,2,2,0,0,0,.49-1.45l-.63-8.62a2,2,0,0,0-2-1.85h-.15l-14.1,1-.15-2,14.89-1.08a2,2,0,0,0,1.36-.68,2.06,2.06,0,0,0,.49-1.46l-.64-8.73a2,2,0,0,0-2-1.86Z"/><path class="cls-1" d="M170.55,47.15a1,1,0,0,1-1-1l.68-42a1,1,0,0,1,1-1l9,.15a1,1,0,0,1,1,1l-.53,32.6,14.84.24a1,1,0,0,1,1,1l-.13,8.4a1.05,1.05,0,0,1-.31.71,1,1,0,0,1-.69.28Z"/><path class="cls-2" d="M171.25,4.15l9,.15-.54,33.6,15.83.26-.13,8.4-24.84-.41.68-42m0-2a2,2,0,0,0-2,2l-.68,42a2,2,0,0,0,2,2l24.84.41h0A2,2,0,0,0,196.8,48a2,2,0,0,0,.61-1.4l.13-8.4a2,2,0,0,0-2-2l-13.84-.23.51-31.6a2,2,0,0,0-2-2l-9-.15Z"/><path class="cls-1" d="M234,50.5l-9.51-.77a1,1,0,0,1-.87-.7l-2.39-7.46-10.63-.87-3.68,7a1,1,0,0,1-.89.53h-.08l-9.51-.78a1,1,0,0,1-.79-1.47l22.27-41.1a1,1,0,0,1,.87-.53h.09a1,1,0,0,1,.86.67L235,49.18a1,1,0,0,1-.94,1.33ZM218.15,31.25,217,27.54,215.25,31Z"/><path class="cls-2" d="M218.76,5.33l15.29,44.18-9.51-.78L222,40.63l-12-1-4,7.56-9.5-.78,22.26-41.1m.8,27-2.4-7.48-3.46,7,5.86.48m-.8-29a2,2,0,0,0-1.75,1l-22.27,41.1a2,2,0,0,0,1.59,3l9.51.77H206a2,2,0,0,0,1.77-1.07l3.38-6.39,9.31.77,2.18,6.82a2,2,0,0,0,1.74,1.38l9.51.78h.16a2,2,0,0,0,1.89-2.66L220.65,4.68a2,2,0,0,0-1.72-1.34Z"/><path class="cls-1" d="M269.51,57a1,1,0,0,1-.84-.46L249.82,27.14l-3.9,24.25a1,1,0,0,1-1,.84l-.16,0-8.53-1.37a.94.94,0,0,1-.65-.4,1,1,0,0,1-.18-.74l6.66-41.47a1,1,0,0,1,1-.84h.16l7.58,1.22a1,1,0,0,1,.67.43l12.76,19,2.54-15.86a1,1,0,0,1,.41-.65,1,1,0,0,1,.58-.19l.16,0,8.53,1.37a1,1,0,0,1,.65.4,1,1,0,0,1,.18.74L270.5,56.13a1,1,0,0,1-.78.82Z"/><path class="cls-2" d="M243.07,8.39l7.58,1.22,14.17,21.12,2.95-18.37,8.53,1.37L269.51,56,249.25,24.39l-4.31,26.84-8.53-1.37,6.66-41.47m0-2a2,2,0,0,0-2,1.68l-6.67,41.47a2,2,0,0,0,.36,1.49,2,2,0,0,0,1.3.8l8.53,1.37a1.73,1.73,0,0,0,.32,0,2,2,0,0,0,2-1.69l3.48-21.66,17.44,27.17a2,2,0,0,0,1.68.92,2.71,2.71,0,0,0,.41,0,2,2,0,0,0,1.57-1.64l6.79-42.24a2,2,0,0,0-.36-1.49,2,2,0,0,0-1.3-.8l-8.53-1.37a1.73,1.73,0,0,0-.32,0,2,2,0,0,0-2,1.68l-2.15,13.35L252.31,8.5A2,2,0,0,0,251,7.64l-7.58-1.22a1.73,1.73,0,0,0-.32,0Z"/><path class="cls-1" d="M296,61.9a21.49,21.49,0,0,1-5.32-.67l-14.77-3.74a1,1,0,0,1-.73-1.21l10.31-40.72a1,1,0,0,1,1.21-.72l14.78,3.74c11.44,2.89,18.32,14.82,15.34,26.58A21.73,21.73,0,0,1,296,61.9Zm-3.44-10.8a10.68,10.68,0,0,0,2.67.34c5.07,0,9.39-3.63,10.76-9a12.23,12.23,0,0,0-1-8.82,10.42,10.42,0,0,0-6.72-5.21l-4.44-1.12L288.1,50Z"/><path class="cls-2" d="M286.44,15.81l14.77,3.74c11,2.78,17.47,14.14,14.62,25.36-2.41,9.52-10.55,16-19.85,16a20.44,20.44,0,0,1-5.08-.64l-14.77-3.74,10.31-40.71m8.77,36.63c5.52,0,10.26-4,11.73-9.78,1.72-6.81-1.71-13.56-8.4-15.25L293.13,26,286.89,50.7l5.41,1.37a11.79,11.79,0,0,0,2.91.37m-8.77-38.63a2,2,0,0,0-1.94,1.51L274.19,56a2,2,0,0,0,1.45,2.43l14.77,3.74a22.49,22.49,0,0,0,5.57.7,22.72,22.72,0,0,0,21.79-17.5c3.12-12.29-4.09-24.76-16.07-27.79l-14.77-3.74a2.12,2.12,0,0,0-.49-.06Zm2.88,35.45,5.26-20.79,3.47.88a9.43,9.43,0,0,1,6.08,4.72,11.22,11.22,0,0,1,.87,8.1c-1.26,4.95-5.19,8.27-9.79,8.27a10,10,0,0,1-2.42-.3l-3.47-.88Z"/><path class="cls-3" d="M9.26,134.16a1,1,0,0,1-1-1v-42a1,1,0,0,1,1-1H25.7a13.13,13.13,0,0,1,13.12,13.12,11.34,11.34,0,0,1-3.15,7.47A12.32,12.32,0,0,1,40,120.2a14,14,0,0,1-14,14ZM25,123.88a3.8,3.8,0,1,0,0-7.6H19.26v7.6Zm-.3-17.63a2.9,2.9,0,1,0,0-5.8H19.26v5.8Z"/><path class="cls-4" d="M25.7,91.17a12.09,12.09,0,0,1,12.12,12.12,10.4,10.4,0,0,1-3.72,7.55A11.25,11.25,0,0,1,39,120.2a13,13,0,0,1-13,13H9.26v-42H25.7m-7.44,16.08h6.48a3.9,3.9,0,1,0,0-7.8H18.26v7.8m0,17.63H25a4.8,4.8,0,1,0,0-9.6H18.26v9.6M25.7,89.17H9.26a2,2,0,0,0-2,2v42a2,2,0,0,0,2,2H26a15,15,0,0,0,15-15,13.34,13.34,0,0,0-3.9-9.52,12.24,12.24,0,0,0,2.76-7.39A14.13,14.13,0,0,0,25.7,89.17Zm-5.44,12.28h4.48a1.9,1.9,0,1,1,0,3.8H20.26v-3.8Zm0,15.83H25a2.8,2.8,0,1,1,0,5.6H20.26v-5.6Z"/><path class="cls-3" d="M60.2,134.94a15.62,15.62,0,0,1-15.88-15.7V91.17a1,1,0,0,1,1-1h8.94a1,1,0,0,1,1,1v28.07a5,5,0,0,0,10,0V91.17a1,1,0,0,1,1-1H75.2a1,1,0,0,1,1,1v28.07A15.68,15.68,0,0,1,60.2,134.94Z"/><path class="cls-4" d="M75.2,91.17v28.07a14.94,14.94,0,0,1-29.88,0V91.17h8.94v28.07a6,6,0,0,0,12,0V91.17H75.2m0-2H66.26a2,2,0,0,0-2,2v28.07a4,4,0,0,1-8,0V91.17a2,2,0,0,0-2-2H45.32a2,2,0,0,0-2,2v28.07a16.61,16.61,0,0,0,16.88,16.7,16.66,16.66,0,0,0,17-16.7V91.17a2,2,0,0,0-2-2Z"/><path class="cls-3" d="M116.06,134.94a1,1,0,0,1-.74-.33L92,108.6v24.56a1,1,0,0,1-1,1H82.4a1,1,0,0,1-1-1v-42a1,1,0,0,1,1-1h7.68a1,1,0,0,1,.73.31l15.61,16.75V91.17a1,1,0,0,1,1-1h8.64a1,1,0,0,1,1,1v42.77a1,1,0,0,1-.64.94A1.13,1.13,0,0,1,116.06,134.94Z"/><path class="cls-4" d="M116.06,91.17v42.77L91,106v27.17H82.4v-42h7.68l17.34,18.59V91.17h8.64m0-2h-8.64a2,2,0,0,0-2,2v13.52L91.54,89.8a2,2,0,0,0-1.46-.63H82.4a2,2,0,0,0-2,2v42a2,2,0,0,0,2,2H91a2,2,0,0,0,2-2V111.22l21.53,24.06a2,2,0,0,0,1.49.66,1.94,1.94,0,0,0,.71-.13,2,2,0,0,0,1.29-1.87V91.17a2,2,0,0,0-2-2Z"/><path class="cls-3" d="M142.76,134.94a22.75,22.75,0,0,1-.06-45.49,22.3,22.3,0,0,1,18,9,.94.94,0,0,1,.2.74,1,1,0,0,1-.38.66l-7.38,5.64a1,1,0,0,1-.61.2h-.16a1,1,0,0,1-.66-.42,11.08,11.08,0,0,0-9-5c-6.1,0-11.06,5.36-11.06,12s5,11.9,11.12,11.9c5.82,0,8.87-3,9.93-6.16H142.58a1,1,0,0,1-1-1v-8a1,1,0,0,1,1-1H164a1,1,0,0,1,1,.83,19.61,19.61,0,0,1,.26,3.47C165.24,125.18,155.58,134.94,142.76,134.94Z"/><path class="cls-4" d="M142.7,90.45a21.29,21.29,0,0,1,17.22,8.63l-7.38,5.64a12.1,12.1,0,0,0-9.84-5.45c-6.66,0-12.06,5.87-12.06,13s5.46,12.9,12.12,12.9c7.14,0,10.5-4.26,11.22-8.16h-11.4v-8H164a20.51,20.51,0,0,1,.24,3.3c0,12-9,21.72-21.48,21.72a21.75,21.75,0,0,1-.06-43.49m0-2a23.75,23.75,0,0,0,.06,47.49,23.22,23.22,0,0,0,16.86-7,23.9,23.9,0,0,0,6.62-16.76,22.58,22.58,0,0,0-.27-3.65,2,2,0,0,0-2-1.65H142.58a2,2,0,0,0-2,2v8a2,2,0,0,0,2,2h8.57c-1.3,2.28-4,4.16-8.39,4.16-5.58,0-10.12-4.89-10.12-10.9s4.51-11,10.06-11a10.07,10.07,0,0,1,8.19,4.59,2,2,0,0,0,1.33.84,1.77,1.77,0,0,0,.32,0,2,2,0,0,0,1.22-.41l7.38-5.64a2,2,0,0,0,.37-2.8,23.3,23.3,0,0,0-18.81-9.42Z"/><path class="cls-3" d="M191.12,134.16a1,1,0,0,1-.92-.62l-3-7.24H176.54l-3.1,7.26a1,1,0,0,1-.92.6H163a1,1,0,0,1-.83-.45,1,1,0,0,1-.08-1L180.91,90a1,1,0,0,1,1.83,0l18.84,42.78a1,1,0,0,1-.08,1,1,1,0,0,1-.84.45Zm-7.79-17.9-1.49-3.59-1.43,3.59Z"/><path class="cls-4" d="M181.82,90.39l18.84,42.77h-9.54l-3.24-7.86h-12l-3.36,7.86H163l18.84-42.77m-2.88,26.87h5.88l-3-7.26-2.88,7.26m2.88-28.87h0A2,2,0,0,0,180,89.58l-18.84,42.78a2,2,0,0,0,1.83,2.8h9.54a2,2,0,0,0,1.84-1.21l2.84-6.65h9.34l2.73,6.63a2,2,0,0,0,1.85,1.23h9.54a2,2,0,0,0,1.83-2.8L183.65,89.58a2,2,0,0,0-1.83-1.19Z"/><path class="cls-3" d="M204.74,134.16a1,1,0,0,1-1-1v-42a1,1,0,0,1,1-1h9a1,1,0,0,1,1,1v32.59h14.84a1,1,0,0,1,1,1v8.4a1,1,0,0,1-1,1Z"/><path class="cls-4" d="M213.74,91.17v33.59h15.84v8.4H204.74v-42h9m0-2h-9a2,2,0,0,0-2,2v42a2,2,0,0,0,2,2h24.84a2,2,0,0,0,2-2v-8.4a2,2,0,0,0-2-2H215.74V91.17a2,2,0,0,0-2-2Z"/><path class="cls-3" d="M250.64,134.94a22.75,22.75,0,1,1,22.48-22.72A22.65,22.65,0,0,1,250.64,134.94Zm-.06-34.67c-6.1,0-11.06,5.36-11.06,12s5,11.9,11.12,11.9,11.06-5.33,11.06-11.9S256.61,100.27,250.58,100.27Z"/><path class="cls-4" d="M250.58,90.45a21.75,21.75,0,1,1-21.48,21.77,21.61,21.61,0,0,1,21.48-21.77m.06,34.67c6.6,0,12.06-5.82,12.06-12.9s-5.52-13-12.12-13-12.06,5.87-12.06,13,5.46,12.9,12.12,12.9m-.06-36.67a23.75,23.75,0,1,0,23.54,23.77,23.65,23.65,0,0,0-23.54-23.77Zm.06,34.67c-5.58,0-10.12-4.89-10.12-10.9s4.51-11,10.06-11,10.12,5,10.12,11-4.51,10.9-10.06,10.9Z"/><path class="cls-3" d="M301,134.94a1,1,0,0,1-.89-.54l-4.63-9.07-4.69,9.07a1,1,0,0,1-.89.54h0a1,1,0,0,1-.89-.6L270.54,91.56a1,1,0,0,1,.09-.94,1,1,0,0,1,.83-.45h9.48a1,1,0,0,1,.84.45h0a1,1,0,0,1,.83-.44H292a1,1,0,0,1,.93.62l8,19.57,7.95-19.57a1,1,0,0,1,.93-.62h9.48a1,1,0,0,1,.83.45,1,1,0,0,1,.09.94L301.9,134.34a1,1,0,0,1-.89.6Z"/><path class="cls-4" d="M319.34,91.17,301,133.94l-5.52-10.8-5.58,10.8L271.46,91.17h9.48l9.9,23.69.9-1.68-9.12-22H292L301,113l8.88-21.83h9.48m0-2h-9.48A2,2,0,0,0,308,90.41l-7,17.3-7.08-17.3A2,2,0,0,0,292,89.17h-9.42a2,2,0,0,0-.84.18,2,2,0,0,0-.84-.18h-9.48a2,2,0,0,0-1.67.9,2,2,0,0,0-.17,1.89L288,134.73a2,2,0,0,0,1.77,1.21h.07a2,2,0,0,0,1.78-1.08l3.79-7.34,3.75,7.33a2,2,0,0,0,1.78,1.09h.07a2,2,0,0,0,1.77-1.21L321.18,92a2,2,0,0,0-1.84-2.78Z"/><path class="cls-3" d="M323.36,134.16a1,1,0,0,1-1-1v-8.82a1,1,0,0,1,1-1H339a3,3,0,1,0,0-6h-5.4a13.55,13.55,0,0,1-13.36-13.72,13.4,13.4,0,0,1,13.36-13.41h14a1,1,0,0,1,1,1v8.58a1,1,0,0,1-1,1H334.28a3,3,0,1,0,0,5.92H340a13.61,13.61,0,0,1,13.6,13.59,13.93,13.93,0,0,1-13.6,13.9Z"/><path class="cls-4" d="M347.6,91.17v8.58H334.28a4,4,0,1,0,0,7.92H340a12.63,12.63,0,0,1,12.6,12.59,12.86,12.86,0,0,1-12.6,12.9H323.36v-8.82H339a4,4,0,1,0,0-8h-5.4a12.61,12.61,0,0,1-12.36-12.72,12.39,12.39,0,0,1,12.36-12.41h14m0-2h-14a14.4,14.4,0,0,0-14.36,14.41,14.56,14.56,0,0,0,14.36,14.72H339a2,2,0,1,1,0,4H323.36a2,2,0,0,0-2,2v8.82a2,2,0,0,0,2,2H340a14.77,14.77,0,0,0,14.6-14.9A14.61,14.61,0,0,0,340,105.67h-5.7a2,2,0,1,1,0-3.92H347.6a2,2,0,0,0,2-2V91.17a2,2,0,0,0-2-2Z"/></svg>