<svg id="Слой_1" data-name="Слой 1" xmlns="http://www.w3.org/2000/svg" viewBox="0 0 76.32 22.2"><defs><style>.cls-1{fill:#261f5b;}</style></defs><title>LogoQF</title><path class="cls-1" d="M3.16,8.56a4.24,4.24,0,0,1,1.27.17,3,3,0,0,1,1,.51,2.22,2.22,0,0,1,.65.81,2.67,2.67,0,0,1,0,2.17,2.18,2.18,0,0,1-.65.82,3.23,3.23,0,0,1-1,.5,4.24,4.24,0,0,1-1.27.18,4.26,4.26,0,0,1-1.28-.18,3.23,3.23,0,0,1-1-.5,2.18,2.18,0,0,1-.65-.82,2.67,2.67,0,0,1,0-2.17,2.22,2.22,0,0,1,.65-.81,3,3,0,0,1,1-.51,4.27,4.27,0,0,1,1.28-.17M.39,14.1A2.24,2.24,0,0,1,1,13.85a4.14,4.14,0,0,1,.7-.06,3,3,0,0,1,.8.12l.85.27.86.27a2.92,2.92,0,0,0,.79.12,2.1,2.1,0,0,0,.84-.15,2,2,0,0,0,.66-.5L6.7,14a2.87,2.87,0,0,1-.34.46,1.91,1.91,0,0,1-.44.41,2,2,0,0,1-1.2.39,2.3,2.3,0,0,1-.64-.09,3.37,3.37,0,0,1-.6-.23c-.19-.09-.37-.19-.55-.29l-.55-.3a3.07,3.07,0,0,0-.54-.22,1.53,1.53,0,0,0-.56-.09,1.63,1.63,0,0,0-.43.05,1.4,1.4,0,0,0-.38.13ZM3.16,8.83A2,2,0,0,0,2.27,9a1.79,1.79,0,0,0-.61.51,2.13,2.13,0,0,0-.36.74,3.12,3.12,0,0,0-.12.88A3.15,3.15,0,0,0,1.3,12a2,2,0,0,0,.36.74,1.59,1.59,0,0,0,.61.51,2,2,0,0,0,.89.19A2,2,0,0,0,4,13.26a1.7,1.7,0,0,0,.62-.51A2,2,0,0,0,5,12a3.15,3.15,0,0,0,.12-.87A3.12,3.12,0,0,0,5,10.26a2.11,2.11,0,0,0-.35-.74A1.93,1.93,0,0,0,4,9a2,2,0,0,0-.88-.18"/><path class="cls-1" d="M6.34,8.66c.45,0,.91.05,1.37.05s.93,0,1.4-.05l0,.18a2.46,2.46,0,0,0-.46.06A.55.55,0,0,0,8.37,9a.48.48,0,0,0-.11.25c0,.11,0,.25,0,.42v2.48a1.14,1.14,0,0,0,.08.4,1.1,1.1,0,0,0,.26.36A1.53,1.53,0,0,0,9,13.2a2.2,2.2,0,0,0,.67.1,1.91,1.91,0,0,0,.78-.14,1.33,1.33,0,0,0,.49-.34,1.22,1.22,0,0,0,.25-.44,1.48,1.48,0,0,0,.07-.44V10.1a3.57,3.57,0,0,0,0-.62.82.82,0,0,0-.14-.38.6.6,0,0,0-.27-.2,1.44,1.44,0,0,0-.45-.06V8.66l.45,0,.57,0,.48,0,.48,0v.18a1.7,1.7,0,0,0-.4.06.48.48,0,0,0-.23.14.57.57,0,0,0-.1.25c0,.11,0,.25,0,.42v2a1.85,1.85,0,0,1-.55,1.44,2.18,2.18,0,0,1-1.56.52,3.47,3.47,0,0,1-1-.14,2.16,2.16,0,0,1-.71-.37,1.33,1.33,0,0,1-.42-.5,1.1,1.1,0,0,1-.14-.55V9.71a1.86,1.86,0,0,0,0-.36.47.47,0,0,0-.11-.26.51.51,0,0,0-.26-.17,1.83,1.83,0,0,0-.48-.08Z"/><path class="cls-1" d="M13,13.42a1.38,1.38,0,0,0,.41-.07.49.49,0,0,0,.24-.15.47.47,0,0,0,.1-.25,2.21,2.21,0,0,0,0-.39V9.72a1.86,1.86,0,0,0,0-.36.55.55,0,0,0-.1-.27.6.6,0,0,0-.24-.16A1.89,1.89,0,0,0,13,8.87V8.66l.77,0,.76,0,1.45,0,1.46,0v1a2.52,2.52,0,0,0,.06.41l-.17,0a1.64,1.64,0,0,0-.57-.86A1.92,1.92,0,0,0,15.59,9h-.84v1.81h.39a1.2,1.2,0,0,0,.38,0,1.09,1.09,0,0,0,.35-.15,1.11,1.11,0,0,0,.28-.29,1.35,1.35,0,0,0,.18-.44h.15c0,.17,0,.35,0,.53s0,.35,0,.53,0,.36,0,.53,0,.36,0,.54h-.15a1.71,1.71,0,0,0-.17-.47,1.05,1.05,0,0,0-.26-.29.89.89,0,0,0-.34-.16,1.42,1.42,0,0,0-.42,0h-.39v2.22l.4.08.49,0A2.52,2.52,0,0,0,17,13a2.84,2.84,0,0,0,1-1.08l.14.11c-.13.26-.24.53-.36.79a8,8,0,0,0-.29.82l-1.16,0h-3l-.36,0Z"/><path class="cls-1" d="M18.34,13.42a1.38,1.38,0,0,0,.41-.07A.42.42,0,0,0,19,13.2a.41.41,0,0,0,.11-.25,2.21,2.21,0,0,0,0-.39V9.72a1.86,1.86,0,0,0,0-.36A.47.47,0,0,0,19,9.09a.5.5,0,0,0-.23-.16,1.89,1.89,0,0,0-.41-.06V8.66l.77,0,.76,0,1.45,0,1.46,0v1a1.76,1.76,0,0,0,.06.41l-.17,0a1.64,1.64,0,0,0-.57-.86A1.92,1.92,0,0,0,21,9h-.84v1.81h.39a1.2,1.2,0,0,0,.38,0,1.09,1.09,0,0,0,.35-.15,1.11,1.11,0,0,0,.28-.29,1.35,1.35,0,0,0,.18-.44h.15c0,.17,0,.35,0,.53s0,.35,0,.53,0,.36,0,.53,0,.36,0,.54H21.7a1.71,1.71,0,0,0-.17-.47,1.08,1.08,0,0,0-.27-.29.82.82,0,0,0-.34-.16,1.32,1.32,0,0,0-.41,0h-.39v2.22l.4.08.49,0A2.46,2.46,0,0,0,22.33,13a2.79,2.79,0,0,0,1-1.08l.14.11c-.13.26-.24.53-.36.79a8,8,0,0,0-.29.82l-1.16,0h-3l-.36,0Z"/><path class="cls-1" d="M23.65,13.42a4.88,4.88,0,0,0,.55-.12.54.54,0,0,0,.44-.5,4,4,0,0,0,0-.54l0-2.91a.85.85,0,0,0-.22-.2A1.26,1.26,0,0,0,24.22,9a2.15,2.15,0,0,0-.27-.1l-.29-.08V8.66l.4,0,.39,0c.34,0,.68,0,1-.05.49.62,1,1.22,1.51,1.81s1,1.2,1.48,1.83h0v-.6c0-.25,0-.5,0-.76s0-.52,0-.76,0-.46-.07-.63a.93.93,0,0,0-.1-.32.7.7,0,0,0-.18-.2,1,1,0,0,0-.26-.12l-.33-.07V8.66l.53,0,.53,0c.35,0,.69,0,1-.05v.18a1.75,1.75,0,0,0-.47.08.47.47,0,0,0-.25.23,1.05,1.05,0,0,0-.12.42c0,.18,0,.4,0,.68v3.43h-.44c-.15-.23-.32-.48-.51-.73l-.6-.79c-.2-.26-.41-.52-.63-.77l-.6-.72-.54-.61L25,9.6v2.53a4.82,4.82,0,0,0,0,.61.73.73,0,0,0,.13.36.56.56,0,0,0,.29.2,4.88,4.88,0,0,0,.53.12v.18l-.55,0H24.26l-.61,0Z"/><path class="cls-1" d="M30,10.32l.18-.17a.82.82,0,0,0,.11-.17.64.64,0,0,0,.06-.18,1.62,1.62,0,0,0,0-.23.84.84,0,0,0-.07-.32,1.13,1.13,0,0,1-.06-.36c0-.35.15-.53.47-.53a.39.39,0,0,1,.35.17A.7.7,0,0,1,31.2,9a1.22,1.22,0,0,1-.09.46,1.34,1.34,0,0,1-.23.4,1.82,1.82,0,0,1-.34.34,3.6,3.6,0,0,1-.4.28Z"/><path class="cls-1" d="M35.42,10.15a1.64,1.64,0,0,0-.24-.52,2.62,2.62,0,0,0-.39-.42,1.83,1.83,0,0,0-.49-.28,1.39,1.39,0,0,0-.53-.1A.92.92,0,0,0,33.2,9a.61.61,0,0,0-.23.53.57.57,0,0,0,.21.45,2.1,2.1,0,0,0,.53.34l.7.32a4.58,4.58,0,0,1,.69.37,2.22,2.22,0,0,1,.53.53,1.31,1.31,0,0,1,.22.76,1.42,1.42,0,0,1-.13.59,1.39,1.39,0,0,1-.36.44,1.64,1.64,0,0,1-.56.28,2.21,2.21,0,0,1-1.11.07l-.37-.07L33,13.53a2.31,2.31,0,0,0-.37,0H32.5l-.11,0-.1,0-.09,0-.12-.85c0-.28-.11-.57-.18-.86h.17a1.65,1.65,0,0,0,.27.55,2.22,2.22,0,0,0,.44.48,2.15,2.15,0,0,0,.54.34,1.31,1.31,0,0,0,.57.13,2.89,2.89,0,0,0,.45,0,1.43,1.43,0,0,0,.35-.12.56.56,0,0,0,.22-.24.68.68,0,0,0,.08-.37.69.69,0,0,0-.21-.51,2.3,2.3,0,0,0-.55-.37c-.21-.11-.45-.22-.7-.33a3.84,3.84,0,0,1-.7-.36,1.91,1.91,0,0,1-.54-.47,1.08,1.08,0,0,1-.22-.69,1.2,1.2,0,0,1,.43-1,2.15,2.15,0,0,1,1.29-.31,3,3,0,0,1,.43,0l.4.08.35.08.31,0h.27c0,.09,0,.17,0,.24s0,.15,0,.23,0,.3,0,.45,0,.3,0,.45Z"/><path class="cls-1" d="M75.9,10.15a1.64,1.64,0,0,0-.24-.52,2.19,2.19,0,0,0-.38-.42,1.94,1.94,0,0,0-.48-.28,1.37,1.37,0,0,0-.52-.1.88.88,0,0,0-.57.17.61.61,0,0,0-.23.53.57.57,0,0,0,.21.45,1.94,1.94,0,0,0,.53.34c.21.11.44.21.68.32a4,4,0,0,1,.68.37,2.05,2.05,0,0,1,.53.53,1.31,1.31,0,0,1,.21.76,1.41,1.41,0,0,1-.12.59,1.27,1.27,0,0,1-.36.44,1.5,1.5,0,0,1-.55.28,2.38,2.38,0,0,1-.73.11,2.46,2.46,0,0,1-.37,0l-.36-.07-.37-.08a2.31,2.31,0,0,0-.37,0H73l-.1,0-.11,0-.08,0-.12-.85c0-.28-.11-.57-.17-.86h.16a1.84,1.84,0,0,0,.26.55,2.51,2.51,0,0,0,.44.48,2.28,2.28,0,0,0,.53.34,1.38,1.38,0,0,0,.57.13,3,3,0,0,0,.45,0,1.5,1.5,0,0,0,.34-.12A.56.56,0,0,0,75.4,13a.68.68,0,0,0,.08-.37.69.69,0,0,0-.21-.51,2.44,2.44,0,0,0-.54-.37c-.21-.11-.45-.22-.7-.33a4.1,4.1,0,0,1-.69-.36,2.06,2.06,0,0,1-.54-.47,1.13,1.13,0,0,1-.21-.69,1.22,1.22,0,0,1,.42-1,2.14,2.14,0,0,1,1.28-.31,3,3,0,0,1,.43,0l.39.08.35.08.3,0H76C76,8.87,76,9,76,9v.23c0,.15,0,.3,0,.45s0,.3,0,.45Z"/><path class="cls-1" d="M39.91,10.76h.38a1.24,1.24,0,0,0,.38,0,1.14,1.14,0,0,0,.34-.15,1.11,1.11,0,0,0,.28-.29,1.35,1.35,0,0,0,.18-.44h.14c0,.17,0,.35,0,.53s0,.35,0,.53,0,.36,0,.53,0,.36,0,.54h-.14a1.91,1.91,0,0,0-.15-.46.8.8,0,0,0-.23-.3.78.78,0,0,0-.33-.16,1.65,1.65,0,0,0-.47,0h-.38v1.72a1.42,1.42,0,0,0,0,.31.33.33,0,0,0,.13.21.7.7,0,0,0,.26.12,2.71,2.71,0,0,0,.46,0v.21l-.7,0H38.76l-.62,0v-.21a2,2,0,0,0,.4,0,.55.55,0,0,0,.23-.12.36.36,0,0,0,.11-.21,1.35,1.35,0,0,0,0-.31v-3a1.94,1.94,0,0,0,0-.36.67.67,0,0,0-.11-.27.59.59,0,0,0-.23-.16,1.89,1.89,0,0,0-.41-.06V8.66l.76,0,.76,0,1.42,0,1.43,0a2.44,2.44,0,0,0,0,.27v.26c0,.16,0,.31,0,.47a2.45,2.45,0,0,0,0,.46H42.4a1.53,1.53,0,0,0-.55-.91A2,2,0,0,0,40.73,9h-.82Z"/><path class="cls-1" d="M43.69,9.57a.8.8,0,0,0-.06-.34A.54.54,0,0,0,43.48,9a.9.9,0,0,0-.24-.12,2.61,2.61,0,0,0-.32-.06V8.66c.44,0,.89.05,1.34.05s.91,0,1.37-.05v.18a3.43,3.43,0,0,0-.34.06A1.25,1.25,0,0,0,45,9a.73.73,0,0,0-.22.21.66.66,0,0,0-.08.34v3.69a1.55,1.55,0,0,0,.29,0h.4a2.64,2.64,0,0,0,.72-.08,1.52,1.52,0,0,0,.56-.26,1.91,1.91,0,0,0,.46-.44,4.42,4.42,0,0,0,.38-.62l.18.08a7.75,7.75,0,0,0-.33.79,7.1,7.1,0,0,0-.25.82l-1,0H44l-1.07,0v-.18l.29,0a.61.61,0,0,0,.25-.07.4.4,0,0,0,.18-.16.47.47,0,0,0,.07-.28Z"/><path class="cls-1" d="M50.84,8.56A3.47,3.47,0,0,1,52,8.73a2.64,2.64,0,0,1,.9.51,2.29,2.29,0,0,1,.59.81,2.91,2.91,0,0,1,0,2.17,2.24,2.24,0,0,1-.59.82,2.8,2.8,0,0,1-.9.5,3.47,3.47,0,0,1-1.15.18,3.55,3.55,0,0,1-1.15-.18,2.86,2.86,0,0,1-.89-.5,2.13,2.13,0,0,1-.59-.82,2.91,2.91,0,0,1,0-2.17,2.18,2.18,0,0,1,.59-.81,2.69,2.69,0,0,1,.89-.51,3.55,3.55,0,0,1,1.15-.17m0,.27a1.65,1.65,0,0,0-.79.18,1.82,1.82,0,0,0-.56.51,2.48,2.48,0,0,0-.32.74,3.88,3.88,0,0,0,0,1.75,2.37,2.37,0,0,0,.32.74,1.6,1.6,0,0,0,.56.51,1.76,1.76,0,0,0,1.59,0,1.49,1.49,0,0,0,.55-.51,2.17,2.17,0,0,0,.33-.74,3.88,3.88,0,0,0,0-1.75,2.26,2.26,0,0,0-.33-.74A1.68,1.68,0,0,0,51.64,9a1.66,1.66,0,0,0-.8-.18"/><path class="cls-1" d="M53.29,8.66l.49,0,.48,0c.4,0,.8,0,1.2-.05v.18h-.19a.47.47,0,0,0-.17,0A.45.45,0,0,0,55,9a.34.34,0,0,0,0,.19.71.71,0,0,0,0,.19l.15.43c.06.18.13.37.21.59l.24.68.24.67c.08.22.15.43.21.61h0l.8-2.08c-.11-.31-.2-.56-.28-.74a2.46,2.46,0,0,0-.22-.41.59.59,0,0,0-.23-.2,1.1,1.1,0,0,0-.29-.09V8.66c.37,0,.73.05,1.08.05l.63,0,.62,0v.18l-.21,0a.87.87,0,0,0-.22.05.34.34,0,0,0-.17.11.24.24,0,0,0-.08.19,1.06,1.06,0,0,0,.07.28c0,.15.1.33.17.54s.14.42.23.66l.25.69c.08.23.16.43.23.61s.13.32.16.42l.14-.35.23-.55.26-.66q.13-.35.24-.66a4.94,4.94,0,0,0,.18-.55,1.38,1.38,0,0,0,.07-.35.38.38,0,0,0-.06-.22.42.42,0,0,0-.16-.13.68.68,0,0,0-.2-.07l-.19,0V8.66l.46,0,.47,0,.42,0,.43,0v.18a1.67,1.67,0,0,0-.3.07.74.74,0,0,0-.21.13,1.46,1.46,0,0,0-.16.19l-.14.26-.21.45c-.09.2-.18.43-.29.68l-.35.82-.34.84c-.12.28-.22.54-.31.78s-.17.44-.23.6h-.26l-1.09-3c-.2.52-.4,1-.62,1.53l-.64,1.51H55.5L54.06,9.6A2.09,2.09,0,0,0,54,9.3a1.28,1.28,0,0,0-.14-.23.65.65,0,0,0-.21-.16.89.89,0,0,0-.31-.07Z"/><path class="cls-1" d="M61.43,13.42a1.31,1.31,0,0,0,.4-.07.42.42,0,0,0,.23-.15.48.48,0,0,0,.11-.25,2.21,2.21,0,0,0,0-.39V9.72a1.86,1.86,0,0,0,0-.36.55.55,0,0,0-.11-.27.5.5,0,0,0-.23-.16,1.79,1.79,0,0,0-.4-.06V8.66l.76,0,.75,0,1.43,0,1.45,0c0,.09,0,.18,0,.27v.26c0,.16,0,.31,0,.46s0,.28.05.41l-.16,0a1.68,1.68,0,0,0-.56-.86A1.91,1.91,0,0,0,64,9h-.83v1.81h.38a1.4,1.4,0,0,0,.73-.2,1.26,1.26,0,0,0,.27-.29,1.35,1.35,0,0,0,.18-.44h.15c0,.17,0,.35,0,.53s0,.35,0,.53,0,.36,0,.53,0,.36,0,.54h-.15a1.71,1.71,0,0,0-.17-.47.92.92,0,0,0-.26-.29A.82.82,0,0,0,64,11a1.32,1.32,0,0,0-.41,0h-.38v2.22l.39.08.49,0A2.45,2.45,0,0,0,65.38,13a2.75,2.75,0,0,0,1-1.08l.14.11c-.12.26-.24.53-.35.79a8,8,0,0,0-.29.82l-1.15,0H61.79l-.36,0Z"/><path class="cls-1" d="M66.69,8.68l.54,0h.59c.27,0,.53,0,.8,0l.84,0a2.17,2.17,0,0,1,.69.11,1.67,1.67,0,0,1,.52.31,1.48,1.48,0,0,1,.34.46,1.56,1.56,0,0,1,.11.57,1.26,1.26,0,0,1-.08.46,1.21,1.21,0,0,1-.24.35,1.54,1.54,0,0,1-.35.24,2.41,2.41,0,0,1-.43.15c.1.17.23.37.38.6s.33.46.51.67a3.65,3.65,0,0,0,.6.58,1.48,1.48,0,0,0,.65.3v.14l-.42,0H71l-.37,0a12,12,0,0,1-.86-1A12.17,12.17,0,0,1,69,11.41l-.29-.05a.67.67,0,0,1-.24-.09v1.29c0,.17,0,.31,0,.42a.44.44,0,0,0,.1.24.37.37,0,0,0,.22.13,2.63,2.63,0,0,0,.41.07v.18l-.57,0H67.36l-.67,0v-.18a2.74,2.74,0,0,0,.43-.07.4.4,0,0,0,.24-.13.53.53,0,0,0,.1-.24c0-.11,0-.25,0-.42V9.72c0-.15,0-.27,0-.38a.67.67,0,0,0-.1-.26.48.48,0,0,0-.24-.16,1.84,1.84,0,0,0-.43-.08ZM68.47,11a1.25,1.25,0,0,0,.5.11,1.11,1.11,0,0,0,.79-.28,1,1,0,0,0,.3-.8A1.55,1.55,0,0,0,70,9.58a1.08,1.08,0,0,0-.21-.34A.94.94,0,0,0,69.46,9a1.07,1.07,0,0,0-.41-.08l-.29,0L68.47,9Z"/><path class="cls-1" d="M47.37,3.56a7.49,7.49,0,0,1,2.34.88l2.13,1.23a7.18,7.18,0,0,0,2.2.84,2,2,0,0,0,.42,0,2.23,2.23,0,0,0,1.08-.38,1.78,1.78,0,0,1-.39.39,2.12,2.12,0,0,1-1.28.4,4.14,4.14,0,0,1-.65-.08,3,3,0,0,1-.89-.31A3.38,3.38,0,0,1,51.54,6a5.23,5.23,0,0,1,0,.62.67.67,0,0,1-.16.4A2,2,0,0,1,50.53,6a1,1,0,0,1-.27.63.76.76,0,0,1-.56.21,1,1,0,0,1-.25,0,.69.69,0,0,1-.25-.09l-.06,0a1.68,1.68,0,0,0,.42-.34,1,1,0,0,0,.18-.49,1.4,1.4,0,0,0-.53-1.14,3.24,3.24,0,0,0-1.84-1ZM38.9,5a1.52,1.52,0,0,0,.36.12,2.17,2.17,0,0,0,.38,0,1.29,1.29,0,0,0,1-.37,1.38,1.38,0,0,0,.37-1,1.28,1.28,0,0,0-.35-1,1.08,1.08,0,0,0-.77-.27.63.63,0,0,0-.43.13.48.48,0,0,0-.13.35.19.19,0,0,0,.13.18c.19.1.29.19.29.27a.18.18,0,0,1-.2.2.5.5,0,0,1-.37-.15A.53.53,0,0,1,39,3.07a.69.69,0,0,1,.25-.5.8.8,0,0,1,.6-.25,1.53,1.53,0,0,1,1,.3,1.2,1.2,0,0,1,.48,1,1.43,1.43,0,0,1-.36.93,2,2,0,0,1-1,.63l0,0a2.69,2.69,0,0,0,1.23-.56A4.25,4.25,0,0,0,41.83,4a1.81,1.81,0,0,0,.4-1.08l.18,0c.14.06.2.19.2.39,0,0,0,.12,0,.22a1.48,1.48,0,0,1,1.21-.64,1.17,1.17,0,0,1,.74.26,2,2,0,0,0-.76.2,4.76,4.76,0,0,0-.82.48c-.43.31-.84.62-1.26.94A3.22,3.22,0,0,1,40,5.32a1.73,1.73,0,0,0,.32,0,2.85,2.85,0,0,0,.78-.12,3.11,3.11,0,0,0,.74-.31l.94-.54a4.42,4.42,0,0,1,2-.63,3.81,3.81,0,0,1,2.72.91,3.5,3.5,0,0,1,1,1.69,1.41,1.41,0,0,1,.06.35.39.39,0,0,1-.07.23.32.32,0,0,1-.23.08c-.06,0-.1,0-.12-.14a1.49,1.49,0,0,1,0-.33A3.27,3.27,0,0,0,48,6a2.25,2.25,0,0,0-1.31-1.69,4.53,4.53,0,0,0-2-.42,3.76,3.76,0,0,0-1.53.44l-1.46.75a3.58,3.58,0,0,1-1.45.34,2.46,2.46,0,0,1-1.37-.4Zm-.74-.09a.89.89,0,0,1,.24-.64A.71.71,0,0,1,38.9,4h.16c.06,0,.1,0,.1.14s-.14.1-.4.18a.5.5,0,0,0-.4.55,1,1,0,0,0,.42.83,2.21,2.21,0,0,0,1.35.36,3.16,3.16,0,0,0,1.21-.32l1.4-.65a4.71,4.71,0,0,1,1.69-.34A3.15,3.15,0,0,1,46,5.16a1.47,1.47,0,0,1,1,1.29.82.82,0,0,1-.16.49.48.48,0,0,1-.43.22.58.58,0,0,1-.51-.2.27.27,0,0,1,0-.12A.19.19,0,0,1,46,6.62a.28.28,0,0,1,.2.13.31.31,0,0,0,.22.12.26.26,0,0,0,.19-.08.33.33,0,0,0,.06-.21.53.53,0,0,0-.34-.52,2.17,2.17,0,0,0-.86-.15h-.21l-.2,0c-1,.31-1.87.57-2.51.75A6.52,6.52,0,0,1,40.76,7a3,3,0,0,1-2-.54,2,2,0,0,1-.64-1.57m2.06,1.9a2.08,2.08,0,0,0,.58.08,4.75,4.75,0,0,0,1.64-.39l1.65-.66.54-.19a3.83,3.83,0,0,1,.58-.16,1.61,1.61,0,0,0-.41-.27,1.15,1.15,0,0,0-.41-.08,4.8,4.8,0,0,0-1.49.29L41.49,6a3.56,3.56,0,0,1-1.1.3,1,1,0,0,0,.27.06,1.55,1.55,0,0,0,.31,0,2.34,2.34,0,0,0,.56-.06c.15,0,.35-.09.59-.17a3.86,3.86,0,0,1-.81.48,2.8,2.8,0,0,1-1.09.19M35.71,2a.36.36,0,0,1,.13-.25.53.53,0,0,1,.34-.11.56.56,0,0,1,.36.15,2.81,2.81,0,0,1,0-.3,2,2,0,0,1,.06-.28,2.18,2.18,0,0,1,.22-.71A1.38,1.38,0,0,1,37.17,0a1.49,1.49,0,0,1,.33.48,2.26,2.26,0,0,1,.23.71,2.54,2.54,0,0,1,.07.58A.47.47,0,0,1,38,1.66a.43.43,0,0,1,.19,0,.5.5,0,0,1,.32.11.33.33,0,0,1,.13.25.51.51,0,0,0-.46.29,2,2,0,0,0-.23.74,1.66,1.66,0,0,1-.17.75c-.12.23-.24.34-.35.34a4.69,4.69,0,0,0,.16-1c0-.42-.14-.63-.41-.63s-.41.21-.41.65a6,6,0,0,0,.14,1c-.09,0-.2-.12-.31-.35A2.33,2.33,0,0,1,36.37,3a1.33,1.33,0,0,0-.19-.71A.54.54,0,0,0,35.71,2m1,2.54c0-.14.15-.21.47-.21s.47.07.47.21a.16.16,0,0,1-.13.18,1.78,1.78,0,0,1-.34,0c-.32,0-.47-.06-.47-.2M27.39,6.45a1.46,1.46,0,0,1,.94-1.29,3.12,3.12,0,0,1,1.54-.41,4.7,4.7,0,0,1,1.69.33L33,5.73a3,3,0,0,0,1.2.33,2.21,2.21,0,0,0,1.34-.35A1,1,0,0,0,36,4.87a.53.53,0,0,0-.4-.56c-.26-.08-.39-.13-.39-.17S35.24,4,35.4,4a.67.67,0,0,1,.49.22.89.89,0,0,1,.25.66,2,2,0,0,1-.63,1.57,3,3,0,0,1-2,.54,6.41,6.41,0,0,1-1.77-.3l-2.54-.76-.19,0h-.22A2,2,0,0,0,28,6a.58.58,0,0,0-.39.54c0,.19.09.29.25.29a.24.24,0,0,0,.17-.07q.19-.18.24-.18a.19.19,0,0,1,.17.08.22.22,0,0,1,0,.28.35.35,0,0,1-.09.11.77.77,0,0,1-.4.07.54.54,0,0,1-.44-.24.82.82,0,0,1-.14-.47m-1.53-.1a3.48,3.48,0,0,1,.95-1.68,3.84,3.84,0,0,1,2.72-.92,4.44,4.44,0,0,1,2,.62l1,.55a3.14,3.14,0,0,0,.75.32,3,3,0,0,0,.82.13l.26,0a3.56,3.56,0,0,1-2.06-.82l-.92-.71a4.79,4.79,0,0,0-.82-.47,2,2,0,0,0-.77-.21,1.2,1.2,0,0,1,.75-.26,1.3,1.3,0,0,1,.65.18,1.51,1.51,0,0,1,.54.46s0-.12,0-.2a.41.41,0,0,1,.2-.4l.2,0a1.52,1.52,0,0,0,.12.54,2,2,0,0,0,.29.54,4.21,4.21,0,0,0,.62.72,2.71,2.71,0,0,0,1.22.56v0a2,2,0,0,1-1-.62A1.5,1.5,0,0,1,33,3.64a1.21,1.21,0,0,1,.47-1,1.52,1.52,0,0,1,1-.31.81.81,0,0,1,.6.24.72.72,0,0,1,.24.51.48.48,0,0,1-.14.36.45.45,0,0,1-.36.16.18.18,0,0,1-.2-.2.21.21,0,0,1,.13-.19c.19-.09.29-.18.29-.26a.48.48,0,0,0-.13-.35.57.57,0,0,0-.43-.13,1.15,1.15,0,0,0-.77.25,1.35,1.35,0,0,0-.35,1,1.38,1.38,0,0,0,.37,1,1.3,1.3,0,0,0,1,.37A2,2,0,0,0,35.4,5v.09a2.45,2.45,0,0,1-1.38.4,3.42,3.42,0,0,1-1.43-.34c-.62-.33-1.1-.58-1.45-.74a3.84,3.84,0,0,0-1.55-.45,4.48,4.48,0,0,0-2,.42,2.19,2.19,0,0,0-1.16,1.2A2.41,2.41,0,0,0,26.3,6a3.1,3.1,0,0,0-.05.54,1.56,1.56,0,0,1,0,.35.13.13,0,0,1-.14.12c-.19,0-.28-.1-.28-.3a.67.67,0,0,1,0-.18,1.68,1.68,0,0,0,0-.18m3.23-.89a4.09,4.09,0,0,1,.48.13l.66.22c.23.08.63.24,1.21.48a6,6,0,0,0,2.05.57,2.16,2.16,0,0,0,.59-.08A2.85,2.85,0,0,1,33,6.6a3.85,3.85,0,0,1-.81-.49l.57.16a3.46,3.46,0,0,0,.6.07h.23a1,1,0,0,0,.32-.08A3.42,3.42,0,0,1,32.83,6l-1.42-.56a4.83,4.83,0,0,0-1.5-.3,1.25,1.25,0,0,0-.42.08,1.28,1.28,0,0,0-.4.27m-10.34.81a2.26,2.26,0,0,0,1.11.38,2,2,0,0,0,.41-.05,7.09,7.09,0,0,0,2.18-.84l2.13-1.23a8.08,8.08,0,0,1,2.34-.89v.17a3.2,3.2,0,0,0-1.83,1c-.41.45-.59.83-.53,1.15a1,1,0,0,0,.19.48,1.55,1.55,0,0,0,.42.35l-.1,0-.23.09-.23,0c-.49,0-.77-.28-.83-.84A1.93,1.93,0,0,1,23,7.13a.9.9,0,0,1-.14-.41c0-.2,0-.41,0-.61a3.1,3.1,0,0,1-.75.52,3.37,3.37,0,0,1-1,.36,4.47,4.47,0,0,1-.63.06,2.13,2.13,0,0,1-1.28-.38,2.13,2.13,0,0,1-.4-.4"/><path class="cls-1" d="M26.92,18.64a8,8,0,0,1-2.34-.88l-2.13-1.24a7.23,7.23,0,0,0-2.19-.84,2,2,0,0,0-.42,0,2.2,2.2,0,0,0-1.09.37,1.94,1.94,0,0,1,.39-.38,2.08,2.08,0,0,1,1.28-.4,3.79,3.79,0,0,1,.65.07,2.91,2.91,0,0,1,.89.32,3.18,3.18,0,0,1,.79.56c0-.24,0-.45,0-.62a.86.86,0,0,1,.16-.41,2.06,2.06,0,0,1,.82,1.06,1,1,0,0,1,.26-.63.79.79,0,0,1,.56-.21,1,1,0,0,1,.25,0l.25.09.07,0a1.14,1.14,0,0,0-.42.34,1,1,0,0,0-.19.49c-.06.31.12.69.53,1.13a3.28,3.28,0,0,0,1.84,1Zm8.47-1.41a1.27,1.27,0,0,0-.36-.12,1.48,1.48,0,0,0-.38,0,1.29,1.29,0,0,0-.94.37,1.38,1.38,0,0,0-.37,1,1.3,1.3,0,0,0,.34,1,1.07,1.07,0,0,0,.77.26.57.57,0,0,0,.43-.13.46.46,0,0,0,.14-.34.22.22,0,0,0-.14-.19c-.19-.09-.28-.18-.28-.26a.18.18,0,0,1,.2-.2.5.5,0,0,1,.5.52.71.71,0,0,1-.25.5.82.82,0,0,1-.6.25,1.53,1.53,0,0,1-1-.3,1.24,1.24,0,0,1-.47-1,1.43,1.43,0,0,1,.35-.92,2,2,0,0,1,1-.63l0-.05a2.69,2.69,0,0,0-1.23.56,4.9,4.9,0,0,0-.63.73,1.79,1.79,0,0,0-.39,1.08.44.44,0,0,1-.19,0,.38.38,0,0,1-.2-.38c0-.05,0-.12,0-.23a1.48,1.48,0,0,1-1.21.65,1.15,1.15,0,0,1-.74-.27,2,2,0,0,0,.76-.2,4.81,4.81,0,0,0,.83-.47l1.26-.94a3.24,3.24,0,0,1,1.71-.58,1.66,1.66,0,0,0-.32,0,2.78,2.78,0,0,0-.77.12,3.36,3.36,0,0,0-.74.31l-.94.54a4.49,4.49,0,0,1-2,.63,3.86,3.86,0,0,1-2.72-.9,3.58,3.58,0,0,1-1-1.69,1.38,1.38,0,0,1-.05-.36.31.31,0,0,1,.07-.22.27.27,0,0,1,.23-.08c.05,0,.09,0,.12.13a1.72,1.72,0,0,1,0,.34c0,.22,0,.39,0,.5a2.39,2.39,0,0,0,1.32,1.69,4.45,4.45,0,0,0,2,.42,3.72,3.72,0,0,0,1.54-.45l1.46-.75A3.5,3.5,0,0,1,34,16.73a2.45,2.45,0,0,1,1.37.41Zm.74.09a.87.87,0,0,1-.24.63.66.66,0,0,1-.5.25h-.15c-.07,0-.1-.05-.1-.13s.13-.11.4-.18a.51.51,0,0,0,.39-.55,1,1,0,0,0-.42-.83,2.16,2.16,0,0,0-1.34-.37,3,3,0,0,0-1.21.33l-1.41.65a4.93,4.93,0,0,1-1.69.34A3.22,3.22,0,0,1,28.33,17a1.48,1.48,0,0,1-.95-1.29.86.86,0,0,1,.15-.49A.5.5,0,0,1,28,15a.56.56,0,0,1,.51.21.23.23,0,0,1,0,.11c0,.15-.07.22-.21.22s-.12,0-.2-.12a.29.29,0,0,0-.22-.12.22.22,0,0,0-.18.08.28.28,0,0,0-.07.21.51.51,0,0,0,.35.51,2,2,0,0,0,.85.16H29l.2,0q1.55-.48,2.52-.75a6.4,6.4,0,0,1,1.79-.31,3,3,0,0,1,2,.54,1.92,1.92,0,0,1,.64,1.57m-2.05-1.9a2.16,2.16,0,0,0-.59-.08,4.71,4.71,0,0,0-1.63.39l-1.66.66-.54.19a4.74,4.74,0,0,1-.57.15,1.18,1.18,0,0,0,.4.27,1,1,0,0,0,.41.08,4.71,4.71,0,0,0,1.49-.28l1.42-.55A3.52,3.52,0,0,1,33.9,16a1.38,1.38,0,0,0-.26-.07l-.31,0a3,3,0,0,0-.56.05l-.59.18a3.27,3.27,0,0,1,.81-.48,2.76,2.76,0,0,1,1.09-.19m4.5,4.8a.3.3,0,0,1-.13.24.47.47,0,0,1-.33.11.61.61,0,0,1-.37-.14,2.53,2.53,0,0,1,0,.29,1,1,0,0,1-.05.28,2.61,2.61,0,0,1-.22.72,1.65,1.65,0,0,1-.34.48,1.44,1.44,0,0,1-.34-.48,2.87,2.87,0,0,1-.23-.72,3.07,3.07,0,0,1-.06-.57.81.81,0,0,1-.2.11.58.58,0,0,1-.19,0,.49.49,0,0,1-.32-.1.32.32,0,0,1-.12-.25.53.53,0,0,0,.45-.29,1.79,1.79,0,0,0,.23-.75,1.54,1.54,0,0,1,.18-.75c.12-.22.23-.33.34-.33a5.2,5.2,0,0,0-.15,1c0,.42.13.63.41.63s.4-.22.4-.65a5.14,5.14,0,0,0-.14-1c.1,0,.2.11.31.34a2.1,2.1,0,0,1,.22.75,1.34,1.34,0,0,0,.19.72.58.58,0,0,0,.47.31m-1-2.54c0,.14-.16.21-.47.21s-.48-.07-.48-.21a.17.17,0,0,1,.14-.18,1.58,1.58,0,0,1,.34,0c.31,0,.47.07.47.21m9.31-1.93A1.5,1.5,0,0,1,46,17a3.3,3.3,0,0,1-1.55.41,4.74,4.74,0,0,1-1.69-.33l-1.42-.65a3.07,3.07,0,0,0-1.19-.34,2.17,2.17,0,0,0-1.35.36,1,1,0,0,0-.42.84.51.51,0,0,0,.39.55q.39.12.39.18c0,.09-.08.14-.24.14a.64.64,0,0,1-.48-.22.9.9,0,0,1-.26-.66,1.92,1.92,0,0,1,.64-1.57,3,3,0,0,1,2-.54,6.29,6.29,0,0,1,1.76.3l2.54.76h.41a2,2,0,0,0,.82-.13.57.57,0,0,0,.38-.54c0-.19-.08-.29-.25-.29a.22.22,0,0,0-.17.07c-.12.11-.2.17-.24.17a.17.17,0,0,1-.17-.08.21.21,0,0,1,0-.27.35.35,0,0,1,.09-.11.77.77,0,0,1,.4-.08.51.51,0,0,1,.44.24.81.81,0,0,1,.15.48m1.52.1a3.41,3.41,0,0,1-1,1.68,3.82,3.82,0,0,1-2.72.91,4.32,4.32,0,0,1-2-.62l-.95-.55a3.47,3.47,0,0,0-.76-.32,2.94,2.94,0,0,0-.81-.12l-.27,0a3.7,3.7,0,0,1,2.07.83l.91.71a4.2,4.2,0,0,0,.82.46,2.08,2.08,0,0,0,.77.21,1.15,1.15,0,0,1-.75.27,1.3,1.3,0,0,1-.65-.18,1.73,1.73,0,0,1-.54-.47,1.21,1.21,0,0,1,0,.2c0,.2-.06.34-.2.4a.69.69,0,0,1-.2,0,1.44,1.44,0,0,0-.11-.54,2.86,2.86,0,0,0-.29-.55,5.27,5.27,0,0,0-.62-.72A2.91,2.91,0,0,0,40,17V17a1.85,1.85,0,0,1,1,.62,1.42,1.42,0,0,1,.35.93,1.19,1.19,0,0,1-.47,1,1.53,1.53,0,0,1-1,.31.81.81,0,0,1-.61-.25.71.71,0,0,1-.24-.5.57.57,0,0,1,.14-.37.5.5,0,0,1,.37-.15.18.18,0,0,1,.2.2.2.2,0,0,1-.14.18c-.19.1-.28.19-.28.27a.5.5,0,0,0,.12.35.64.64,0,0,0,.44.12,1.07,1.07,0,0,0,.76-.25,1.29,1.29,0,0,0,.35-1,1.37,1.37,0,0,0-.37-1,1.3,1.3,0,0,0-1-.38,2,2,0,0,0-.73.16v-.09a2.46,2.46,0,0,1,1.38-.41,3.43,3.43,0,0,1,1.44.34c.62.33,1.1.58,1.44.74a3.93,3.93,0,0,0,1.55.46,4.53,4.53,0,0,0,2-.42,2.24,2.24,0,0,0,1.16-1.21A2.13,2.13,0,0,0,48,16.2a2.47,2.47,0,0,0,0-.54,1.56,1.56,0,0,1,0-.35.13.13,0,0,1,.14-.12.26.26,0,0,1,.29.29.68.68,0,0,1,0,.19c0,.07,0,.13,0,.18m-3.22.88-.49-.12-.66-.23c-.22-.07-.62-.23-1.21-.48a6.08,6.08,0,0,0-2.05-.56,2.08,2.08,0,0,0-.58.08,3.16,3.16,0,0,1,1.09.17,4.59,4.59,0,0,1,.81.5,5.94,5.94,0,0,0-.58-.16,2.58,2.58,0,0,0-.6-.07h-.23a1,1,0,0,0-.32.08,3.15,3.15,0,0,1,1.08.28l1.42.56a5.08,5.08,0,0,0,1.5.29A1,1,0,0,0,44.8,17a1,1,0,0,0,.41-.27m10.33-.8a2.1,2.1,0,0,0-1.1-.38,2.85,2.85,0,0,0-.41,0,7.23,7.23,0,0,0-2.19.84l-2.13,1.24a8,8,0,0,1-2.34.88v-.16a3.26,3.26,0,0,0,1.83-1c.41-.45.59-.83.53-1.15a1,1,0,0,0-.18-.48,1.69,1.69,0,0,0-.42-.35.21.21,0,0,1,.09,0,.72.72,0,0,1,.24-.09.79.79,0,0,1,.23,0c.48,0,.76.28.83.83.27-.59.54-1,.82-1.06a.84.84,0,0,1,.15.41c0,.21,0,.41,0,.62a3.12,3.12,0,0,1,.75-.53,3.46,3.46,0,0,1,1-.35,3.42,3.42,0,0,1,.62-.07,2.13,2.13,0,0,1,1.28.39,1.86,1.86,0,0,1,.4.4"/></svg>