<svg id="Слой_1" data-name="Слой 1" xmlns="http://www.w3.org/2000/svg" viewBox="0 0 259.76 110.6"><defs><style>.cls-1,.cls-2{fill:#333;}.cls-2{font-size:24px;font-family:ArialRoundedMTBold, Arial Rounded MT Bold;}.cls-3{letter-spacing:-0.02em;}</style></defs><title>LogoGBH</title><path class="cls-1" d="M173.29,66c-.3.29-.59.6-.86.91-2.44,2.93-5.37,4.91-9.3,5.24-3.17.28-6.31.89-9.48,1.06a65,65,0,0,1-21.06-2c-5-1.35-10-2.48-15-3.79-.67-.18-1.2-.89-1.79-1.35a5.72,5.72,0,0,1,1.91-.87c2.39-.18,4.81,0,7.2-.18a7.67,7.67,0,0,0,2.87-.88,1.74,1.74,0,0,0,.65-1.46,1.91,1.91,0,0,0-1-1.17,18,18,0,0,0-2.29-.51c-2-.51-4.08-1.07-6.08-1.62v-.68a9.29,9.29,0,0,1,1.87-.53c2.46-.13,4.94-.08,7.38-.31a3.11,3.11,0,0,0,2.32-1.26c.55-1.07-.44-1.6-1.38-2.07a1.9,1.9,0,0,1-1-1.48c.07-.47.77-1,1.31-1.23a12.14,12.14,0,0,1,2.38-.57l-1.6-2.15c-1.3-1.74-1-2.47,1.08-3l1.56-.37v-.54a13,13,0,0,0-2.35-.71c-1.6-.21-3.22-.32-4.84-.41-2.52-.15-5-.24-7.37,1.1a4.94,4.94,0,0,1-2.46.34c-4.06-.07-8.06-.28-12.06-.28A5.54,5.54,0,0,0,99.4,47c-1,1.17-.77,2,.44,2.54a44.27,44.27,0,0,0,4.46,1.81c.85.31,1.37.8.68,1.54a5.71,5.71,0,0,1-2.26,1.39c-1.26.42-2.78.3-3.44,1.61a37.83,37.83,0,0,1,5.08,1.59c.71.34,1.07,1.44,1.59,2.19-.75.2-1.52.36-2.25.61-.51.18-1.38.45-1.38.72a2.19,2.19,0,0,0,.68,1.76A17.69,17.69,0,0,0,105.63,64a6.61,6.61,0,0,1,1.11,1c-.34.31-.62.74-1,.91-3.13,1.38-6.34,2.58-9.4,4.11a28.63,28.63,0,0,0-4.28,3.21l.3.64a6.92,6.92,0,0,0,1.64.08c2.69-.42,5.34-.93,8-1.42,7-1.28,13.9-2,20.9-.15,4,1,8,2.27,12,3.21a56.71,56.71,0,0,0,10,1.78c5.58.26,11.08-.9,16.58-2,4.77-.94,8.69-2.94,11.55-6.87a14.47,14.47,0,0,0,1.11-2.55C173.51,66,173.36,65.94,173.29,66ZM120.51,54.57c-1.13,1.42-4.12,1.47-5.49,0A4.7,4.7,0,0,1,120.51,54.57Z"/><path class="cls-1" d="M143.57,9.9c2.41.29,5.83,4,5.63,6.53-2.57-4-5.65-4.46-9.21-1.95-2.16,1.47-2.69,3.45-2,6.17.52-2.54,2.17-3.84,3.87-5.06,1.32-.92,3.08-1,4,.08a24.91,24.91,0,0,1,3.33,5.85,1.36,1.36,0,0,1,.18.68A1.43,1.43,0,0,1,148,23.63a1.54,1.54,0,0,0-1,1c0,.37.52.73.86,1.18s1.06,1,1,1.34a27,27,0,0,1-1.36,6.42c-2.16,5.17-4.84,10.13-7,15.31-2.41,5.79-4.9,11.46-9.6,15.68,1.61,3.19,4.52,3.82,7.85,3.65,1.59-.08,2.36-.61,2.44-2.35a24.38,24.38,0,0,1,.88-5.62c.6-2.12,1.6-4.13,2.31-6.21,1.18-3.41,2.12-7,3.45-10.41a60.92,60.92,0,0,0,3.94-14.9,3.2,3.2,0,0,1,1-1.46,12.76,12.76,0,0,1,1.41-1.11L153,24.9l1.37-1.2L151.91,22c.45-.77.72-1.93,1.51-2.49,1.89-1.28,5.75-.17,7.06,1.72L163,24.75c.79-1.87.4-3.54-1.07-5.64-2.67-3.83-6.09-1.74-9.27-1.08-.73-2.51,0-4.48,2.18-5.19,2.87-.94,5.65-.89,8,1.46.71.7,1.49,1.34,2.49,2.26a7.06,7.06,0,0,0,.16-2.47c-.87-2.5-3.26-4.79-6.26-4.38-2,.26-3.86.59-6,.92.2-1.08.53-2.38.67-3.71.23-2.13.22-4.31-1.77-5.71s-6.33-1.66-8.22-.4c1.51.41,2.8.73,4.12,1.11s2.63.91,2.63,2.53c.06,1.86,0,3.72-.08,5.58a11.59,11.59,0,0,1-.54,2c-1.89-2.89-3.57-5.2-7.14-5S136.33,8.22,135,9.82A73.91,73.91,0,0,1,143.57,9.9Z"/><path class="cls-1" d="M113,35.09c1.76-1.23,3.47-2.54,5.21-3.8a2.05,2.05,0,0,1,2.87,0,66.83,66.83,0,0,0,14.81,8.11,11.3,11.3,0,0,0,2.95.42l.15-.6L136.63,38c-2.61-1.39-5.3-2.62-7.77-4.21-2.24-1.4-4.51-2.93-5.45-5.56L126.09,26l-.38-.7a10.9,10.9,0,0,0-2.46.59c-3.14,1.62-6.31,3.18-9.31,5.08A115,115,0,0,1,88.48,43.12c-3,1-3.47,2-2.2,4.91a15.93,15.93,0,0,0,1.35,2c5.59-3,11.08-5.84,16.41-8.88C107.14,39.35,110,37.15,113,35.09Z"/><text class="cls-2" transform="translate(11.92 104.75)">GREEN BE<tspan class="cls-3" x="125.79" y="0">A</tspan><tspan x="142.45" y="0">CH HUT</tspan></text></svg>