<svg id="Слой_1" data-name="Слой 1" xmlns="http://www.w3.org/2000/svg" xmlns:xlink="http://www.w3.org/1999/xlink" viewBox="0 0 37.25 50.41"><defs><style>.cls-1,.cls-5{fill:none;}.cls-2{fill:#161616;}.cls-3{clip-path:url(#clip-path);}.cls-4{fill:#fbba00;}.cls-5{stroke:#005621;stroke-miterlimit:10;stroke-width:0.25px;}.cls-6{fill:#010102;}.cls-7{fill:#005621;}.cls-8{fill:#cf130e;}</style><clipPath id="clip-path"><rect class="cls-1" width="37.25" height="50.41"/></clipPath></defs><title>Logoyamo</title><polygon class="cls-2" points="5.43 45.2 3.35 41.22 1.66 41.95 4.57 46.91 3.11 49.68 4.87 50.22 8.94 41.8 7.25 41.22 5.43 45.2"/><path class="cls-2" d="M12.47,44.42l.93,2H11.52ZM8.24,49.54l1.57.65,1-2.25H14l1,2.25,1.76-.7-4.37-8.57Z"/><path class="cls-2" d="M29.76,44.63l2.36-1.47,1.92,3L32,48Zm-2.38-.09,4.41,5.87,4.54-3.8-4-6Z"/><polygon class="cls-2" points="22.46 47.03 19.35 40.95 17.56 49.78 19.3 50.2 20.06 45.71 22.44 50.34 24.85 45.65 25.62 50.2 27.42 49.73 25.55 40.95 22.46 47.03"/><g class="cls-3"><path class="cls-4" d="M2,3.18c.56,0,1,.88,1.48.28.3-.38-.42-1.39.14-1.71s1.43,1.07,2,.94c.42-.1.61-1.41,1.11-1.51s1.14,1,1.62.92S9.07.73,9.54.67s.85,1.24,1.35,1.38,1.25-.89,1.72-.76.86,1.42,1.33,1.38.67-1.36,1.13-1.52,1.27.85,1.72.71S17.49.41,18,.38s1,1.17,1.48,1.13S20.25.2,20.71.16s1,1.17,1.45,1.16,1.07-1.14,1.53-1,.62,1.44,1.07,1.56,1.11-1,1.56-1,.86,1.28,1.3,1.32,1.08-1.1,1.52-1,.77,1.36,1.19,1.42,1.25-1.06,1.71-1,.7,1.44,1.07,1.61c.67.3,1.76-1.83,2-.67a2.54,2.54,0,0,0,0,1.47c.26.16,1-.27,1.23.23.14.32-.89,1.11-.78,1.58s1.25.83,1.16,1.33-1.39.69-1.46,1.16,1.12.93,1.18,1.38-1.2.88-1.25,1.33,1.09,1,1,1.46-1.3.84-1.27,1.29,1.31.73,1.38,1.16-1.08,1.05-1,1.48,1.33.76,1.35,1.2-1.17,1-1.13,1.4,1.32.75,1.37,1.18-1.16.93-1.16,1.36,1.24.85,1.27,1.28-1.15,1-1.12,1.4,1.27.89,1.24,1.31-1.33.65-1.48,1.06.8,1.29.62,1.68-1.53.49-1.6.89,1.07,1.08,1,1.47-1,.61-1,.94c-.14.65,1.29,1,.37,1.68-.58.45-1.09-.44-1.54-.13-.26.17.11,1.17-.41,1.33-.36.11-1.09-1-1.56-.87S30.8,35,30.32,35s-1-1.14-1.46-1.1-.76,1.3-1.22,1.35-1.15-1-1.61-.85-.48,1.48-.92,1.61-1.11-1-1.57-.92-.9,1.23-1.36,1.2-.81-1.31-1.26-1.35-.94,1.15-1.39,1.17-.83-1.25-1.29-1.33-1.1,1-1.54,1-.8-1.36-1.25-1.36-.74,1.3-1.2,1.45S13,35,12.55,35.12s-.77,1.46-1.22,1.44S10.7,35.21,10.27,35s-1.43.6-1.83.36S8,33.72,7.56,33.65s-1,1.1-1.37,1.06c-.5-.05-.5-1.24-.8-1.29-.64-.1-1.37,1.22-1.77.69s.57-1.17.13-1.55-1.48.29-1.73-.21.77-1.27.64-1.77S1.29,30,1.24,29.51s1.14-1,1.1-1.42S1,27.38,1,26.94s1.1-1,1-1.44S.69,24.79.64,24.35s1.14-1,1.1-1.41S.43,22.2.38,21.77s1.14-1,1.11-1.4S.19,19.6.16,19.17,1.44,18.44,1.58,18,.75,16.76.89,16.34s1.47-.7,1.46-1.13-1.23-.86-1.22-1.28,1.25-.82,1.26-1.23-1.19-.9-1.17-1.32,1.21-.9,1.17-1.31S1.08,9.31,1,8.91s1.17-.84,1.22-1.23-1.13-.87-1.1-1.17c0-.45,1.26-.72,1.27-1C2.47,5,.16,3.28,2,3.18"/><path class="cls-5" d="M2,3.18c.56,0,1,.88,1.48.28.3-.38-.42-1.39.14-1.71s1.43,1.07,2,.94c.42-.1.61-1.41,1.11-1.51s1.14,1,1.62.92S9.07.73,9.54.67s.85,1.24,1.35,1.38,1.25-.89,1.72-.76.86,1.42,1.33,1.38.67-1.36,1.13-1.52,1.27.85,1.72.71S17.49.41,18,.38s1,1.17,1.48,1.13S20.25.2,20.71.16s1,1.17,1.45,1.16,1.07-1.14,1.53-1,.62,1.44,1.07,1.56,1.11-1,1.56-1,.86,1.28,1.3,1.32,1.08-1.1,1.52-1,.77,1.36,1.19,1.42,1.25-1.06,1.71-1,.7,1.44,1.07,1.61c.67.3,1.76-1.83,2-.67a2.54,2.54,0,0,0,0,1.47c.26.16,1-.27,1.23.23.14.32-.89,1.11-.78,1.58s1.25.83,1.16,1.33-1.39.69-1.46,1.16,1.12.93,1.18,1.38-1.2.88-1.25,1.33,1.09,1,1,1.46-1.3.84-1.27,1.29,1.31.73,1.38,1.16-1.08,1.05-1,1.48,1.33.76,1.35,1.2-1.17,1-1.13,1.4,1.32.75,1.37,1.18-1.16.93-1.16,1.36,1.24.85,1.27,1.28-1.15,1-1.12,1.4,1.27.89,1.24,1.31-1.33.65-1.48,1.06.8,1.29.62,1.68-1.53.49-1.6.89,1.07,1.08,1,1.47-1,.61-1,.94c-.14.65,1.29,1,.37,1.68-.58.45-1.09-.44-1.54-.13-.26.17.11,1.17-.41,1.33-.36.11-1.09-1-1.56-.87S30.8,35,30.32,35s-1-1.14-1.46-1.1-.76,1.3-1.22,1.35-1.15-1-1.61-.85-.48,1.48-.92,1.61-1.11-1-1.57-.92-.9,1.23-1.36,1.2-.81-1.31-1.26-1.35-.94,1.15-1.39,1.17-.83-1.25-1.29-1.33-1.1,1-1.54,1-.8-1.36-1.25-1.36-.74,1.3-1.2,1.45S13,35,12.55,35.12s-.77,1.46-1.22,1.44S10.7,35.21,10.27,35s-1.43.6-1.83.36S8,33.72,7.56,33.65s-1,1.1-1.37,1.06c-.5-.05-.5-1.24-.8-1.29-.64-.1-1.37,1.22-1.77.69s.57-1.17.13-1.55-1.48.29-1.73-.21.77-1.27.64-1.77S1.29,30,1.24,29.51s1.14-1,1.1-1.42S1,27.38,1,26.94s1.1-1,1-1.44S.69,24.79.64,24.35s1.14-1,1.1-1.41S.43,22.2.38,21.77s1.14-1,1.11-1.4S.19,19.6.16,19.17,1.44,18.44,1.58,18,.75,16.76.89,16.34s1.47-.7,1.46-1.13-1.23-.86-1.22-1.28,1.25-.82,1.26-1.23-1.19-.9-1.17-1.32,1.21-.9,1.17-1.31S1.08,9.31,1,8.91s1.17-.84,1.22-1.23-1.13-.87-1.1-1.17c0-.45,1.26-.72,1.27-1C2.47,5,.16,3.28,2,3.18Z"/><path class="cls-6" d="M18.17,25.25a5.74,5.74,0,0,1-.26-1.58,5.63,5.63,0,0,1,.49-2.59c.09-.22.19-.44.3-.65l.13.09.4.22c-.07.15-.06.13-.15.35a7.13,7.13,0,0,0-.59,2.52A5.65,5.65,0,0,0,19.24,26a10.87,10.87,0,0,0,1,1.29,14.28,14.28,0,0,1,.94,1.12,9.35,9.35,0,0,1,1.31,2.1l-.08.05c-.59-.7-1.2-1.36-1.82-2l-.95-1a6.83,6.83,0,0,1-.93-1.11h0a4.78,4.78,0,0,1-.05,1.36A4.3,4.3,0,0,1,18,29.36a3.55,3.55,0,0,1-1.17,1.11,7.47,7.47,0,0,0,1.2-2.76,8.74,8.74,0,0,0,.1-2.46"/><path class="cls-6" d="M20.71,15.47a6,6,0,0,1,0,.74,7.81,7.81,0,0,1-.35,2.09l-.12-.08c-.12-.08-.24-.14-.36-.21a5.43,5.43,0,0,0,.28-2.14,2.17,2.17,0,0,0,0-.36c-3.2-.06-5.28-4.46-5.24-4.7s.18,0,.18,0c.84,1.62,2.84,4,5,4A7.34,7.34,0,0,0,19,12a1.5,1.5,0,0,1-1.43-.74,1.35,1.35,0,0,1,.13-1.88,1.36,1.36,0,0,1,1.79.6,1.35,1.35,0,0,1-.12,1.87,5.81,5.81,0,0,1,1.32,2.91C23.2,14.17,23.18,10,23.18,10c.1-.31.21,0,.21,0s.08,4.93-2.68,5.42"/><path class="cls-6" d="M18.75,20.24c-1.2-.79-1.91-1.82-1.58-2.34s1.42-.36,2.58.27l.36.21.12.08c1.21.8,1.92,1.83,1.59,2.35s-1.39.36-2.54-.25l-.4-.23-.13-.09"/><path class="cls-6" d="M11.22,25.24A6.09,6.09,0,0,0,11,21.07c-.09-.22-.19-.44-.3-.65l-.13.09-.4.22c.07.15.06.14.15.35a7.13,7.13,0,0,1,.59,2.52A5.65,5.65,0,0,1,10.15,26a10.87,10.87,0,0,1-1,1.29c-.3.35-.68.75-.94,1.12a9.41,9.41,0,0,0-1.31,2.11l.08,0c.59-.7,1.2-1.36,1.82-2l1-.95a6.83,6.83,0,0,0,.93-1.11h0a4.78,4.78,0,0,0,.05,1.36,4.22,4.22,0,0,0,.64,1.53,3.55,3.55,0,0,0,1.17,1.11,7.47,7.47,0,0,1-1.2-2.76,8.74,8.74,0,0,1-.1-2.46"/><path class="cls-6" d="M8.68,15.46a6,6,0,0,0,0,.74,7.75,7.75,0,0,0,.35,2.09l.12-.08a3.24,3.24,0,0,1,.36-.2,5.5,5.5,0,0,1-.28-2.15,2.17,2.17,0,0,1,0-.36c3.2-.06,5.28-4.46,5.24-4.7s-.18,0-.18,0c-.84,1.62-2.84,4-5,4A7.34,7.34,0,0,1,10.44,12a1.51,1.51,0,0,0,1.43-.73,1.36,1.36,0,0,0-.13-1.89A1.37,1.37,0,0,0,10,10a1.35,1.35,0,0,0,.12,1.87,5.81,5.81,0,0,0-1.32,2.91C6.19,14.17,6.21,10,6.21,10,6.11,9.71,6,10,6,10S5.92,15,8.68,15.46"/><path class="cls-6" d="M10.64,20.24c1.2-.8,1.91-1.83,1.58-2.35s-1.42-.36-2.58.28a3.24,3.24,0,0,0-.36.2l-.12.08c-1.21.8-1.92,1.83-1.59,2.35s1.39.36,2.54-.25l.4-.22.13-.09"/><path class="cls-7" d="M11.1,25.18a6.08,6.08,0,0,0,.27-1.58,5.53,5.53,0,0,0-.5-2.59c-.09-.22-.19-.44-.29-.65l-.14.09-.39.23.14.34a7.13,7.13,0,0,1,.59,2.52A5.51,5.51,0,0,1,10,25.9a10.87,10.87,0,0,1-1,1.29c-.3.36-.67.75-.94,1.12a9.64,9.64,0,0,0-1.31,2.11l.08,0c.59-.7,1.2-1.36,1.82-2l.95-.95a6.36,6.36,0,0,0,.93-1.11h0a4.44,4.44,0,0,0,.06,1.36,4.2,4.2,0,0,0,.63,1.53A3.65,3.65,0,0,0,12.4,30.4a7.67,7.67,0,0,1-1.2-2.75,8.83,8.83,0,0,1-.1-2.47"/><path class="cls-7" d="M8.56,15.4a6,6,0,0,0,0,.74,7.75,7.75,0,0,0,.35,2.09l.13-.08a2.43,2.43,0,0,1,.35-.2,5.5,5.5,0,0,1-.28-2.15c0-.12,0-.24,0-.36,3.2-.06,5.28-4.46,5.24-4.7s-.18,0-.18,0c-.84,1.62-2.84,4-5,4a7.34,7.34,0,0,1,1.11-2.82,1.51,1.51,0,0,0,1.43-.73,1.36,1.36,0,0,0-.13-1.89,1.37,1.37,0,0,0-1.79.6A1.36,1.36,0,0,0,10,11.76a5.76,5.76,0,0,0-1.31,2.91C6.07,14.11,6.1,10,6.1,10c-.11-.31-.22,0-.22,0s-.07,4.93,2.68,5.42"/><path class="cls-8" d="M10.52,20.18c1.2-.8,1.91-1.83,1.58-2.35s-1.42-.35-2.58.28a3.24,3.24,0,0,0-.36.2L9,18.39c-1.21.8-1.92,1.83-1.59,2.35s1.39.36,2.54-.25l.4-.22.13-.09"/><path class="cls-4" d="M10.66,9.56c-.27.11-.67.52-.54.86.12.19.23-.13.62-.32s.54-.07.67-.21,0-.29-.06-.34-.51-.08-.7,0"/><path class="cls-6" d="M29,25.24a5.69,5.69,0,0,0,.27-1.58,5.53,5.53,0,0,0-.5-2.59c-.09-.22-.19-.44-.29-.65l-.13.09-.4.22c.06.15.05.14.14.35a7.13,7.13,0,0,1,.59,2.52A5.51,5.51,0,0,1,28,26a10.87,10.87,0,0,1-1,1.29c-.3.35-.67.75-.94,1.12a9.41,9.41,0,0,0-1.31,2.11l.09,0c.58-.7,1.19-1.36,1.82-2l.94-.95a6,6,0,0,0,.93-1.11h0a4.78,4.78,0,0,0,.05,1.36,4.2,4.2,0,0,0,.63,1.53,3.75,3.75,0,0,0,1.17,1.11,7.64,7.64,0,0,1-1.2-2.76,9.56,9.56,0,0,1-.1-2.46"/><path class="cls-6" d="M26.48,15.46c0,.25,0,.5,0,.74a7.75,7.75,0,0,0,.36,2.09l.12-.08a3.12,3.12,0,0,1,.35-.2,5.5,5.5,0,0,1-.28-2.15c0-.12,0-.24,0-.36,3.2-.06,5.28-4.46,5.24-4.7s-.18,0-.18,0c-.84,1.62-2.83,4-5,4A7.5,7.5,0,0,1,28.24,12a1.51,1.51,0,0,0,1.43-.73,1.36,1.36,0,0,0-.13-1.89,1.37,1.37,0,0,0-1.79.6,1.36,1.36,0,0,0,.12,1.87,5.8,5.8,0,0,0-1.31,2.91C24,14.17,24,10,24,10c-.11-.31-.22,0-.22,0s-.07,4.93,2.68,5.42"/><path class="cls-6" d="M28.44,20.24c1.21-.8,1.91-1.83,1.59-2.35s-1.43-.36-2.59.28a2.43,2.43,0,0,0-.35.2.57.57,0,0,0-.13.08c-1.21.8-1.92,1.83-1.59,2.35s1.39.36,2.54-.25l.4-.22.13-.09"/><path class="cls-7" d="M28.9,25.18a5.69,5.69,0,0,0,.27-1.58,5.53,5.53,0,0,0-.5-2.59c-.09-.22-.19-.44-.29-.65l-.13.09-.4.23L28,21a6.91,6.91,0,0,1,.59,2.52,5.51,5.51,0,0,1-.75,2.36,10.87,10.87,0,0,1-1,1.29c-.3.36-.67.75-.94,1.12a9.23,9.23,0,0,0-1.3,2.11l.08,0c.58-.7,1.19-1.36,1.82-2l.94-.95a6.41,6.41,0,0,0,.94-1.11h0a4.78,4.78,0,0,0,0,1.36A4.2,4.2,0,0,0,29,29.29,3.75,3.75,0,0,0,30.2,30.4,7.67,7.67,0,0,1,29,27.65a9.65,9.65,0,0,1-.1-2.47"/><path class="cls-7" d="M26.37,15.4a6.06,6.06,0,0,0,0,.74,7.75,7.75,0,0,0,.36,2.09l.12-.08c.12-.08.24-.14.35-.2a5.5,5.5,0,0,1-.28-2.15c0-.12,0-.24,0-.36,3.2-.06,5.28-4.46,5.24-4.7s-.18,0-.18,0c-.84,1.62-2.83,4-5,4a7.32,7.32,0,0,1,1.1-2.82,1.51,1.51,0,0,0,1.43-.73,1.36,1.36,0,0,0-.13-1.89,1.37,1.37,0,0,0-1.79.6,1.35,1.35,0,0,0,.13,1.87,5.77,5.77,0,0,0-1.32,2.91C23.88,14.11,23.9,10,23.9,10c-.1-.31-.22,0-.22,0s-.07,4.93,2.69,5.42"/><path class="cls-8" d="M28.32,20.18c1.21-.8,1.91-1.83,1.59-2.35s-1.42-.35-2.59.28a3.12,3.12,0,0,0-.35.2l-.13.08c-1.21.8-1.92,1.83-1.59,2.35s1.39.36,2.54-.25l.4-.22.13-.09"/><path class="cls-4" d="M28.47,9.56c-.28.11-.68.52-.55.86.13.19.24-.13.63-.32s.53-.07.66-.21,0-.29-.05-.34-.51-.08-.71,0"/><path class="cls-8" d="M18.07,25.18A6.09,6.09,0,0,1,18.3,21l.3-.65.13.09.4.23c-.07.14-.05.13-.14.34a6.91,6.91,0,0,0-.59,2.52,5.51,5.51,0,0,0,.75,2.36,10.87,10.87,0,0,0,1,1.29c.29.36.67.75.93,1.12a8.94,8.94,0,0,1,1.31,2.11l-.08,0c-.58-.7-1.19-1.36-1.82-2l-.94-.95a6.41,6.41,0,0,1-.94-1.11h0a4.78,4.78,0,0,1-.05,1.36A4.2,4.2,0,0,1,18,29.29a3.75,3.75,0,0,1-1.17,1.11A7.65,7.65,0,0,0,18,27.65a8.83,8.83,0,0,0,.1-2.47"/><path class="cls-8" d="M20.61,15.4a6.06,6.06,0,0,1,0,.74,8.16,8.16,0,0,1-.36,2.09l-.12-.08c-.12-.08-.24-.14-.35-.2a5.5,5.5,0,0,0,.28-2.15c0-.12,0-.24,0-.36-3.19-.06-5.27-4.46-5.24-4.7s.19,0,.19,0c.84,1.62,2.83,4,5,4a7.18,7.18,0,0,0-1.11-2.82,1.51,1.51,0,0,1-1.42-.73,1.36,1.36,0,0,1,.12-1.89,1.36,1.36,0,0,1,1.79.6,1.35,1.35,0,0,1-.12,1.87,5.77,5.77,0,0,1,1.32,2.91C23.1,14.11,23.08,10,23.08,10c.1-.31.22,0,.22,0s.07,4.93-2.69,5.42"/><path class="cls-7" d="M18.66,20.18c-1.21-.8-1.92-1.83-1.59-2.35s1.42-.35,2.59.28a3.12,3.12,0,0,1,.35.2l.12.08c1.21.8,1.93,1.83,1.6,2.35s-1.4.36-2.54-.25l-.4-.22-.13-.09"/><path class="cls-4" d="M18,9.4c-.28,0-.45.34-.53.48l0,.16c0,.18,0,.59.24.61s.26-.06.27-.35.24-.3.34-.49A.28.28,0,0,0,18,9.4"/><path class="cls-6" d="M6.88,8.19A1.15,1.15,0,1,1,5,6.91a1.18,1.18,0,0,1,1.62-.34,1.16,1.16,0,0,1,.3,1.62"/><path class="cls-6" d="M15.67,8.19a1.15,1.15,0,1,1-1.92-1.28,1.15,1.15,0,1,1,1.92,1.28"/><path class="cls-6" d="M24.6,8.19a1.15,1.15,0,1,1-1.92-1.28A1.15,1.15,0,1,1,24.6,8.19"/><path class="cls-6" d="M33.17,8.19a1.15,1.15,0,1,1-1.92-1.28,1.18,1.18,0,0,1,1.62-.34,1.16,1.16,0,0,1,.3,1.62"/><path class="cls-8" d="M6.82,8.08a1.16,1.16,0,1,1-.31-1.62,1.17,1.17,0,0,1,.31,1.62"/><path class="cls-4" d="M6.5,7.6a.78.78,0,1,1-.2-1.1.79.79,0,0,1,.2,1.1"/><path class="cls-7" d="M15.56,8.08A1.15,1.15,0,0,1,14,8.41a1.17,1.17,0,1,1,1.61-.33"/><path class="cls-4" d="M15.21,7.62a.79.79,0,0,1-1.08.23.8.8,0,0,1-.21-1.1.78.78,0,1,1,1.29.87"/><path class="cls-8" d="M24.52,8.08a1.16,1.16,0,1,1-.31-1.62,1.17,1.17,0,0,1,.31,1.62"/><path class="cls-4" d="M24.2,7.6a.78.78,0,1,1-1.3-.87A.79.79,0,0,1,24,6.5a.79.79,0,0,1,.2,1.1"/><path class="cls-7" d="M33.06,8.08a1.16,1.16,0,1,1-.31-1.62,1.17,1.17,0,0,1,.31,1.62"/><path class="cls-4" d="M32.71,7.62a.8.8,0,0,1-1.09.23.79.79,0,0,1-.2-1.1.78.78,0,1,1,1.29.87"/></g></svg>