<svg id="Слой_1" data-name="Слой 1" xmlns="http://www.w3.org/2000/svg" viewBox="0 0 58.28 22.84"><defs><style>.cls-1{fill:#bf171a;}.cls-2{fill:#fff;}.cls-3{fill:#181716;}</style></defs><title>LogoDDLR</title><path class="cls-1" d="M18.23,10.22a12.5,12.5,0,0,1-1.43,2,11.19,11.19,0,0,0-6.08-5.31,5,5,0,0,1-1.2-.41,7,7,0,0,1,2.15-.89c.35-.11.76-.23,1.2-.33A4.17,4.17,0,0,1,14.16,5c.44.14.86.71,1.24,1.08a13.23,13.23,0,0,1,2.83,4.12"/><path class="cls-1" d="M10.8,7.84C9.27,9.67,7.27,12,7.59,15.52a4.74,4.74,0,0,1,.12,1.3,9.24,9.24,0,0,1-1.78-1.07c-1.06-.79-2-1.31-1.88-3.23.16-2.93,1.55-4.83,4.45-5a5.82,5.82,0,0,1,2.3.33"/><path class="cls-1" d="M16.08,12.89a2,2,0,0,1-.53.63,1.68,1.68,0,0,1-1.39.56A8,8,0,0,1,9.29,12a11.3,11.3,0,0,1,2.6-3.6,10.28,10.28,0,0,1,4.19,4.49"/><path class="cls-1" d="M9,13s0,0,0,0a9.7,9.7,0,0,0,3,1.52c.34.11.94.2.9.55s-1.35.67-1.88.78-1.78.48-2.15,0,0-2.41.11-2.93"/><path class="cls-1" d="M0,.71V8.9c.75,1.79,2.05,3.95,3.05,3.59C3.49,7,6.37,4,8.76.51,6.33.27,2.14,0,0,.71"/><path class="cls-1" d="M11.8.31C8.92,1,7.42,4.75,5.92,6.7,10,4,18.43,2.31,22.56,6.1c-.12-1.81.25-4.32-.21-5.8C18.71.51,15-.48,11.8.31"/><path class="cls-1" d="M20.32,14.29c1.81-1.09,2.59-3.18,2.24-6.39a7.9,7.9,0,0,0-6.29-3c1.94,2.55,4.09,4.89,4.05,9.39"/><path class="cls-1" d="M.24,22.47c7.29.8,11,.45,13.19-2.39-6-1.42-9.95-4.86-13.4-8.79C.16,15-.23,19.14.24,22.47"/><path class="cls-2" d="M8.76,17.48c2,.41,4,2.05,6.29,1.6,2.05-.41,5.85-4.29,3.45-7.19-2,3.07-5.2,5-9.74,5.59"/><path class="cls-1" d="M11.8,22.67c5.44-.48,7.44.26,10.55-.2.2-2.41.61-6.7-.2-8.78-2.46,4-6.78,6.11-10.35,9"/><path class="cls-1" d="M18.5,11.89c2.4,2.9-1.4,6.78-3.45,7.19-2.3.45-4.29-1.19-6.29-1.6,4.54-.59,7.72-2.52,9.74-5.59"/><path class="cls-3" d="M45.83,19.28H43.18V17H46v-.37H42.75v5.94h3.38v-.36h-3V19.64h2.65Zm-8.08,3a3.06,3.06,0,0,0,1.59.44c1.42,0,2-.83,2-1.65s-.58-1.38-1.67-1.73-1.34-.67-1.34-1.31c0-.47.34-1.11,1.4-1.11a2.15,2.15,0,0,1,1.18.31l.16-.36a2.55,2.55,0,0,0-1.32-.3,1.64,1.64,0,0,0-1.84,1.52c0,.78.48,1.26,1.67,1.64,1,.32,1.33.71,1.33,1.38s-.58,1.25-1.54,1.25a2.66,2.66,0,0,1-1.47-.44Zm-3.92.09a2.53,2.53,0,0,1-2.51-2.66,2.54,2.54,0,1,1,5.07-.11,2.54,2.54,0,0,1-2.55,2.77Zm0,.35a3,3,0,0,0,3-3.16,2.87,2.87,0,0,0-3-3,3,3,0,0,0-3,3.15,2.89,2.89,0,0,0,2.95,3Zm-7.24-5.65a4.46,4.46,0,0,1,1-.1c.95,0,1.74.34,1.74,1.29,0,.77-.62,1.28-1.6,1.28H26.59Zm-.44,5.54h.44V19.87h1.12c.81,0,1.2.44,1.4,1.3a7.69,7.69,0,0,0,.39,1.42H30a8,8,0,0,1-.48-1.65,1.59,1.59,0,0,0-.95-1.21v0a1.58,1.58,0,0,0,1.23-1.54,1.44,1.44,0,0,0-.43-1,2.32,2.32,0,0,0-1.73-.53,8.41,8.41,0,0,0-1.45.13Z"/><path class="cls-3" d="M46.11,11.94,47,9.83c.14-.36.24-.62.33-.92h0c.09.29.17.55.33.94l.84,2.09Zm2.49.36.84,2.09h.45L47.51,8.45h-.43l-2.39,5.94h.45L46,12.3Zm-8.23,2.09h3.38V14h-3V8.45h-.43ZM36,11.08H33.3V8.81h2.8V8.45H32.87v5.94h3.38V14h-3V11.44H36ZM26.59,8.87a6.85,6.85,0,0,1,1.31-.11c2.17,0,3.1,1.08,3.08,2.54s-1,2.78-3.21,2.78A9.46,9.46,0,0,1,26.59,14Zm-.44,5.52c.51,0,1,0,1.55,0a3.94,3.94,0,0,0,2.9-1,3.17,3.17,0,0,0,.82-2.17,2.74,2.74,0,0,0-.71-1.94,3.68,3.68,0,0,0-2.78-.95,13.37,13.37,0,0,0-1.78.13Z"/><path class="cls-3" d="M54,6.19V3C54,2.13,54,1.5,54,.83l0,0c.32.53.78,1.16,1.28,1.84l2.6,3.54h.4V.25h-.43V3.31c0,.92,0,1.62.07,2.31v0A19.19,19.19,0,0,0,56.7,3.9L54,.25h-.4V6.19Zm-4.88-.25a2.53,2.53,0,0,1-2.51-2.66,2.54,2.54,0,1,1,5.06-.11,2.53,2.53,0,0,1-2.54,2.77Zm0,.35a3,3,0,0,0,3-3.15,2.87,2.87,0,0,0-2.95-3,3,3,0,0,0-3,3.16,2.89,2.89,0,0,0,3,3Zm-7.61-.44a2.92,2.92,0,0,0,1.59.44c1.41,0,2-.83,2-1.65s-.58-1.38-1.66-1.73-1.34-.67-1.34-1.31c0-.46.33-1.11,1.4-1.11A2.23,2.23,0,0,1,44.71.8l.17-.36a2.57,2.57,0,0,0-1.32-.3,1.63,1.63,0,0,0-1.84,1.53c0,.77.47,1.26,1.66,1.63,1,.32,1.34.71,1.34,1.39s-.58,1.24-1.54,1.24a2.64,2.64,0,0,1-1.47-.44Zm-1.74.34h.43V.25H39.8Zm-5-2.45.84-2.12c.14-.35.24-.62.33-.91h0a8.09,8.09,0,0,0,.32.94l.84,2.09Zm2.49.36.84,2.09h.45L36.22.25h-.43L33.4,6.19h.45l.82-2.09ZM31.83,6.19h.42L31.83.25h-.51L29.82,3.8a20.12,20.12,0,0,0-.73,1.88h0c-.18-.53-.4-1.15-.7-1.89L26.94.25h-.5L26,6.19h.42l.21-2.72c.08-1,.13-2.06.15-2.75h0c.19.64.47,1.34.84,2.27l1.28,3.2h.33l1.37-3.25c.38-.9.66-1.58.89-2.22h0c0,.64.08,1.78.14,2.66Z"/></svg>