<svg id="Слой_1" data-name="Слой 1" xmlns="http://www.w3.org/2000/svg" viewBox="0 0 46.74 32.06"><defs><style>.cls-1{fill:#614d41;}</style></defs><title>LogoGP</title><path class="cls-1" d="M11.9,25.93v-.64h1.69a1.61,1.61,0,0,1,0,.26,1.68,1.68,0,0,1-1.7,1.72,1.72,1.72,0,1,1,1.36-2.76l-.58.45a1,1,0,0,0-.78-.43,1,1,0,0,0,0,2,.82.82,0,0,0,.89-.64Z"/><path class="cls-1" d="M16,26a1.08,1.08,0,0,1,.46,1v.26h-.71V27a.61.61,0,0,0-.6-.64h-.44v.9H14V23.89h1.23a1.23,1.23,0,0,1,1.23,1.22A1,1,0,0,1,16,26Zm-.84-1.45h-.45v1.14h.45a.57.57,0,1,0,0-1.14Z"/><path class="cls-1" d="M17.74,26.59l-.27.62h-.75l1.49-3.38,1.48,3.38h-.75l-.26-.62Zm.47-1.21L18,26h.46Z"/><path class="cls-1" d="M20,23.89h.61l1.37,1.47V23.89h.68v3.38l-2-2.21v2.15H20Z"/><path class="cls-1" d="M23.2,23.89h1.2a1.66,1.66,0,0,1,0,3.32H23.2Zm1.15,2.66a1,1,0,0,0,0-2h-.44v2Z"/><path class="cls-1" d="M28.85,26.18h-.5v1h-.72V23.89h1.22A1.14,1.14,0,0,1,30,25,1.12,1.12,0,0,1,28.85,26.18Zm-.06-1.64h-.44v1h.44a.44.44,0,0,0,.47-.48A.49.49,0,0,0,28.79,24.54Z"/><path class="cls-1" d="M32.41,26a1.08,1.08,0,0,1,.46,1v.26h-.71V27a.61.61,0,0,0-.6-.64h-.43v.9h-.71V23.89h1.22a1.23,1.23,0,0,1,1.23,1.22A1,1,0,0,1,32.41,26Zm-.83-1.45h-.45v1.14h.45a.57.57,0,0,0,0-1.14Z"/><path class="cls-1" d="M33.39,23.89h.71v3.32h-.71Z"/><path class="cls-1" d="M35.67,26.23l-.5,1H34.4l.91-1.78-.79-1.54h.77l.38.76.39-.76h.77L36,25.43,37,27.21h-.77Z"/><path class="cls-1" d="M46.69,6.8a1.39,1.39,0,0,1-.43.23,11.76,11.76,0,0,1-1.18.11c-.5,0-.6.1-.76.57a1,1,0,0,1-.72.76,2.62,2.62,0,0,1-1.36-.2.2.2,0,0,1-.11-.33l.32-.55c.1-.16,0-.26-.11-.28a5.07,5.07,0,0,0-.55,0,1.71,1.71,0,0,1-.32,0,6.86,6.86,0,0,1-.78-.2.8.8,0,0,0-1,.23.61.61,0,0,1-.59.24l-1.08-.19a.74.74,0,0,0-.79.32c-.34.46-.41.4-.87.21a1.18,1.18,0,0,0-1.64.64c-.18.42-.36.85-.53,1.28a.75.75,0,0,0,0,.26c.56-.11,1-.44,1.67-.31a9.33,9.33,0,0,0-.45.89,1.16,1.16,0,0,1-1.38.91c-.31,0-.53,0-.63.32a9.67,9.67,0,0,0,.12-1.53,10.19,10.19,0,0,0-20.37,0,9.36,9.36,0,0,0,.1,1.41.5.5,0,0,0-.57-.2,1.18,1.18,0,0,1-1.39-.91c-.11-.29-.28-.56-.44-.89.61-.13,1.1.2,1.67.31a1.1,1.1,0,0,0,0-.26c-.17-.43-.34-.86-.53-1.28a1.18,1.18,0,0,0-1.64-.64c-.46.19-.53.25-.87-.21a.73.73,0,0,0-.78-.32l-1.09.19A.63.63,0,0,1,7,7.11a.8.8,0,0,0-1-.23,6.36,6.36,0,0,1-.78.2,1.71,1.71,0,0,1-.32,0,4.75,4.75,0,0,0-.54,0c-.16,0-.21.12-.12.28l.33.55a.21.21,0,0,1-.12.33,2.58,2.58,0,0,1-1.35.2,1,1,0,0,1-.73-.76c-.16-.47-.26-.55-.75-.57A11.69,11.69,0,0,1,.48,7,1.34,1.34,0,0,1,.06,6.8L0,6.86a1.41,1.41,0,0,0,.06.22,2.89,2.89,0,0,1,.26.53c.16.7.68.82,1.28.84l.49,0a.63.63,0,0,1,.62.39c.12.3.3.57.43.86s0,.45-.3.41A1.26,1.26,0,0,1,2.39,10l-1-.46-.06.05.39.76a9.85,9.85,0,0,1,.51,1c.18.46.59.62,1,.83a.61.61,0,0,0,.83-.1c.12-.13.26-.1.37,0a2.14,2.14,0,0,1,.3.44,1.14,1.14,0,0,0,1.09.69A3.35,3.35,0,0,0,7.33,13a.8.8,0,0,1,.39,0l-.12.22c-.14.19-.09.31.14.29a8.11,8.11,0,0,0,1.08-.18,2.23,2.23,0,0,1,1.09,0c.16.05.33.06.59.11l-.25-.56a4.31,4.31,0,0,1-.3-.71c-.06-.23.09-.36.34-.36s.63,0,.94,0a.38.38,0,0,1,.26.22c.18.37.31.76.49,1.13a.39.39,0,0,0,.28.2,5.47,5.47,0,0,1,1.5.2,10.2,10.2,0,0,0,19.18,0,5.42,5.42,0,0,1,1.55-.21.37.37,0,0,0,.27-.2c.18-.37.31-.76.49-1.13a.38.38,0,0,1,.26-.22c.31,0,.63,0,.94,0s.4.13.34.36a5.3,5.3,0,0,1-.29.71c-.08.16-.15.32-.25.56.25-.05.42-.06.58-.11a2.23,2.23,0,0,1,1.09,0,8.11,8.11,0,0,0,1.08.18c.24,0,.28-.1.15-.29A2.53,2.53,0,0,1,39,13a.8.8,0,0,1,.39,0,3.37,3.37,0,0,0,1.5.25A1.13,1.13,0,0,0,42,12.57a2.19,2.19,0,0,1,.31-.44.22.22,0,0,1,.37,0,.6.6,0,0,0,.82.1c.38-.21.79-.37,1-.83a9.85,9.85,0,0,1,.51-1l.39-.76-.06-.05-1,.46a1.2,1.2,0,0,1-.45.15c-.28,0-.42-.15-.3-.41s.31-.56.43-.86a.64.64,0,0,1,.62-.39l.49,0c.6,0,1.12-.14,1.28-.84a3.71,3.71,0,0,1,.26-.53.79.79,0,0,0,.06-.22l-.05-.06M7,7.59A.54.54,0,0,1,7.6,8a2.14,2.14,0,0,0,.2.47c.12.22.08.34-.16.31A1.58,1.58,0,0,0,6.5,9.1c-.18.12-.32.08-.37-.16a4.91,4.91,0,0,0-.24-.74c-.07-.19-.17-.37-.28-.6.52,0,1,0,1.43,0M6.49,11a5.55,5.55,0,0,1-1,.4,1,1,0,0,1-1.14-.42A4.4,4.4,0,0,1,4,9.86c.07,0,.12-.06.15,0a3.58,3.58,0,0,0,1.75-.09.41.41,0,0,1,.33.15c.14.29.24.6.35.9,0,.05,0,.16,0,.18m2.64,1a1.44,1.44,0,0,0-1.73.23c-.08-.19-.12-.31-.16-.43s-.1-.23-.14-.34c-.14-.46,0-.67.37-.78a5,5,0,0,1,1-.13.37.37,0,0,1,.29.16c.14.34.24.69.35,1a1,1,0,0,1,0,.25m1.28-1.86a.23.23,0,0,1-.18.11c-.37,0-.74,0-1.12,0a.34.34,0,0,1-.24-.17c-.16-.36-.31-.73-.45-1.09-.07-.19,0-.31.21-.29l1.19.15.08,0a2,2,0,0,1,.51,1.22m12.88,8.19a8.14,8.14,0,1,1,8.21-8.14,8.18,8.18,0,0,1-8.21,8.14m9.58-8.14a.09.09,0,0,1-.08-.08,9.46,9.46,0,0,0-6.33-8.83A14.32,14.32,0,0,0,22.55.78a9.47,9.47,0,0,0-8.63,9.32.08.08,0,0,1-.08.08.09.09,0,0,1-.08-.08V10A9.61,9.61,0,0,1,22.55.46a9.46,9.46,0,0,1,4,.5A9.59,9.59,0,0,1,33,10v.08a.08.08,0,0,1-.08.08m6.06-1.67a2.14,2.14,0,0,0,.2-.47.54.54,0,0,1,.56-.45c.45,0,.91,0,1.43,0-.11.23-.21.41-.29.6a6.34,6.34,0,0,0-.23.74c-.06.24-.2.28-.37.16a1.6,1.6,0,0,0-1.14-.28c-.24,0-.29-.09-.16-.31m-2.44,1.73c-.06,0-.16-.06-.17-.11a1.94,1.94,0,0,1,.51-1.22l.08,0,1.19-.15c.22,0,.28.1.21.29-.15.36-.29.73-.46,1.09a.31.31,0,0,1-.24.17c-.37,0-.74,0-1.12,0m3.14,1.21c0,.11-.1.23-.14.34s-.09.24-.16.43A1.44,1.44,0,0,0,37.6,12c0-.12,0-.19,0-.25.11-.35.22-.7.36-1a.37.37,0,0,1,.28-.16,5,5,0,0,1,1,.13c.4.11.51.32.37.78m2.74-.52a1.06,1.06,0,0,1-1.14.42,5,5,0,0,1-1-.4s-.06-.13,0-.18a7.61,7.61,0,0,1,.35-.9.41.41,0,0,1,.33-.15,3.54,3.54,0,0,0,1.74.09s.09,0,.16,0a5.41,5.41,0,0,1-.41,1.07"/><path class="cls-1" d="M22.54,10.14v-.05l0-.11a.71.71,0,0,1,.81-.44l.16.05.13.08s0,0,0,0a.47.47,0,0,1,.1.1.73.73,0,0,1,.12.56.67.67,0,0,1-.29.45l-.14.07h0l-.14,0a.65.65,0,0,1-.24,0,.7.7,0,0,1-.57-.64.38.38,0,0,1,0-.15m-.44.33a1.18,1.18,0,0,0,1.4.91l.14,0a1,1,0,0,0,.27-.14l.11-.09a1.05,1.05,0,0,0,.24-.28,1.42,1.42,0,0,0,.14-.36s0-.08,0-.12a.94.94,0,0,0,0-.41,1.42,1.42,0,0,0-.05-.16,1.09,1.09,0,0,0-.08-.15.66.66,0,0,0-.12-.17h0s0,0,0,0l0-.05a1.07,1.07,0,0,0-.28-.19l-.14-.05-.13,0a1.32,1.32,0,0,0-.34,0,1.16,1.16,0,0,0-.32.08l-.12,0-.1.07-.05,0,0,0-.11.1-.09.11a1.06,1.06,0,0,0-.18.35h0a.43.43,0,0,0,0,.11v0a1,1,0,0,0,0,.3.78.78,0,0,0,0,.14"/><path class="cls-1" d="M20.74,11.17a.61.61,0,0,0,0,.44.58.58,0,0,0,.43.37.48.48,0,0,0,.29,0h0L23,11.55a1.33,1.33,0,0,1-1-1l-.83.34h0a.57.57,0,0,0-.33.28"/><path class="cls-1" d="M24.57,10.5a1.32,1.32,0,0,1-.4.72l.73.57h0a.53.53,0,0,0,.26.13.57.57,0,0,0,.54-.18.56.56,0,0,0,.14-.41.54.54,0,0,0-.19-.39h0L24.53,9.82a1.29,1.29,0,0,1,0,.68"/><path class="cls-1" d="M30.51,10.47a8.48,8.48,0,0,1-.15,1c-.29-.09-.88-.23-2.1-.51l-.89-.2c0-.08,0-.15,0-.23a1.48,1.48,0,0,0,0-.21v-.06h.93l1.51,0c.93,0,.93-.06.93-.14h0c.11,0,.11.09.11.17s0,.17-.37.21m.2,1.36c0,.1-.08.14-.21.14a1.59,1.59,0,0,1-.27,0,7.41,7.41,0,0,1-.28.79c-.28-.14-.83-.39-1.94-.88l-.82-.35s0-.09,0-.13,0-.14.05-.21a.43.43,0,0,1,0-.05l.89.17,1.56.3c.83.16.84.12.86.05v0c.13.07.12.12.1.21m-.42,1.33a.15.15,0,0,1-.16.11,1.47,1.47,0,0,1-.4-.1,6.83,6.83,0,0,1-.49.82c-.25-.2-.74-.55-1.69-1.22l-.71-.5a1.28,1.28,0,0,0,.11-.2,1.74,1.74,0,0,0,.1-.19l0,0,.81.33,1.62.64c.65.24.67.21.69.15s0,0,0,0c.15.11.13.16.09.24m-.73,1.35a.17.17,0,0,1-.14.08c-.07,0-.16,0-.47-.22a6.31,6.31,0,0,1-.55.61c.42.46.38.5.28.6a.23.23,0,0,1-.13.05c-.07,0-.13,0-.49-.34a7.59,7.59,0,0,1-.78.59c.33.58.29.61.17.69a.2.2,0,0,1-.1,0c-.08,0-.13,0-.47-.48a6,6,0,0,1-.72.36c.23.66.18.68.05.74h-.08c-.09,0-.14,0-.41-.58a6.36,6.36,0,0,1-.88.25c.1.71,0,.72-.1.75h0c-.11,0-.16,0-.32-.68a6.43,6.43,0,0,1-.78.08c0,.71-.08.72-.23.72s-.21,0-.24-.71a7.79,7.79,0,0,1-1-.09c-.16.63-.21.64-.32.64h-.05c-.15,0-.2,0-.09-.71a7.67,7.67,0,0,1-.78-.23c-.25.54-.3.54-.39.54a.15.15,0,0,1-.08,0c-.13-.05-.18-.07,0-.67a6.15,6.15,0,0,1-.85-.43c-.31.4-.35.41-.43.41a.19.19,0,0,1-.1,0c-.12-.08-.16-.11.14-.6a6.94,6.94,0,0,1-.67-.51c-.29.26-.35.28-.42.28h0a.23.23,0,0,1-.12-.05c-.09-.1-.13-.14.21-.53a8.53,8.53,0,0,1-.7-.77.76.76,0,0,1-.36.15.15.15,0,0,1-.14-.08c-.06-.09-.09-.14.08-.29a.08.08,0,0,0,0,.07s.05.07.5-.19.8-.48,1.63-1l.72-.46,0,0,.13.17.17.21-.59.6c-.75.78-1.17,1.22-1.39,1.47s-.25.33-.21.38.06.05.29-.15.68-.62,1.55-1.46l.6-.58h0l.16.15.13.1h0l-.46.69c-1.35,2-1.33,2-1.24,2.11s.1.07,1.51-1.92l.48-.67a1,1,0,0,0,.17.1,1.55,1.55,0,0,0,.22.12l0,0-.31.76c-.9,2.26-.88,2.27-.79,2.31s.12.05,1.1-2.18l.32-.75.16.06.17,0,.08,0c-.06.28-.11.54-.16.79-.48,2.4-.45,2.4-.35,2.42s.13,0,.67-2.35c.06-.24.12-.51.18-.78l.14,0,.27,0h.11c0,.28,0,.55,0,.81,0,2.44.06,2.44.17,2.44s.13,0,.16-2.44c0-.26,0-.53,0-.81h.28l.14,0c.05.28.11.54.16.79.48,2.39.51,2.39.61,2.37s.12,0-.29-2.43c0-.25-.09-.52-.14-.8l.08,0,.24-.06.16-.06.32.75c1,2.24,1,2.23,1.08,2.19s.12-.05-.77-2.32c-.1-.24-.2-.49-.3-.76l0,0,.16-.08.17-.1.45.69c1.36,2,1.38,2,1.47,1.95s.11-.07-1.19-2.13l-.44-.71h0a1.84,1.84,0,0,0,.22-.17l.16-.14h0c.2.21.41.4.6.59.79.77,1.23,1.18,1.47,1.4l.07.06c.24.2.26.18.3.15s.06-.07-.21-.37-.63-.69-1.4-1.48l-.59-.6a.69.69,0,0,1,.11-.13l.13-.17v0l.72.47L29,14.11c.42.25.44.23.47.18a0,0,0,0,0,0-.07c.17.16.14.21.08.29m-13-1.29h0a.15.15,0,0,1-.16-.11c0-.09-.06-.14.09-.24a0,0,0,0,0,0,0c0,.07,0,.1.71-.15.34-.12.84-.32,1.61-.62l.81-.32a.05.05,0,0,0,0,0l.09.2.07.13-.72.48c-1.1.74-1.6,1.08-1.81,1.25a7.09,7.09,0,0,1-.45-.75.81.81,0,0,1-.27.06m-.36-1.43c-.11,0-.21,0-.24-.15s0-.14.11-.2h0c0,.08,0,.11.89,0l1.54-.26.88-.15a.43.43,0,0,1,0,.05,1.6,1.6,0,0,1,.05.21l.06.2-.81.35c-1.3.55-1.84.79-2.06.92a6.56,6.56,0,0,1-.34-1H16.2m-.36-1.53c0-.08,0-.13.11-.17h0c0,.08,0,.11.93.14l1.5,0h.92v.06c0,.07,0,.14,0,.21a.57.57,0,0,0,0,.13l-.89.17c-1.5.31-2.06.43-2.26.5a6.57,6.57,0,0,1-.12-.89c-.22,0-.22-.09-.22-.19M16,8.69a.15.15,0,0,1,.11-.12c0,.06.07.1.84.29l1.51.36.92.21a.07.07,0,0,0,0,.05l0,.21,0,.23h-.93A20.46,20.46,0,0,0,16,10a.53.53,0,0,1,0-.13,6.61,6.61,0,0,1,.08-1C16,8.83,16,8.77,16,8.69m.42-1.34a.19.19,0,0,1,.09-.1c0,.06.06.12.67.4l1.53.68.88.38v0a1.67,1.67,0,0,0-.08.2.65.65,0,0,1,0,.13l-.93-.19a16.85,16.85,0,0,0-2.36-.4,6.2,6.2,0,0,1,.27-1c-.07-.07-.05-.11,0-.18m.69-1.23A.18.18,0,0,1,17.16,6s0,0,.05-.06h0s.08.13.43.39l1.5,1.08L20,8l0,0a1.74,1.74,0,0,1-.11.18l-.1.2L18.83,8a10.05,10.05,0,0,0-2.27-.83,7.21,7.21,0,0,1,.55-1.07M22,2.82a.06.06,0,0,0,0,.05,15.8,15.8,0,0,0,.34,2.36c.06.32.12.67.18,1l-.13,0-.26.07,0,0c-.14-.34-.28-.66-.4-1a20.89,20.89,0,0,0-1-2.13c-.05-.09-.08-.08-.11-.07s-.05,0-.05.07a15.48,15.48,0,0,0,.82,2.25l.38,1-.15.07-.17.09h0l-.57-.86C20,4.68,19.68,4.19,19.52,4s-.16-.14-.19-.12,0,0,0,.06A13.37,13.37,0,0,0,20.51,6l.55.86L20.9,7l-.22.18L20,6.46c-1.75-1.7-1.77-1.68-1.84-1.61s0,0,0,.05.06.13.26.35.64.68,1.37,1.44l.71.72h0a1.07,1.07,0,0,0-.14.16l-.1.12-.83-.55c-2-1.3-2-1.33-2.1-1.26A7.27,7.27,0,0,1,22,2.82m1.33-.13h0s0,0,0,0a16.24,16.24,0,0,0-.1,2.38c0,.33,0,.68,0,1h-.37c-.07-.36-.14-.71-.2-1a19,19,0,0,0-.52-2.3s0-.06-.05-.06a7.26,7.26,0,0,1,1.25-.12m3.51,7.52a3.45,3.45,0,1,1-3.45-3.44,3.44,3.44,0,0,1,3.45,3.44m-2-7.35,0,0c-.07.16-.2.67-.58,2.3l-.23,1h-.07l-.16,0h-.23c0-.37,0-.72,0-1a15.64,15.64,0,0,0-.09-2.38s0,0,0,0a7.46,7.46,0,0,1,1.43.16m1.3.41,0,0c-.11.17-.34.67-1,2.12l-.42,1,0,0-.18-.06-.14,0c.08-.36.14-.71.21-1A15.89,15.89,0,0,0,25,2.91v0a7.74,7.74,0,0,1,1.18.38m.21.11A6.14,6.14,0,0,1,27.44,4l-.1.11c-.18.21-.54.7-1.31,1.79l-.59.84h0l-.23-.13L25,6.53l.39-1a14.64,14.64,0,0,0,.84-2.25.24.24,0,0,1,.08.06m1.26.67c.05,0,.09.07.09.13a8.32,8.32,0,0,1,.77.68,23.2,23.2,0,0,0-1.71,1.6L26,7.17l-.13-.11-.16-.12.57-.86a13,13,0,0,0,1.27-2h0m1.07.89a.14.14,0,0,1,0,.19,7.07,7.07,0,0,1,.7.93c-.2.09-.69.38-2,1.19l-.85.54-.16-.21-.14-.16h0L27,6.69c.72-.74,1.13-1.17,1.36-1.42s.27-.32.27-.37l.06,0m.91,1.17a.18.18,0,0,1,.08.06c0,.07.08.12,0,.24a6.65,6.65,0,0,1,.41.85c-.23.06-.78.26-2.14.8L27,8.42l-.06-.13a1.18,1.18,0,0,0-.11-.19l0,0,.83-.55,1.52-1c.37-.26.45-.35.45-.39m.63,1.2a.14.14,0,0,1,.1.1c0,.09.06.14-.13.26a8.56,8.56,0,0,1,.24,1c-.26,0-.85.12-2.21.35l-.95.16c0-.06,0-.13-.05-.19l-.08-.21v0L28,8.36c.72-.3,1.2-.51,1.53-.66.62-.28.69-.34.67-.39m.43,1.44a.14.14,0,0,1,.1.13c0,.11,0,.16-.25.25a6.28,6.28,0,0,1,0,.75V10c-.28,0-.88,0-2.21-.06h-.94V9.8c0-.08,0-.15,0-.22V9.53l.93-.19L29.78,9c.83-.18.88-.22.87-.28M23.29,2.48a7.71,7.71,0,1,0,7.77,7.7,7.74,7.74,0,0,0-7.77-7.7"/><path class="cls-1" d="M23.51,8.91l.13,0,.12-.88h0V8h0a.56.56,0,0,0-.44-.67.57.57,0,0,0-.67.45h0l-.41,1.51a1.35,1.35,0,0,1,1.27-.42"/><path class="cls-1" d="M31.5,30.71l-8,.64-7.86-.64a.08.08,0,0,0-.09.07.1.1,0,0,0,.07.09l7.92,1.19h0l7.92-1.19a.08.08,0,0,0,0-.16"/></svg>