<svg id="Слой_1" data-name="Слой 1" xmlns="http://www.w3.org/2000/svg" viewBox="0 0 696.37 203.95"><defs><style>.cls-1{fill:#181716;}</style></defs><title>Logoworld-of-torah</title><path class="cls-1" d="M39.43,2.84,53,103.25h.86L63.54,2.84H102.4V7.38H94.18v189.2h8.22v4.54H58.15v-4.54h8.23v-158h-.57L47.37,201.12H34.61L15.6,38.58H15V184.1c0,9.36,3.69,12.48,10.5,12.48v4.54H0v-4.54c5.39,0,10.5-2.84,10.5-12.2V7.38H2.27V2.84Z"/><path class="cls-1" d="M122,7.38h-8.23V2.84h42V7.38h-5.95v107.5l20.42-112h31.49V7.38h-8.23v189.2h8.23v4.54h-42v-4.54h6V58.15L137.29,204H122Z"/><path class="cls-1" d="M248.76,196.58h8.51v4.54H213v-4.54H221V7.38H213V2.84h42c30.35,0,37.44,33.18,37.44,59.85,0,22.12-14.18,53-43.68,53Zm0-85.38c9.36,0,14.75-5.11,14.75-13.9V19.86c0-7.66-1.7-12.48-6.24-12.48h-8.51Z"/><path class="cls-1" d="M384.35,2.84V87.37h-4.54c0-29.22-9.65-80-23.55-80v189.2h7.95v4.54H320.52v-4.54h8V7.38c-12.2,0-23.55,50.77-23.55,80h-4.54V2.84Z"/><path class="cls-1" d="M468.31,139.56c0,25.25-6,64.39-37.16,64.39C401.93,204,394,164,394,139.56V62.69C394,38.86,402.78,0,431.15,0c33.75,0,37.16,38.86,37.16,62.69ZM439.37,13.33c0-5.95-3.68-8.79-8.22-8.79s-8.23,2.84-8.23,8.79V190.62c0,6,3.69,8.79,8.23,8.79s8.22-2.83,8.22-8.79Z"/><path class="cls-1" d="M516.53,196.58H525v4.54H480.79v-4.54h7.94V7.38h-7.94V2.84h42c30.35,0,37.44,33.18,37.44,59.85,0,22.12-14.18,53-43.68,53Zm0-85.38c9.36,0,14.75-5.11,14.75-13.9V19.86c0-7.66-1.7-12.48-6.24-12.48h-8.51Z"/><path class="cls-1" d="M579.21,7.38H571V2.84h44.25V7.38H607V81.69h6.53c24.11,0,38.57,34,38.57,57.87,0,24.4-8.51,61.56-38.86,61.56H571v-4.54h8.22ZM607,196.58h6.24c4.82,0,9.65-4.54,9.65-12.2V99.28c0-8.79-6.24-13-15.89-13ZM660.34,7.38h-8.23V2.84h44.26V7.38h-8.23v189.2h8.23v4.54H652.11v-4.54h8.23Z"/></svg>