<svg id="Слой_1" data-name="Слой 1" xmlns="http://www.w3.org/2000/svg" viewBox="0 0 425 146.78"><defs><style>.cls-1{fill:#3965ab;}</style></defs><title>Logochrysal</title><path class="cls-1" d="M337,146.78a31,31,0,0,0-5.24-1.07c-34-1.07-67.3-7.09-100.72-12.59-28.31-4.66-56.68-9.19-85.18-12.33a500.41,500.41,0,0,0-60.73-2.67c-26.9.33-53.75,2.47-80.16,8.11a15.64,15.64,0,0,1-2.57,0c0-6.22-.24-12.29.2-18.31.08-1.23,2.57-3,4.17-3.28,9.48-1.6,19-3.63,28.57-4,20.6-.86,41.35-2.26,61.84-.78A766.31,766.31,0,0,1,176.63,110c37.54,6.73,74.63,15.93,112.17,22.59,22.66,4,45.81,5.26,68.75,7.66,21,2.2,41.83,0,62.68-2.11a30.2,30.2,0,0,0,4.77-1.25v4a6.73,6.73,0,0,0-1.47-.15q-24.66,2.43-49.31,4.91c-2.42.25-4.81.79-7.22,1.2Z"/><path class="cls-1" d="M0,41.49c.62-2,1.31-4,1.84-6A47.19,47.19,0,0,1,41.43.28C58.56-2.15,72,11.79,66.61,26.81c-1.24,3.48-4.16,6.38-6.31,9.55l-1.41-.64c-.53-3.66-.85-7.37-1.64-11C54.7,13.11,45.74,9,34.94,14.32c-9.8,4.84-16.95,18.51-15.62,30a62.25,62.25,0,0,0,1.62,10.24C27,75.39,48.29,78.24,62.6,66.56c2.61-2.13,4.61-5,7.23-7.15-.68,15.06-10.9,25.79-25.27,27.51C21.68,89.66,5.13,77.29,1.21,54.58A16.7,16.7,0,0,0,0,51.42Z"/><path class="cls-1" d="M134.1,83.71h-17c0-8.27-.1-16.14,0-24,.07-3.64-1.27-5-5-4.77-4.94.28-9.9.07-15.13.07V83.57H78.8V17.31H96.6c0,8.28.19,16.35-.08,24.41-.12,3.81,1.39,5,4.92,4.83s7-.18,10.49,0c4,.22,5.35-1.57,5.17-5.33-.37-7.7-.56-15.42-.84-23.67H134.1Z"/><path class="cls-1" d="M204,84.85c-4.49,0-9.51.82-14.06-.26a20.72,20.72,0,0,1-10-6.36c-3.78-4.32-6.48-9.58-9.69-14.41-1-1.47-2.1-2.83-3.84-5.14V83.79H147.83V17h12.84c5,0,10,0,15,0,9.09,0,15.28,4.36,17.77,12.38a19.56,19.56,0,0,1-7.52,22.29c-1.35.9-2.76,1.72-5.11,3.17C188.67,65,196.29,74.9,204,84.85ZM165.69,50.32c7.76-1.56,12.49-7.11,12.53-13.69,0-5.57-4-10.59-9-10.7-1.15,0-3.31,1.44-3.34,2.28C165.58,35.44,165.69,42.69,165.69,50.32Z"/><path class="cls-1" d="M332.88,17c4.14,0,9.62-.29,15,.19,1.42.13,3.22,2.44,3.83,4.11,6.1,16.75,12,33.58,18,50.36,1.37,3.85,3.08,7.58,5,12.32-6.45,0-12.33.1-18.2-.12-.79,0-1.85-1.59-2.2-2.63-1.63-4.84-3.21-9.71-4.5-14.65-.88-3.34-2.84-5-6.09-4.27-5.61,1.25-13.05-3.84-16.69,3.22-2.69,5.23-3.2,11.58-4.85,18.1H311C318.2,61.8,325.41,39.8,332.88,17Zm-2.5,36.84h15.28l-7.19-19.82-1.44.06Z"/><path class="cls-1" d="M300.12,27.83c-3.21-1.1-6-2.39-8.84-2.92-2.53-.45-5.53-.77-7.74.19s-5.23,3.44-5.43,5.49c-.23,2.34,1.78,5.42,3.7,7.29s5,2.54,7.43,3.91c3.75,2.1,7.68,4,11.06,6.62,7.1,5.44,8.88,13,6.86,21.34a18.77,18.77,0,0,1-16.34,14.8c-6.92,1-14.14.2-21.2-.25-5.12-.33-8.7-2.81-8.86-8.59a26,26,0,0,0-1-4.73c5.07,1.71,10,3.87,15.22,5a21.93,21.93,0,0,0,10.23-.64c5.91-1.76,7.35-8.28,2.93-12.63a33.88,33.88,0,0,0-7-4.7c-4.16-2.4-8.61-4.36-12.61-7-7.38-4.85-9.49-12.12-8-20.4,1.35-7.45,8.15-13.45,16.5-14.46A70.35,70.35,0,0,1,291.4,16C300.79,16.82,301.58,18.05,300.12,27.83Z"/><path class="cls-1" d="M238.67,84.57H220.28c0-7.42.26-14.64-.12-21.82a22.44,22.44,0,0,0-2.63-9.26C210.94,41.48,204,29.66,196.76,17c6.51,0,12.41-.17,18.28.15,1.21.06,2.67,1.76,3.41,3.05,4,6.88,7.69,13.89,11.54,20.83.85,1.53,1.86,3,3.35,5.33,5-9.89,11.91-17.85,11.59-29.09H259.1c-1.91,3.63-3.63,6.94-5.38,10.24-2.1,3.94-3.84,8.14-6.4,11.76C237.71,52.89,235.41,67.87,238.67,84.57Z"/><path class="cls-1" d="M423.07,74.43c-1.35,9.69-1.35,9.69-10.93,9.69-8.32,0-16.64-.14-24.95.06-3.68.09-4.93-1.1-4.86-4.83.3-17.34.39-34.68.47-52,0-3.26-.39-6.52-.62-10.06h18.25c-.25,3.4-.66,6.58-.68,9.77-.07,13.71.23,27.44-.16,41.14-.15,5.44,2.47,7.27,7,7.27C412,75.45,417.37,74.81,423.07,74.43Z"/></svg>