<?xml version="1.0" encoding="utf-8"?>
<!-- Generator: Adobe Illustrator 23.1.0, SVG Export Plug-In . SVG Version: 6.00 Build 0)  -->
<svg version="1.1" id="Слой_1" xmlns="http://www.w3.org/2000/svg" xmlns:xlink="http://www.w3.org/1999/xlink" x="0px" y="0px"
	 viewBox="0 0 200 140" style="enable-background:new 0 0 200 140;" xml:space="preserve">
<style type="text/css">
	.st0{fill-rule:evenodd;clip-rule:evenodd;fill:#424242;}
	.st1{enable-background:new    ;}
	.st2{fill:#424242;}
	.st3{fill-rule:evenodd;clip-rule:evenodd;fill:#A6835B;}
</style>
<title>Logo / RB GRAY</title>
<desc>Created with Sketch.</desc>
<g>
	<g transform="translate(70.000000, 0.000000)">
		<path id="Combined-Shape" class="st0" d="M30,0c14.9,0,22,16.7,22,30.2C52,47.3,42.2,60,30,60C17.8,60,8,47.2,8,29.7
			C8,12.8,17.7,0,30,0z M29.6,1c-8.3,0-18,7.8-18,27.3c0,18.4,8.2,30.6,18.9,30.6c10.3,0,17.9-10.9,17.9-27.3
			C48.4,13.1,39.8,1,29.6,1z M19.1,13.2c1.4,0.1,2.8,0.2,4.2,0.3c4,0.3,8.1,0.4,12.2,0.2c1.8-0.1,3.7-0.3,5.5,0.1
			c1,0.3,1.9,0.7,2.5,1.6c0.5,0.8,0.7,2,0,2.8c-0.6,0.6-1.5,0.6-2.3,0.5c-0.5-0.1-1.2-0.5-1.3-1c-0.1-0.6,0.9-0.5,1.1-1
			c0.2-0.6-0.6-1.1-1.1-1.2c-0.8-0.2-1.6-0.2-2.4-0.2c-0.9,0-1.9-0.1-2.8-0.1c-2.4-0.1-4.9-0.3-7.3-0.3c-1.8,0-3.6,0.1-5.4,0.2
			l-0.4,0c-0.6,0-1.2,0.1-1.7,0.5c-1,0.6-0.7,2-0.7,3c0,1.4,0,2.8,0,4.3c0,1.2,0,2.4,0,3.5c0,0.5-0.1,1.2,0.2,1.6
			c0.4,0.7,1.2-0.2,1.6-0.4c0.9-0.7,1.9-1.3,2.9-1.8c2.1-1.1,4.4-1.7,6.7-1.8c2.3-0.1,4.6,0.1,6.7,0.7c0.9,0.3,1.9,0.6,2.7,1.1
			c0.1,0,0.3,0.1,0.4,0.2c0,0.1,0,0.3-0.1,0.4c-0.1,0.2-0.1,0.5-0.2,0.7c-0.2,0.5-0.5,1-0.8,1.5c-0.1-0.1-0.2-0.3-0.3-0.4
			c-0.8-1.1-2.1-1.7-3.4-2.1c-2.7-0.8-5.6-0.7-8.3,0c-2.8,0.7-5.4,2-7.8,3.5c-0.3,0.2-0.2,0.2-0.2,0.5l0,0.8l0,0l0,0.8l0.2,9
			c0,0.3,0,0.5,0,0.8c0,0.1,0,0.2,0,0.3c0,0.1,0.1,0.2,0.1,0.4c0,0.2,0.1,0.1-0.1,0.2c0,0-0.2,0.1-0.2,0.1c-0.3,0.1-0.4,0.2-0.4,0.5
			c0,0.7,0,1.4,0,2.1c0,0.5,0.3,0.5,0.7,0.5l0.1,0h6.5c0.1,0,0.2,0,0.3,0c0.4-0.1,0.3-0.6,0.3-0.9c3,0.3,6.1,0.2,9-0.8
			c2.3-0.8,4.6-2.2,6-4.2c0.6-0.9,1-2,1.2-3c0.2-1.2,0-2.5-0.5-3.6c-0.2-0.4-0.4-0.7-0.6-1c-0.1-0.1-0.3-0.4-0.4-0.5
			c0-0.1,0-0.1,0.1-0.2c0.1-0.1,0.1-0.1,0.2-0.2c0.5-0.5,0.8-1,1.2-1.6c0.2,0.1,0.3,0.2,0.3,0.3c0.8,0.8,1.4,1.7,1.8,2.7
			c1.5,3.4,0.6,7.4-1.9,10.1c-0.5,0.5-1.1,0.9-1.6,1.4c-0.3,0.2-0.5,0.5-0.9,0.7c-2.4,1.6-5.6,2.1-8.5,2.2c-2.4,0.1-4.9,0-7.3-0.1
			c-1.8,0-3.7-0.1-5.5-0.3c-0.7-0.1-1.3-0.2-1.9-0.4c-0.5-0.2-1.1-0.4-1.5-0.8c-0.4-0.5,0.1-1.3,0.2-1.8c0.2-1,0.3-1.9,0.3-2.9
			c0-2.7,0-5.4,0-8.2c0-2.2,0-4.5,0-6.7c0-0.5,0.1-0.9,0.1-1.4c0.1-1.4,0.2-2.9,0.2-4.4c0-1.3,0.1-2.8-0.2-4.1
			c-0.2-0.7-0.5-1.5-0.5-2.2c0-0.5,0.3-0.7,0.8-0.7C17.7,13,18.4,13.1,19.1,13.2z M30.1,16.6c2.7,0,5.5,0.4,8.1,1.4
			c2.8,1.1,5.6,3.1,5.9,6.4c0.2,1.8-0.4,3.7-1.3,5.3c-0.7,1.3-2,2.3-3.2,3.1c-2.5,1.6-5.5,2.5-8.5,2.8c-1.5,0.1-3.1,0.1-4.6-0.1
			c-0.5-0.1-1-0.1-1.4,0c-0.6,0.2-0.5,0.8-0.4,1.3c0.2,1.1,0.2,2.1,0.2,3.2c0,0.5,0,1,0,1.4c-0.1,0.8,0.2,1.5,0.7,2.1
			c0.2,0.2,0.5,0.4,0.8,0.5c0.2,0.1,0.2,0.2,0.2,0.4l0,0.1l0,0.9h-6.5c-0.2,0-0.4,0-0.6,0c-0.2,0-0.1,0-0.1-0.1
			c-0.1-0.2,0-0.6,0-0.9l0-0.1v-1.1c0,0,0-0.2,0-0.2c0-0.1,0.5-0.2,0.6-0.2c0.3-0.2,0.6-0.5,0.8-0.8c0.6-1,0.6-2.2,0.7-3.3
			c0.1-1.3,0.1-2.6,0.2-3.9c0-1.4,0-2.8,0-4.1c0-0.3,0-0.6,0-1c0-0.1,0-0.3,0-0.5c0-0.1,0-0.1,0.1-0.2c0.3-0.2,0.7-0.4,1.1-0.5
			c0.4-0.2,0.7-0.3,1.1-0.5c0,1.3,0.1,2.6,0.3,3.9c0,0.3,0.1,0.5,0.1,0.8c0,0.1,0.1,0.4,0.1,0.6l0,0.1l0.1,0c0.1,0,0.3,0.1,0.4,0.1
			c0.2,0,0.5,0.1,0.7,0.1c1,0.1,2.1,0.2,3.1,0.2l0.1,0l0,0l0.1,0l-0.1,0c0.8,0,1.7-0.1,2.5-0.2c2.1-0.3,4.1-1,5.9-2.3
			c1.6-1.2,3.2-2.8,3.5-4.9c0.3-1.8-0.3-3.8-1.7-5c-1-0.9-2.1-1.6-3.3-2.1c-1.2-0.6-2.7-0.8-4-0.9c-2.2-0.2-4.5-0.2-6.7,0.2
			c-0.2,0-1,0.1-1.1,0.2c-0.1,0.1,0,0.4,0,0.5c0,0.8-0.1,1.5-0.1,2.3c0,1.1-0.1,2.3-0.1,3.4c0,0.1,0.1,0.5,0,0.6c0,0-0.1,0-0.1,0.1
			c-0.2,0.2-0.5,0.2-0.7,0.4c-0.5,0.3-1.1,0.6-1.6,1c-0.1-1.6-0.2-3.2-0.3-4.8c-0.1-1.3-0.3-2.7-0.8-3.9c-0.1-0.2-0.2-0.3-0.3-0.5
			c-0.1-0.2-0.3-0.3-0.3-0.5c-0.1-0.3,0.3-0.3,0.6-0.3c0.9,0.2,1.7,0.1,2.6,0c1.4-0.2,2.8-0.4,4.2-0.4
			C28.1,16.5,29.1,16.6,30.1,16.6z"/>
	</g>
	<g class="st1">
		<path class="st2" d="M57,108v7h-1v-3.1h-4v3.1h-1v-7h1v3h4v-3H57z"/>
		<path class="st2" d="M60.4,114.6c-0.6-0.3-1-0.7-1.3-1.3s-0.5-1.2-0.5-1.8c0-0.7,0.2-1.3,0.5-1.8s0.8-1,1.3-1.3
			c0.6-0.3,1.2-0.5,1.9-0.5c0.7,0,1.3,0.2,1.9,0.5c0.6,0.3,1,0.7,1.3,1.3s0.5,1.2,0.5,1.8s-0.2,1.3-0.5,1.8c-0.3,0.5-0.8,1-1.3,1.3
			c-0.6,0.3-1.2,0.5-1.9,0.5C61.6,115.1,61,114.9,60.4,114.6z M63.7,113.8c0.4-0.2,0.7-0.6,1-1s0.4-0.9,0.4-1.4s-0.1-1-0.4-1.4
			s-0.6-0.7-1-1c-0.4-0.2-0.9-0.4-1.4-0.4s-1,0.1-1.4,0.4s-0.7,0.6-1,1s-0.4,0.9-0.4,1.4s0.1,1,0.4,1.4s0.6,0.7,1,1s0.9,0.4,1.4,0.4
			S63.3,114.1,63.7,113.8z"/>
		<path class="st2" d="M68.8,108.9h-2.4V108h5.8v0.9h-2.4v6.1h-1V108.9z"/>
		<path class="st2" d="M78.4,114.1v0.9h-5.1v-7h4.9v0.9h-3.9v2.1h3.5v0.9h-3.5v2.3H78.4z"/>
		<path class="st2" d="M80,108h1v6.1h3.8v0.9H80V108z"/>
		<path class="st2" d="M86.4,114.8c-0.5-0.2-0.9-0.4-1.2-0.6l0.4-0.8c0.3,0.2,0.6,0.4,1,0.6c0.4,0.2,0.8,0.2,1.3,0.2
			c0.6,0,1-0.1,1.3-0.3c0.3-0.2,0.4-0.5,0.4-0.8c0-0.2-0.1-0.4-0.2-0.6c-0.2-0.2-0.4-0.3-0.6-0.3s-0.6-0.2-1-0.3
			c-0.5-0.1-1-0.3-1.3-0.4c-0.3-0.1-0.6-0.3-0.8-0.6c-0.2-0.3-0.3-0.6-0.3-1.1c0-0.4,0.1-0.7,0.3-1s0.5-0.5,0.9-0.7
			c0.4-0.2,0.9-0.3,1.5-0.3c0.4,0,0.8,0.1,1.2,0.2s0.7,0.3,1,0.5l-0.3,0.8c-0.3-0.2-0.6-0.3-0.9-0.4c-0.3-0.1-0.7-0.1-1-0.1
			c-0.6,0-1,0.1-1.3,0.3s-0.4,0.5-0.4,0.8c0,0.2,0.1,0.4,0.2,0.6c0.2,0.2,0.4,0.3,0.6,0.4c0.2,0.1,0.6,0.2,1,0.3
			c0.5,0.1,1,0.3,1.3,0.4c0.3,0.1,0.6,0.3,0.8,0.6s0.3,0.6,0.3,1c0,0.4-0.1,0.7-0.3,1c-0.2,0.3-0.5,0.5-0.9,0.7s-0.9,0.3-1.5,0.3
			C87.4,115.1,86.9,115,86.4,114.8z"/>
		<path class="st2" d="M99.9,115.1l-0.9-0.9c-0.6,0.6-1.4,0.9-2.3,0.9c-0.5,0-0.9-0.1-1.3-0.2c-0.4-0.2-0.7-0.4-0.9-0.6
			s-0.3-0.6-0.3-0.9c0-0.4,0.1-0.8,0.4-1.1c0.3-0.3,0.7-0.7,1.3-1c-0.3-0.3-0.5-0.6-0.6-0.8c-0.1-0.2-0.2-0.5-0.2-0.8
			c0-0.5,0.2-0.9,0.5-1.1c0.3-0.3,0.8-0.4,1.4-0.4c0.5,0,1,0.1,1.3,0.4c0.3,0.3,0.5,0.6,0.5,1.1c0,0.4-0.1,0.7-0.3,0.9
			c-0.2,0.3-0.6,0.6-1.1,0.9l1.7,1.7c0.2-0.4,0.3-0.8,0.4-1.3l0.8,0.2c-0.1,0.6-0.3,1.1-0.6,1.6l0.9,0.9L99.9,115.1z M98.4,113.6
			l-2-2c-0.5,0.3-0.8,0.5-1,0.7c-0.2,0.2-0.3,0.5-0.3,0.8c0,0.3,0.1,0.6,0.4,0.8c0.3,0.2,0.7,0.3,1.1,0.3
			C97.4,114.3,98,114.1,98.4,113.6z M96.2,108.9c-0.2,0.2-0.3,0.4-0.3,0.6c0,0.2,0,0.4,0.1,0.5c0.1,0.2,0.3,0.4,0.6,0.7
			c0.5-0.3,0.8-0.5,1-0.7c0.2-0.2,0.3-0.4,0.3-0.6c0-0.2-0.1-0.4-0.2-0.6c-0.2-0.1-0.4-0.2-0.7-0.2
			C96.6,108.6,96.4,108.7,96.2,108.9z"/>
		<path class="st2" d="M109,115l-1.5-2.2c-0.2,0-0.3,0-0.4,0h-1.7v2.1h-1v-7h2.7c0.9,0,1.6,0.2,2.1,0.7c0.5,0.4,0.8,1,0.8,1.8
			c0,0.5-0.1,1-0.4,1.4s-0.6,0.7-1.1,0.8l1.7,2.3H109z M108.5,111.6c0.3-0.3,0.5-0.7,0.5-1.2c0-0.5-0.2-0.9-0.5-1.2
			c-0.3-0.3-0.8-0.4-1.5-0.4h-1.7v3.1h1.7C107.7,112,108.2,111.9,108.5,111.6z"/>
		<path class="st2" d="M116.7,114.1v0.9h-5.1v-7h4.9v0.9h-3.9v2.1h3.5v0.9h-3.5v2.3H116.7z"/>
		<path class="st2" d="M118.8,114.8c-0.5-0.2-0.9-0.4-1.2-0.6l0.4-0.8c0.3,0.2,0.6,0.4,1,0.6c0.4,0.2,0.8,0.2,1.3,0.2
			c0.6,0,1-0.1,1.3-0.3c0.3-0.2,0.4-0.5,0.4-0.8c0-0.2-0.1-0.4-0.2-0.6c-0.2-0.2-0.3-0.3-0.6-0.3c-0.2-0.1-0.6-0.2-1-0.3
			c-0.5-0.1-1-0.3-1.3-0.4c-0.3-0.1-0.6-0.3-0.8-0.6c-0.2-0.3-0.3-0.6-0.3-1.1c0-0.4,0.1-0.7,0.3-1c0.2-0.3,0.5-0.5,0.9-0.7
			c0.4-0.2,0.9-0.3,1.5-0.3c0.4,0,0.8,0.1,1.2,0.2c0.4,0.1,0.7,0.3,1,0.5l-0.3,0.8c-0.3-0.2-0.6-0.3-0.9-0.4s-0.7-0.1-1-0.1
			c-0.6,0-1,0.1-1.3,0.3s-0.4,0.5-0.4,0.8c0,0.2,0.1,0.4,0.2,0.6c0.2,0.2,0.4,0.3,0.6,0.4c0.2,0.1,0.6,0.2,1,0.3
			c0.5,0.1,1,0.3,1.3,0.4c0.3,0.1,0.6,0.3,0.8,0.6c0.2,0.3,0.3,0.6,0.3,1c0,0.4-0.1,0.7-0.3,1c-0.2,0.3-0.5,0.5-0.9,0.7
			c-0.4,0.2-0.9,0.3-1.5,0.3C119.8,115.1,119.3,115,118.8,114.8z"/>
		<path class="st2" d="M125.8,114.6c-0.6-0.3-1-0.7-1.3-1.3s-0.5-1.2-0.5-1.8c0-0.7,0.2-1.3,0.5-1.8s0.8-1,1.3-1.3
			c0.6-0.3,1.2-0.5,1.9-0.5c0.7,0,1.3,0.2,1.9,0.5c0.6,0.3,1,0.7,1.3,1.3c0.3,0.5,0.5,1.2,0.5,1.8s-0.2,1.3-0.5,1.8
			c-0.3,0.5-0.8,1-1.3,1.3c-0.6,0.3-1.2,0.5-1.9,0.5C127,115.1,126.3,114.9,125.8,114.6z M129.1,113.8c0.4-0.2,0.7-0.6,1-1
			c0.2-0.4,0.4-0.9,0.4-1.4s-0.1-1-0.4-1.4c-0.2-0.4-0.6-0.7-1-1c-0.4-0.2-0.9-0.4-1.4-0.4c-0.5,0-1,0.1-1.4,0.4
			c-0.4,0.2-0.7,0.6-1,1c-0.2,0.4-0.4,0.9-0.4,1.4s0.1,1,0.4,1.4c0.2,0.4,0.6,0.7,1,1c0.4,0.2,0.9,0.4,1.4,0.4
			C128.2,114.2,128.6,114.1,129.1,113.8z"/>
		<path class="st2" d="M137.6,115l-1.5-2.2c-0.2,0-0.3,0-0.4,0h-1.7v2.1h-1v-7h2.7c0.9,0,1.6,0.2,2.1,0.7c0.5,0.4,0.8,1,0.8,1.8
			c0,0.5-0.1,1-0.4,1.4s-0.6,0.7-1.1,0.8l1.7,2.3H137.6z M137.1,111.6c0.3-0.3,0.5-0.7,0.5-1.2c0-0.5-0.2-0.9-0.5-1.2
			c-0.3-0.3-0.8-0.4-1.5-0.4h-1.7v3.1h1.7C136.2,112,136.7,111.9,137.1,111.6z"/>
		<path class="st2" d="M141.5,108.9h-2.4V108h5.8v0.9h-2.4v6.1h-1V108.9z"/>
		<path class="st2" d="M146.4,114.8c-0.5-0.2-0.9-0.4-1.2-0.6l0.4-0.8c0.3,0.2,0.6,0.4,1,0.6c0.4,0.2,0.8,0.2,1.3,0.2
			c0.6,0,1-0.1,1.3-0.3c0.3-0.2,0.4-0.5,0.4-0.8c0-0.2-0.1-0.4-0.2-0.6c-0.2-0.2-0.4-0.3-0.6-0.3c-0.2-0.1-0.6-0.2-1-0.3
			c-0.5-0.1-1-0.3-1.3-0.4c-0.3-0.1-0.6-0.3-0.8-0.6c-0.2-0.3-0.3-0.6-0.3-1.1c0-0.4,0.1-0.7,0.3-1c0.2-0.3,0.5-0.5,0.9-0.7
			c0.4-0.2,0.9-0.3,1.5-0.3c0.4,0,0.8,0.1,1.2,0.2c0.4,0.1,0.7,0.3,1,0.5l-0.3,0.8c-0.3-0.2-0.6-0.3-0.9-0.4c-0.3-0.1-0.7-0.1-1-0.1
			c-0.6,0-1,0.1-1.3,0.3s-0.4,0.5-0.4,0.8c0,0.2,0.1,0.4,0.2,0.6c0.2,0.2,0.4,0.3,0.6,0.4c0.2,0.1,0.6,0.2,1,0.3
			c0.5,0.1,1,0.3,1.3,0.4s0.6,0.3,0.8,0.6c0.2,0.3,0.3,0.6,0.3,1c0,0.4-0.1,0.7-0.3,1c-0.2,0.3-0.5,0.5-0.9,0.7
			c-0.4,0.2-0.9,0.3-1.5,0.3C147.4,115.1,146.9,115,146.4,114.8z"/>
	</g>
	<g class="st1">
		<path class="st2" d="M43.4,94.2c-0.5-0.2-1-0.5-1.4-1c-0.7-0.9-1.3-1.7-1.8-2.3c-0.5-0.6-1.1-1.6-1.8-2.8c-0.2-0.4-0.6-0.7-1-0.9
			c-0.5-0.3-1.2-0.4-1.9-0.5h0c-0.2,0-0.3,0.2-0.3,0.5v4.2c0,1.2,0.5,1.9,1.6,2.1c0.3,0,0.5,0.1,0.6,0.2c0.1,0.1,0.2,0.2,0.2,0.3
			c0,0.2-0.2,0.3-0.7,0.3c-0.5,0-1,0-1.4-0.1c-0.3,0-0.6-0.1-1-0.1c-0.3,0-0.6,0-0.9,0c-0.3,0-0.5,0-0.6,0c-0.6,0.1-1.2,0.1-1.6,0.1
			c-0.5,0-0.7-0.1-0.7-0.3c0-0.1,0.1-0.2,0.2-0.3c0.1-0.1,0.3-0.1,0.6-0.2c0.6-0.1,1.1-0.3,1.3-0.6c0.3-0.3,0.4-0.7,0.4-1.3V81.4
			c0-0.7,0-1.1-0.1-1.4c-0.1-0.3-0.2-0.5-0.4-0.6s-0.5-0.2-1-0.3c-0.3,0-0.5-0.1-0.6-0.2c-0.1-0.1-0.2-0.2-0.2-0.3
			c0-0.2,0.2-0.3,0.7-0.3c0.7,0,1.1,0,1.3,0h1c0.2,0,0.6,0,1.1,0c0.9,0,1.4-0.1,1.7-0.1c1.8,0,3.1,0.3,4,1c0.9,0.7,1.4,1.6,1.4,2.9
			c0,1.7-0.9,3.1-2.8,4c0,0-0.1,0.1-0.1,0.1c0,0,0,0.1,0.1,0.2c1,1.5,1.8,2.7,2.4,3.5c0.6,0.8,1.4,1.7,2.4,2.6
			c0.4,0.3,0.8,0.6,1.2,0.6c0.4,0.1,0.9,0.1,1.6,0.1c0.2,0,0.4,0.1,0.4,0.3c0,0.3-0.2,0.5-0.6,0.6c-0.4,0.1-0.9,0.2-1.3,0.2
			C44.6,94.5,43.9,94.4,43.4,94.2z M38.2,85.6c0.6-0.3,1-0.8,1.3-1.3s0.4-1.1,0.4-1.8c0-1.1-0.2-2-0.7-2.7S37.8,79,36.4,79
			c-0.5,0-0.8,0.2-1,0.5c-0.2,0.3-0.3,0.9-0.3,1.8c0,1.1,0,2.4,0,4.1c0,0.4,0.1,0.6,0.3,0.7s0.5,0.1,1,0.1
			C37,86.1,37.6,85.9,38.2,85.6z"/>
		<path class="st2" d="M51.2,92.7c-1.1-1.1-1.7-2.6-1.7-4.5v-7.4c0-0.5-0.1-0.9-0.3-1.2c-0.2-0.3-0.5-0.5-0.8-0.5
			c-0.5-0.1-0.8-0.3-0.8-0.5c0-0.2,0.2-0.3,0.7-0.3l1,0c0.5,0,0.9,0,1.3,0l1.2,0c0.2,0,0.4,0,0.8,0c0.5,0,0.7,0.1,0.7,0.3
			c0,0.1-0.1,0.2-0.2,0.2c-0.1,0.1-0.3,0.1-0.6,0.2c-0.2,0.1-0.4,0.3-0.7,0.6c-0.2,0.3-0.3,0.7-0.3,1.1v6.7c0,1.9,0.5,3.2,1.4,4.2
			c0.9,0.9,2.1,1.4,3.7,1.4c1.6,0,2.8-0.6,3.6-1.7c0.8-1.1,1.2-2.6,1.2-4.6c0-1,0-2.7-0.1-5.2c0-0.7-0.1-1.3-0.3-1.7
			c-0.2-0.5-0.4-0.8-0.7-0.9c-0.5-0.1-0.8-0.3-0.8-0.5c0-0.2,0.2-0.3,0.7-0.3l1.8,0c0.3,0,0.7,0,1.1,0l0.8,0c0.5,0,0.7,0.1,0.7,0.3
			c0,0.2-0.3,0.4-0.8,0.5c-0.8,0.1-1.2,0.7-1.2,1.8c-0.1,1-0.1,2-0.1,3c0,1,0,1.7-0.1,2.1c0,0.5,0,1.2,0,2.1c0,1.2-0.3,2.3-0.9,3.3
			s-1.3,1.7-2.3,2.3c-0.9,0.5-2,0.8-3.2,0.8C53.9,94.3,52.3,93.8,51.2,92.7z"/>
		<path class="st2" d="M66.3,93.2c-0.2-0.2-0.3-0.3-0.3-0.5c-0.1-0.3-0.1-1-0.2-2l0-0.5c0-0.1,0-0.2,0.1-0.3
			c0.1-0.1,0.2-0.1,0.3-0.1c0.2,0,0.3,0.1,0.4,0.3c0.3,1.2,0.7,2,1.4,2.6c0.6,0.6,1.3,0.8,2.1,0.8c0.8,0,1.5-0.3,2.1-0.8
			s0.8-1.2,0.8-2.1c0-0.6-0.1-1.1-0.3-1.5c-0.2-0.4-0.5-0.8-0.8-1c-0.4-0.3-0.9-0.6-1.6-1.1l-0.5-0.3c-0.8-0.5-1.4-0.9-1.8-1.2
			c-0.4-0.4-0.8-0.8-1.2-1.3c-0.3-0.5-0.5-1.1-0.5-1.8c0-1.3,0.4-2.3,1.3-3.1c0.9-0.8,2.1-1.2,3.7-1.2c0.8,0,1.7,0.2,2.5,0.5
			c0.1,0,0.2,0.1,0.3,0.2c0.1,0.1,0.2,0.2,0.2,0.4c0.2,0.6,0.3,1,0.4,1.4c0.1,0.3,0.1,0.7,0.1,1c0,0.2-0.1,0.3-0.4,0.3
			c-0.1,0-0.3,0-0.4-0.1c-0.1-0.1-0.2-0.1-0.3-0.2c-0.4-0.9-0.8-1.5-1.2-2c-0.5-0.4-1-0.6-1.7-0.6c-0.8,0-1.5,0.2-2,0.7
			c-0.5,0.4-0.8,1.1-0.8,2.1c0,0.4,0.1,0.9,0.4,1.2c0.3,0.4,0.7,0.7,1.1,1.1c0.4,0.3,1.1,0.7,1.8,1.2c0.8,0.5,1.4,0.9,1.8,1.2
			c0.5,0.4,0.9,0.8,1.2,1.4c0.3,0.5,0.5,1.2,0.5,1.9c0,1.4-0.5,2.6-1.4,3.4c-1,0.9-2.2,1.3-3.8,1.3C68.4,94.4,67.2,94,66.3,93.2z"/>
		<path class="st2" d="M77.5,93.2c-0.2-0.2-0.3-0.3-0.3-0.5c-0.1-0.3-0.1-1-0.2-2l0-0.5c0-0.1,0-0.2,0.1-0.3
			c0.1-0.1,0.2-0.1,0.3-0.1c0.2,0,0.3,0.1,0.4,0.3c0.3,1.2,0.7,2,1.4,2.6c0.6,0.6,1.3,0.8,2.1,0.8c0.8,0,1.5-0.3,2.1-0.8
			s0.8-1.2,0.8-2.1c0-0.6-0.1-1.1-0.3-1.5c-0.2-0.4-0.5-0.8-0.8-1c-0.4-0.3-0.9-0.6-1.6-1.1l-0.5-0.3c-0.8-0.5-1.4-0.9-1.8-1.2
			c-0.4-0.4-0.8-0.8-1.2-1.3c-0.3-0.5-0.5-1.1-0.5-1.8c0-1.3,0.4-2.3,1.3-3.1c0.9-0.8,2.1-1.2,3.7-1.2c0.8,0,1.7,0.2,2.5,0.5
			c0.1,0,0.2,0.1,0.3,0.2c0.1,0.1,0.2,0.2,0.2,0.4c0.2,0.6,0.3,1,0.4,1.4c0.1,0.3,0.1,0.7,0.1,1c0,0.2-0.1,0.3-0.4,0.3
			c-0.1,0-0.3,0-0.4-0.1c-0.1-0.1-0.2-0.1-0.3-0.2c-0.4-0.9-0.8-1.5-1.2-2c-0.5-0.4-1-0.6-1.7-0.6c-0.8,0-1.5,0.2-2,0.7
			c-0.5,0.4-0.8,1.1-0.8,2.1c0,0.4,0.1,0.9,0.4,1.2c0.3,0.4,0.7,0.7,1.1,1.1c0.4,0.3,1.1,0.7,1.8,1.2c0.8,0.5,1.4,0.9,1.8,1.2
			c0.5,0.4,0.9,0.8,1.2,1.4c0.3,0.5,0.5,1.2,0.5,1.9c0,1.4-0.5,2.6-1.4,3.4c-1,0.9-2.2,1.3-3.8,1.3C79.5,94.4,78.4,94,77.5,93.2z"/>
		<path class="st2" d="M92.2,93.3c-1.2-0.7-2.2-1.6-2.9-2.8s-1.1-2.6-1.1-4.1c0-1.5,0.3-2.8,1-4.1c0.6-1.3,1.6-2.3,2.8-3.1
			c1.2-0.8,2.7-1.2,4.4-1.2c1.4,0,2.7,0.3,3.9,1c1.2,0.7,2.2,1.6,2.9,2.8c0.7,1.2,1.1,2.6,1.1,4.1c0,1.5-0.3,2.8-1,4.1
			c-0.6,1.3-1.6,2.3-2.8,3.1c-1.2,0.8-2.7,1.2-4.4,1.2C94.8,94.3,93.5,94,92.2,93.3z M100.7,91.7c0.9-1.1,1.4-2.6,1.4-4.6
			c0-1.5-0.2-2.9-0.7-4.1c-0.5-1.2-1.1-2.2-2.1-2.9c-0.9-0.7-2-1.1-3.3-1.1c-1.8,0-3.1,0.5-4.1,1.6c-0.9,1.1-1.4,2.6-1.4,4.5
			c0,1.5,0.2,2.9,0.7,4.1s1.1,2.2,2,2.9s2,1.1,3.3,1.1C98.3,93.4,99.7,92.8,100.7,91.7z"/>
		<path class="st2" d="M106.2,89.8c0-0.3,0-0.6,0.1-0.9c0.1-0.3,0.2-0.4,0.3-0.4c2-0.3,3.6-0.5,4.6-0.6c0.1,0,0.2,0,0.2,0.1
			c0,0.4,0,0.7-0.1,0.9s-0.2,0.4-0.4,0.4l-0.6,0.1c-1.6,0.3-3,0.4-3.9,0.5C106.2,89.9,106.2,89.9,106.2,89.8z"/>
		<path class="st2" d="M112.5,93.9c0-0.1,0.1-0.2,0.2-0.3c0.1-0.1,0.3-0.1,0.6-0.2c0.6-0.1,1.1-0.3,1.4-0.6c0.3-0.3,0.5-0.7,0.5-1.2
			V80.8c0-0.6-0.1-1-0.4-1.3c-0.2-0.3-0.7-0.4-1.2-0.5c-0.3,0-0.5-0.1-0.6-0.2c-0.1-0.1-0.2-0.2-0.2-0.3c0-0.2,0.2-0.3,0.7-0.3
			c0.7,0,1.2,0,1.4,0h1.1c0.2,0,0.6,0,1,0c0.8,0,1.4-0.1,1.6-0.1c1.9,0,3.3,0.3,4.2,0.8c0.9,0.6,1.3,1.5,1.3,2.7
			c0,0.5-0.1,1-0.3,1.4s-0.4,0.7-0.6,0.9c-0.3,0.3-0.5,0.5-0.7,0.6c-0.2,0.1-0.5,0.3-0.9,0.4c-0.1,0-0.1,0.1-0.1,0.1
			c0,0.1,0,0.1,0.1,0.1c0.7,0.2,1.2,0.5,1.7,0.7c0.5,0.3,0.9,0.6,1.2,1.2c0.3,0.5,0.5,1.2,0.5,2.1c0,0.8-0.1,1.5-0.4,2
			c-0.3,0.5-0.6,0.9-0.9,1.2c-0.3,0.3-0.7,0.5-1.2,0.8c-1.1,0.5-2.4,0.8-4.1,0.8l-0.7,0c-0.4,0-1-0.1-1.6-0.1c-0.4,0-0.9,0-1.5,0
			c-0.4,0-1,0.1-1.7,0.1C112.7,94.1,112.5,94,112.5,93.9z M121,84.4c0.3-0.1,0.5-0.4,0.7-0.8c0.2-0.4,0.3-0.9,0.3-1.5
			c0-0.9-0.3-1.6-0.8-2.2c-0.5-0.6-1.4-0.9-2.7-0.9c-0.6,0-1,0.1-1.3,0.3S117,79.6,117,80v4.2c0,0.6,0.4,0.9,1.1,0.9
			C119.2,85.1,120.2,84.9,121,84.4z M120.9,92.6c0.6-0.3,1.1-0.8,1.5-1.3c0.4-0.6,0.6-1.2,0.6-1.8c0-0.8-0.2-1.5-0.5-2
			c-0.4-0.5-0.8-0.9-1.2-1.1c-0.7-0.4-1.6-0.6-2.7-0.6c-0.5,0-0.8,0.1-1,0.3c-0.2,0.2-0.3,0.4-0.3,0.6v4.8c0,0.6,0.2,1.1,0.5,1.3
			c0.3,0.2,0.8,0.4,1.4,0.4C119.6,93.1,120.3,93,120.9,92.6z"/>
		<path class="st2" d="M126.3,94c-0.1-0.1-0.2-0.1-0.2-0.2c0-0.2,0.3-0.4,0.8-0.6c0.5-0.1,0.9-0.3,1.2-0.6c0.3-0.3,0.6-0.7,0.9-1.2
			c0.8-2,1.6-3.7,2.2-5.3c0.6-1.6,1.4-3.6,2.3-6c0.2-0.5,0.3-1,0.3-1.4c0,0,0.2-0.1,0.3-0.1c0.2-0.1,0.4-0.1,0.5-0.3
			c0.1-0.1,0.2-0.2,0.3-0.4c0.1-0.2,0.1-0.3,0.2-0.4c0,0,0,0,0.1,0c0,0,0,0,0.1,0c0,0.1,0.1,0.2,0.1,0.3c0,0.1,0.1,0.2,0.1,0.3
			c1.2,3.7,2.6,8,4.3,12.8c0.3,0.9,0.6,1.5,1,1.8c0.4,0.3,0.8,0.5,1.4,0.6c0.3,0,0.5,0.1,0.6,0.2c0.1,0.1,0.2,0.2,0.2,0.3
			c0,0.2-0.2,0.2-0.7,0.2l-1.3,0c-0.9-0.1-1.6-0.1-2-0.1l-2.5,0c-0.5,0-0.7-0.1-0.7-0.3c0-0.1,0.1-0.2,0.2-0.3
			c0.2-0.1,0.3-0.1,0.6-0.2c1-0.2,1.5-0.5,1.5-1.1c0-0.5-0.3-1.8-0.9-3.9c0-0.1-0.1-0.2-0.2-0.2s-0.2,0-0.5,0h-4.5
			c-0.2,0-0.3,0.1-0.4,0.4c-0.2,0.5-0.4,1.2-0.6,2s-0.4,1.3-0.4,1.5c0,0.3,0.1,0.6,0.4,0.9c0.3,0.2,0.6,0.4,1,0.5
			c0.3,0.1,0.5,0.2,0.6,0.2c0.1,0.1,0.2,0.2,0.2,0.3c0,0.2-0.2,0.3-0.7,0.3c-0.3,0-0.5,0-0.7,0l-1.5,0c-0.3,0-0.6,0-0.9,0
			c-0.3,0-0.6,0-0.7,0c-0.4,0-0.9,0.1-1.2,0.1C126.6,94.1,126.4,94.1,126.3,94z M136.1,87.2c0.1,0,0.2,0,0.2,0c0.1,0,0.1,0,0.1-0.1
			l0-0.2l-1.9-5.9c-0.1-0.3-0.2-0.4-0.2-0.4c0,0-0.1,0.1-0.2,0.4l-2.2,5.9l0,0.2c0,0.1,0,0.1,0.1,0.1c0.1,0,0.2,0,0.4,0H136.1z"/>
		<path class="st2" d="M143.6,94c-0.1-0.1-0.2-0.1-0.2-0.2c0-0.2,0.2-0.3,0.5-0.4c0.7-0.1,1.1-0.3,1.5-0.6c0.3-0.3,0.5-0.6,0.5-1.2
			V80.6c0-0.4,0-0.7-0.1-0.9c-0.1-0.2-0.2-0.3-0.4-0.4c-0.2-0.1-0.5-0.2-0.9-0.2c-0.5-0.1-0.8-0.3-0.8-0.5c0-0.2,0.2-0.3,0.7-0.3
			c0.5,0,1,0,1.5,0l1.2,0l1.4,0c0.6,0,1.1,0,1.6,0c0.5,0,0.7,0.1,0.7,0.3c0,0.2-0.3,0.4-0.8,0.5c-0.8,0.1-1.3,0.3-1.6,0.5
			s-0.5,0.4-0.5,0.9v11.3c0,0.5,0.1,0.9,0.4,1.1s0.7,0.3,1.5,0.3h3c0.4,0,0.8-0.1,1.1-0.2c0.3-0.1,0.6-0.3,0.8-0.4
			c0.3-0.3,0.6-0.5,0.7-0.7c0.2-0.2,0.3-0.5,0.5-1c0.1-0.2,0.1-0.3,0.2-0.5c0.1-0.2,0.2-0.2,0.3-0.2s0.2,0,0.2,0.1
			c0,0.1,0.1,0.2,0.1,0.3l0,0.1c-0.2,0.8-0.4,1.4-0.4,1.8s-0.2,0.8-0.2,1.3c0,0.3-0.1,0.4-0.3,0.4c-1.7,0-3.3,0-4.7-0.1
			c-1.6,0-2.8,0-3.5,0c-0.5,0-1.1,0-1.8,0c-0.7,0-1.2,0.1-1.4,0.1C143.8,94.1,143.7,94.1,143.6,94z"/>
		<path class="st2" d="M158.3,93.9c0-0.1,0.1-0.2,0.2-0.3c0.1-0.1,0.3-0.1,0.6-0.2c0.6-0.1,1.1-0.3,1.4-0.6c0.3-0.3,0.5-0.7,0.5-1.3
			v-9.3c0-1.1,0-1.8-0.1-2.2c-0.1-0.4-0.2-0.6-0.4-0.6c-0.2,0-0.5-0.1-0.7-0.1c-0.3,0-0.6,0-1,0h-1.1c-0.4,0-0.8,0.1-1.2,0.2
			c-0.4,0.2-0.6,0.4-0.8,0.7c-0.1,0.2-0.2,0.4-0.4,0.6c-0.2,0.2-0.4,0.3-0.5,0.3c-0.1,0-0.2-0.1-0.2-0.3c0-0.2,0-0.3,0.1-0.5
			c0.2-0.4,0.4-0.8,0.5-1.2c0.1-0.4,0.2-0.8,0.3-1.3c0-0.4,0.2-0.6,0.4-0.6c0,0,0.1,0.1,0.3,0.3c0.1,0.2,0.2,0.3,0.3,0.5
			c0.1,0.2,0.3,0.3,0.6,0.4c0.3,0.1,0.7,0.1,1,0.1h8.4c1,0,1.8-0.1,2.3-0.4c0.1,0,0.2-0.1,0.4-0.3c0.2-0.1,0.4-0.2,0.5-0.2
			c0,0,0.1,0.1,0.1,0.2c0,0.1,0,0.2,0,0.4c0,0.1,0,0.3-0.1,0.7l-0.1,0.7c-0.1,0.2-0.1,0.4-0.1,0.7v0.3c0,0.2,0,0.3-0.1,0.5
			c-0.1,0.2-0.2,0.3-0.3,0.3c-0.1,0-0.2-0.1-0.3-0.2c-0.1-0.2-0.1-0.4-0.2-0.8c-0.1-0.4-0.3-0.6-0.6-0.8c-0.3-0.2-0.9-0.3-1.6-0.3
			h-2.4c-0.4,0-0.7,0-0.8,0.1s-0.3,0.3-0.3,0.7c0,0.4-0.1,1-0.1,1.9v9.4c0,0.6,0.2,1,0.5,1.3c0.3,0.3,0.8,0.5,1.4,0.6
			c0.3,0,0.5,0.1,0.6,0.2c0.1,0.1,0.2,0.2,0.2,0.3c0,0.2-0.2,0.3-0.7,0.3c-0.6,0-1.1,0-1.5-0.1c-0.5,0-0.9,0-1.3,0
			c-0.4,0-0.9,0-1.5,0c-0.5,0-1,0.1-1.6,0.1C158.5,94.1,158.3,94,158.3,93.9z"/>
	</g>
	<g id="Group-Copy" transform="translate(68.000000, 127.000000)">
		<g transform="translate(39.000000, 0.000000)">
			<polygon id="Fill-1" class="st3" points="6.5,0.9 5.2,5 0.9,5 4.3,7.5 3,11.6 6.5,9.1 10,11.6 8.7,7.5 12.1,5 7.8,5 			"/>
		</g>
		<g transform="translate(13.000000, 0.000000)">
			<polygon class="st3" points="6.5,0.9 5.2,5 0.9,5 4.3,7.5 3,11.6 6.5,9.1 10,11.6 8.7,7.5 12.1,5 7.8,5 			"/>
		</g>
		<g transform="translate(52.000000, 0.000000)">
			<polygon class="st3" points="6.5,0.9 5.2,5 0.9,5 4.3,7.5 3,11.6 6.5,9.1 10,11.6 8.7,7.5 12.1,5 7.8,5 			"/>
		</g>
		<g transform="translate(26.000000, 0.000000)">
			<polygon class="st3" points="6.5,0.9 5.2,5 0.9,5 4.3,7.5 3,11.6 6.5,9.1 10,11.6 8.7,7.5 12.1,5 7.8,5 			"/>
		</g>
		<g>
			<polygon class="st3" points="6.5,0.9 5.2,5 0.9,5 4.3,7.5 3,11.6 6.5,9.1 10,11.6 8.7,7.5 12.1,5 7.8,5 			"/>
		</g>
	</g>
</g>
</svg>
